<svg class="railroad" viewBox="0 0 1712 3949" xmlns="http://www.w3.org/2000/svg" xmlns:xlink="http://www.w3.org/1999/xlink">
<style type="text/css">
svg.railroad {
    background-color: hsl(30, 20%, 95%);
    background-size: 15px 15px;
    background-image: linear-gradient(to right, rgba(30, 30, 30, .05) 1px, transparent 1px),
    linear-gradient(to bottom, rgba(30, 30, 30, .05) 1px, transparent 1px);
}

svg.railroad path {
    stroke-width: 3px;
    stroke: black;
    fill: transparent;
}

svg.railroad .debug {
    stroke-width: 1px;
    stroke: red;
}

svg.railroad text {
    font-size: 14px;
    font-family: monospace;
    text-anchor: middle;
}

svg.railroad .nonterminal text {
    font-weight: bold;
}

svg.railroad text.comment {
    font-family: serif;
    font-style: italic;
    font-size: 12px;
}

svg.railroad rect {
    stroke-width: 3px;
    stroke: black;
}

svg.railroad g.labeledbox > rect {
    stroke-width: 1px;
    stroke: grey;
    stroke-dasharray: 5px;
    fill: rgba(90, 90, 150, .1);
}

svg.railroad .symbol > rect {
    fill: rgba(90, 90, 150, .1);
}

svg.railroad .regex > rect {
    fill: honeydew;
}

svg.railroad .string > rect {
    fill: cornsilk;
}

svg.railroad .character > rect {
    fill: lightcoral;
}
</style>
<g class="verticalgrid">
<g class="sequence">
<path d=" M 10 21 a 5 5 0 0 1 5 -5 a 5 5 0 0 1 5 5 a 5 5 0 0 1 -5 5 a 5 5 0 0 1 -5 -5 m 10 0 h 5"/>
<text class="comment" id="Root" x="54" y="26">
Root</text>
<g class="repeat">
<path d=" M 83 21 h 12 m 154 0 h 12 m -12 0 a 12 12 0 0 1 12 12 v 7 a 12 12 0 0 1 -12 12 m -52 0 h -102 m 54 0 l 5 -5 m 0 10 l -5 -5 m -54 0 a 12 12 0 0 1 -12 -12 v -7 a 12 12 0 0 1 12 -12"/>
<text class="comment" x="223" y="57">
[0, ∞]</text>
<g class="sequence">
<g class="character">
<rect height="22" rx="10" ry="10" width="52" x="95" y="10"/>
<text x="121" y="26">
HIDE</text>
</g>
<a class="link" xlink:href="#Statement">
<g class="symbol">
<rect height="22" width="92" x="157" y="10"/>
<text x="203" y="26">
Statement</text>
</g>
</a>
<path d=" M 147 21 h 10"/>
</g>
</g>
<path d=" M 271 21 h 5 a 5 5 0 0 1 5 -5 a 5 5 0 0 1 5 5 a 5 5 0 0 1 -5 5 a 5 5 0 0 1 -5 -5"/>
<path d=" M 25 21 h 10"/>
<path d=" M 73 21 h 10"/>
<path d=" M 261 21 h 10"/>
</g>
<g class="sequence">
<path d=" M 10 85 a 5 5 0 0 1 5 -5 a 5 5 0 0 1 5 5 a 5 5 0 0 1 -5 5 a 5 5 0 0 1 -5 -5 m 10 0 h 5"/>
<text class="comment" id="Statement" x="71" y="90">
Statement</text>
<g class="choice">
<path d=" M 118 85 h 24 m 148 0 h 32"/>
<a class="link" xlink:href="#GrammarStatement">
<g class="symbol">
<rect height="22" width="148" x="142" y="74"/>
<text x="216" y="90">
GrammarStatement</text>
</g>
</a>
<path d=" M 118 85 a 12 12 0 0 1 12 12 v 9 m 180 0 v -9 a 12 12 0 0 1 12 -12"/>
<path d=" M 130 106 v 33 m 180 0 v -33"/>
<path d=" M 130 139 v 33 m 180 0 v -33"/>
<path d=" M 130 172 v 33 m 180 0 v -33"/>
<path d=" M 130 106 v 0 a 12 12 0 0 0 12 12 m 132 0 h 24 a 12 12 0 0 0 12 -12 v 0"/>
<a class="link" xlink:href="#ClassStatement">
<g class="symbol">
<rect height="22" width="132" x="142" y="107"/>
<text x="208" y="123">
ClassStatement</text>
</g>
</a>
<path d=" M 130 139 v 0 a 12 12 0 0 0 12 12 m 132 0 h 24 a 12 12 0 0 0 12 -12 v 0"/>
<a class="link" xlink:href="#UnionStatement">
<g class="symbol">
<rect height="22" width="132" x="142" y="140"/>
<text x="208" y="156">
UnionStatement</text>
</g>
</a>
<path d=" M 130 172 v 0 a 12 12 0 0 0 12 12 m 132 0 h 24 a 12 12 0 0 0 12 -12 v 0"/>
<a class="link" xlink:href="#GroupStatement">
<g class="symbol">
<rect height="22" width="132" x="142" y="173"/>
<text x="208" y="189">
GroupStatement</text>
</g>
</a>
<path d=" M 130 205 v 0 a 12 12 0 0 0 12 12 m 156 0 h 0 a 12 12 0 0 0 12 -12 v 0"/>
<a class="link" xlink:href="#ExternalStatement">
<g class="symbol">
<rect height="22" width="156" x="142" y="206"/>
<text x="220" y="222">
ExternalStatement</text>
</g>
</a>
</g>
<path d=" M 332 85 h 5 a 5 5 0 0 1 5 -5 a 5 5 0 0 1 5 5 a 5 5 0 0 1 -5 5 a 5 5 0 0 1 -5 -5"/>
<path d=" M 25 85 h 10"/>
<path d=" M 108 85 h 10"/>
<path d=" M 322 85 h 10"/>
</g>
<g class="sequence">
<path d=" M 10 251 a 5 5 0 0 1 5 -5 a 5 5 0 0 1 5 5 a 5 5 0 0 1 -5 5 a 5 5 0 0 1 -5 -5 m 10 0 h 5"/>
<text class="comment" id="GrammarStatement" x="96" y="256">
GrammarStatement</text>
<g class="sequence">
<a class="link" xlink:href="#KW_GRAMMAR">
<g class="symbol">
<rect height="22" width="100" x="167" y="240"/>
<text x="217" y="256">
KW_GRAMMAR</text>
</g>
</a>
<g class="character">
<rect height="22" rx="10" ry="10" width="52" x="277" y="240"/>
<text x="303" y="256">
HIDE</text>
</g>
<a class="link" xlink:href="#Identifier">
<g class="symbol">
<rect height="22" width="100" x="339" y="240"/>
<text x="389" y="256">
Identifier</text>
</g>
</a>
<g class="character">
<rect height="22" rx="10" ry="10" width="52" x="449" y="240"/>
<text x="475" y="256">
HIDE</text>
</g>
<a class="link" xlink:href="#GrammarBlock">
<g class="symbol">
<rect height="22" width="116" x="511" y="240"/>
<text x="569" y="256">
GrammarBlock</text>
</g>
</a>
<path d=" M 267 251 h 10"/>
<path d=" M 329 251 h 10"/>
<path d=" M 439 251 h 10"/>
<path d=" M 501 251 h 10"/>
</g>
<path d=" M 637 251 h 5 a 5 5 0 0 1 5 -5 a 5 5 0 0 1 5 5 a 5 5 0 0 1 -5 5 a 5 5 0 0 1 -5 -5"/>
<path d=" M 25 251 h 10"/>
<path d=" M 157 251 h 10"/>
<path d=" M 627 251 h 10"/>
</g>
<g class="sequence">
<path d=" M 10 285 a 5 5 0 0 1 5 -5 a 5 5 0 0 1 5 5 a 5 5 0 0 1 -5 5 a 5 5 0 0 1 -5 -5 m 10 0 h 5"/>
<text class="comment" id="GrammarBlock" x="82" y="290">
GrammarBlock</text>
<g class="sequence">
<g class="string">
<rect height="22" rx="10" ry="10" width="28" x="139" y="274"/>
<text x="153" y="290">
{</text>
</g>
<g class="character">
<rect height="22" rx="10" ry="10" width="52" x="177" y="274"/>
<text x="203" y="290">
HIDE</text>
</g>
<g class="string">
<rect height="22" rx="10" ry="10" width="28" x="239" y="274"/>
<text x="253" y="290">
}</text>
</g>
<path d=" M 167 285 h 10"/>
<path d=" M 229 285 h 10"/>
</g>
<path d=" M 277 285 h 5 a 5 5 0 0 1 5 -5 a 5 5 0 0 1 5 5 a 5 5 0 0 1 -5 5 a 5 5 0 0 1 -5 -5"/>
<path d=" M 25 285 h 10"/>
<path d=" M 129 285 h 10"/>
<path d=" M 267 285 h 10"/>
</g>
<g class="sequence">
<path d=" M 10 332 a 5 5 0 0 1 5 -5 a 5 5 0 0 1 5 5 a 5 5 0 0 1 -5 5 a 5 5 0 0 1 -5 -5 m 10 0 h 5"/>
<text class="comment" id="ClassStatement" x="89" y="337">
ClassStatement</text>
<g class="sequence">
<g class="sequence">
<g class="repeat">
<path d=" M 153 332 h 12 m 186 0 h 12 m -12 0 a 12 12 0 0 1 12 12 v 7 a 12 12 0 0 1 -12 12 m -52 0 h -134 m 70 0 l 5 -5 m 0 10 l -5 -5 m -70 0 a 12 12 0 0 1 -12 -12 v -7 a 12 12 0 0 1 12 -12"/>
<text class="comment" x="325" y="368">
[0, ∞]</text>
<g class="sequence">
<g class="character">
<rect height="22" rx="10" ry="10" width="52" x="165" y="321"/>
<text x="191" y="337">
HIDE</text>
</g>
<a class="link" xlink:href="#DecoratorCall">
<g class="symbol">
<rect height="22" width="124" x="227" y="321"/>
<text x="289" y="337">
DecoratorCall</text>
</g>
</a>
<path d=" M 217 332 h 10"/>
</g>
</g>
<g class="character">
<rect height="22" rx="10" ry="10" width="52" x="373" y="321"/>
<text x="399" y="337">
HIDE</text>
</g>
<g class="repeat">
<path d=" M 435 332 h 12 m 178 0 h 12 m -12 0 a 12 12 0 0 1 12 12 v 7 a 12 12 0 0 1 -12 12 m -52 0 h -126 m 66 0 l 5 -5 m 0 10 l -5 -5 m -66 0 a 12 12 0 0 1 -12 -12 v -7 a 12 12 0 0 1 12 -12"/>
<text class="comment" x="599" y="368">
[0, ∞]</text>
<g class="sequence">
<g class="character">
<rect height="22" rx="10" ry="10" width="52" x="447" y="321"/>
<text x="473" y="337">
HIDE</text>
</g>
<a class="link" xlink:href="#ModifierCall">
<g class="symbol">
<rect height="22" width="116" x="509" y="321"/>
<text x="567" y="337">
ModifierCall</text>
</g>
</a>
<path d=" M 499 332 h 10"/>
</g>
</g>
<g class="character">
<rect height="22" rx="10" ry="10" width="52" x="647" y="321"/>
<text x="673" y="337">
HIDE</text>
</g>
<a class="link" xlink:href="#KW_CLASS">
<g class="symbol">
<rect height="22" width="84" x="709" y="321"/>
<text x="751" y="337">
KW_CLASS</text>
</g>
</a>
<g class="character">
<rect height="22" rx="10" ry="10" width="52" x="803" y="321"/>
<text x="829" y="337">
HIDE</text>
</g>
<path d=" M 363 332 h 10"/>
<path d=" M 425 332 h 10"/>
<path d=" M 637 332 h 10"/>
<path d=" M 699 332 h 10"/>
<path d=" M 793 332 h 10"/>
</g>
<a class="link" xlink:href="#Identifier">
<g class="symbol">
<rect height="22" width="100" x="865" y="321"/>
<text x="915" y="337">
Identifier</text>
</g>
</a>
<g class="character">
<rect height="22" rx="10" ry="10" width="52" x="975" y="321"/>
<text x="1001" y="337">
HIDE</text>
</g>
<g class="optional">
<path d=" M 1037 332 h 24 m -24 0 a 12 12 0 0 0 12 -12 v 0 a 12 12 0 0 1 12 -12 h 208 m -101 0 l -5 -5 m 0 10 l 5 -5 m 101 0 a 12 12 0 0 1 12 12 v 0 a 12 12 0 0 0 12 12 h -24"/>
<g class="sequence">
<g class="sequence">
<g class="string">
<rect height="22" rx="10" ry="10" width="36" x="1061" y="321"/>
<text x="1079" y="337">
-&gt;</text>
</g>
<g class="character">
<rect height="22" rx="10" ry="10" width="52" x="1107" y="321"/>
<text x="1133" y="337">
HIDE</text>
</g>
<path d=" M 1097 332 h 10"/>
</g>
<a class="link" xlink:href="#Identifier">
<g class="symbol">
<rect height="22" width="100" x="1169" y="321"/>
<text x="1219" y="337">
Identifier</text>
</g>
</a>
<path d=" M 1159 332 h 10"/>
</g>
</g>
<g class="character">
<rect height="22" rx="10" ry="10" width="52" x="1303" y="321"/>
<text x="1329" y="337">
HIDE</text>
</g>
<g class="optional">
<path d=" M 1365 332 h 24 m -24 0 a 12 12 0 0 0 12 -12 v 0 a 12 12 0 0 1 12 -12 h 92 m -43 0 l -5 -5 m 0 10 l 5 -5 m 43 0 a 12 12 0 0 1 12 12 v 0 a 12 12 0 0 0 12 12 h -24"/>
<a class="link" xlink:href="#OP_REMARK">
<g class="symbol">
<rect height="22" width="92" x="1389" y="321"/>
<text x="1435" y="337">
OP_REMARK</text>
</g>
</a>
</g>
<g class="character">
<rect height="22" rx="10" ry="10" width="52" x="1515" y="321"/>
<text x="1541" y="337">
HIDE</text>
</g>
<a class="link" xlink:href="#ClassBlock">
<g class="symbol">
<rect height="22" width="100" x="1577" y="321"/>
<text x="1627" y="337">
ClassBlock</text>
</g>
</a>
<path d=" M 855 332 h 10"/>
<path d=" M 965 332 h 10"/>
<path d=" M 1027 332 h 10"/>
<path d=" M 1293 332 h 10"/>
<path d=" M 1355 332 h 10"/>
<path d=" M 1505 332 h 10"/>
<path d=" M 1567 332 h 10"/>
</g>
<path d=" M 1687 332 h 5 a 5 5 0 0 1 5 -5 a 5 5 0 0 1 5 5 a 5 5 0 0 1 -5 5 a 5 5 0 0 1 -5 -5"/>
<path d=" M 25 332 h 10"/>
<path d=" M 143 332 h 10"/>
<path d=" M 1677 332 h 10"/>
</g>
<g class="sequence">
<path d=" M 10 409 a 5 5 0 0 1 5 -5 a 5 5 0 0 1 5 5 a 5 5 0 0 1 -5 5 a 5 5 0 0 1 -5 -5 m 10 0 h 5"/>
<text class="comment" id="ClassBlock" x="75" y="414">
ClassBlock</text>
<g class="sequence">
<g class="string">
<rect height="22" rx="10" ry="10" width="28" x="125" y="398"/>
<text x="139" y="414">
{</text>
</g>
<g class="character">
<rect height="22" rx="10" ry="10" width="52" x="163" y="398"/>
<text x="189" y="414">
HIDE</text>
</g>
<g class="optional">
<path d=" M 225 409 h 24 m -24 0 a 12 12 0 0 0 12 -12 v 0 a 12 12 0 0 1 12 -12 h 28 a 12 12 0 0 1 12 12 v 0 a 12 12 0 0 0 12 12 h -24"/>
<g class="string">
<rect height="22" rx="10" ry="10" width="28" x="249" y="398"/>
<text x="263" y="414">
|</text>
</g>
</g>
<g class="character">
<rect height="22" rx="10" ry="10" width="52" x="311" y="398"/>
<text x="337" y="414">
HIDE</text>
</g>
<a class="link" xlink:href="#Expression">
<g class="symbol">
<rect height="22" width="100" x="373" y="398"/>
<text x="423" y="414">
Expression</text>
</g>
</a>
<g class="character">
<rect height="22" rx="10" ry="10" width="52" x="483" y="398"/>
<text x="509" y="414">
HIDE</text>
</g>
<g class="string">
<rect height="22" rx="10" ry="10" width="28" x="545" y="398"/>
<text x="559" y="414">
}</text>
</g>
<path d=" M 153 409 h 10"/>
<path d=" M 215 409 h 10"/>
<path d=" M 301 409 h 10"/>
<path d=" M 363 409 h 10"/>
<path d=" M 473 409 h 10"/>
<path d=" M 535 409 h 10"/>
</g>
<path d=" M 583 409 h 5 a 5 5 0 0 1 5 -5 a 5 5 0 0 1 5 5 a 5 5 0 0 1 -5 5 a 5 5 0 0 1 -5 -5"/>
<path d=" M 25 409 h 10"/>
<path d=" M 115 409 h 10"/>
<path d=" M 573 409 h 10"/>
</g>
<g class="sequence">
<path d=" M 10 443 a 5 5 0 0 1 5 -5 a 5 5 0 0 1 5 5 a 5 5 0 0 1 -5 5 a 5 5 0 0 1 -5 -5 m 10 0 h 5"/>
<text class="comment" id="OP_REMARK" x="71" y="448">
OP_REMARK</text>
<g class="string">
<rect height="22" rx="10" ry="10" width="28" x="118" y="432"/>
<text x="132" y="448">
^</text>
</g>
<path d=" M 156 443 h 5 a 5 5 0 0 1 5 -5 a 5 5 0 0 1 5 5 a 5 5 0 0 1 -5 5 a 5 5 0 0 1 -5 -5"/>
<path d=" M 25 443 h 10"/>
<path d=" M 108 443 h 10"/>
<path d=" M 146 443 h 10"/>
</g>
<g class="sequence">
<path d=" M 10 490 a 5 5 0 0 1 5 -5 a 5 5 0 0 1 5 5 a 5 5 0 0 1 -5 5 a 5 5 0 0 1 -5 -5 m 10 0 h 5"/>
<text class="comment" id="UnionStatement" x="89" y="495">
UnionStatement</text>
<g class="sequence">
<g class="sequence">
<g class="repeat">
<path d=" M 153 490 h 12 m 186 0 h 12 m -12 0 a 12 12 0 0 1 12 12 v 7 a 12 12 0 0 1 -12 12 m -52 0 h -134 m 70 0 l 5 -5 m 0 10 l -5 -5 m -70 0 a 12 12 0 0 1 -12 -12 v -7 a 12 12 0 0 1 12 -12"/>
<text class="comment" x="325" y="526">
[0, ∞]</text>
<g class="sequence">
<g class="character">
<rect height="22" rx="10" ry="10" width="52" x="165" y="479"/>
<text x="191" y="495">
HIDE</text>
</g>
<a class="link" xlink:href="#DecoratorCall">
<g class="symbol">
<rect height="22" width="124" x="227" y="479"/>
<text x="289" y="495">
DecoratorCall</text>
</g>
</a>
<path d=" M 217 490 h 10"/>
</g>
</g>
<g class="character">
<rect height="22" rx="10" ry="10" width="52" x="373" y="479"/>
<text x="399" y="495">
HIDE</text>
</g>
<g class="repeat">
<path d=" M 435 490 h 12 m 178 0 h 12 m -12 0 a 12 12 0 0 1 12 12 v 7 a 12 12 0 0 1 -12 12 m -52 0 h -126 m 66 0 l 5 -5 m 0 10 l -5 -5 m -66 0 a 12 12 0 0 1 -12 -12 v -7 a 12 12 0 0 1 12 -12"/>
<text class="comment" x="599" y="526">
[0, ∞]</text>
<g class="sequence">
<g class="character">
<rect height="22" rx="10" ry="10" width="52" x="447" y="479"/>
<text x="473" y="495">
HIDE</text>
</g>
<a class="link" xlink:href="#ModifierCall">
<g class="symbol">
<rect height="22" width="116" x="509" y="479"/>
<text x="567" y="495">
ModifierCall</text>
</g>
</a>
<path d=" M 499 490 h 10"/>
</g>
</g>
<g class="character">
<rect height="22" rx="10" ry="10" width="52" x="647" y="479"/>
<text x="673" y="495">
HIDE</text>
</g>
<a class="link" xlink:href="#KW_UNION">
<g class="symbol">
<rect height="22" width="84" x="709" y="479"/>
<text x="751" y="495">
KW_UNION</text>
</g>
</a>
<g class="character">
<rect height="22" rx="10" ry="10" width="52" x="803" y="479"/>
<text x="829" y="495">
HIDE</text>
</g>
<path d=" M 363 490 h 10"/>
<path d=" M 425 490 h 10"/>
<path d=" M 637 490 h 10"/>
<path d=" M 699 490 h 10"/>
<path d=" M 793 490 h 10"/>
</g>
<a class="link" xlink:href="#Identifier">
<g class="symbol">
<rect height="22" width="100" x="865" y="479"/>
<text x="915" y="495">
Identifier</text>
</g>
</a>
<g class="character">
<rect height="22" rx="10" ry="10" width="52" x="975" y="479"/>
<text x="1001" y="495">
HIDE</text>
</g>
<g class="optional">
<path d=" M 1037 490 h 24 m -24 0 a 12 12 0 0 0 12 -12 v 0 a 12 12 0 0 1 12 -12 h 92 m -43 0 l -5 -5 m 0 10 l 5 -5 m 43 0 a 12 12 0 0 1 12 12 v 0 a 12 12 0 0 0 12 12 h -24"/>
<a class="link" xlink:href="#OP_REMARK">
<g class="symbol">
<rect height="22" width="92" x="1061" y="479"/>
<text x="1107" y="495">
OP_REMARK</text>
</g>
</a>
</g>
<g class="character">
<rect height="22" rx="10" ry="10" width="52" x="1187" y="479"/>
<text x="1213" y="495">
HIDE</text>
</g>
<a class="link" xlink:href="#UnionBlock">
<g class="symbol">
<rect height="22" width="100" x="1249" y="479"/>
<text x="1299" y="495">
UnionBlock</text>
</g>
</a>
<path d=" M 855 490 h 10"/>
<path d=" M 965 490 h 10"/>
<path d=" M 1027 490 h 10"/>
<path d=" M 1177 490 h 10"/>
<path d=" M 1239 490 h 10"/>
</g>
<path d=" M 1359 490 h 5 a 5 5 0 0 1 5 -5 a 5 5 0 0 1 5 5 a 5 5 0 0 1 -5 5 a 5 5 0 0 1 -5 -5"/>
<path d=" M 25 490 h 10"/>
<path d=" M 143 490 h 10"/>
<path d=" M 1349 490 h 10"/>
</g>
<g class="sequence">
<path d=" M 10 554 a 5 5 0 0 1 5 -5 a 5 5 0 0 1 5 5 a 5 5 0 0 1 -5 5 a 5 5 0 0 1 -5 -5 m 10 0 h 5"/>
<text class="comment" id="UnionBlock" x="75" y="559">
UnionBlock</text>
<g class="sequence">
<g class="string">
<rect height="22" rx="10" ry="10" width="28" x="125" y="543"/>
<text x="139" y="559">
{</text>
</g>
<g class="character">
<rect height="22" rx="10" ry="10" width="52" x="163" y="543"/>
<text x="189" y="559">
HIDE</text>
</g>
<g class="repeat">
<path d=" M 225 554 h 12 m 170 0 h 12 m -12 0 a 12 12 0 0 1 12 12 v 7 a 12 12 0 0 1 -12 12 m -52 0 h -118 m 62 0 l 5 -5 m 0 10 l -5 -5 m -62 0 a 12 12 0 0 1 -12 -12 v -7 a 12 12 0 0 1 12 -12"/>
<text class="comment" x="381" y="590">
[0, ∞]</text>
<g class="sequence">
<g class="character">
<rect height="22" rx="10" ry="10" width="52" x="237" y="543"/>
<text x="263" y="559">
HIDE</text>
</g>
<a class="link" xlink:href="#UnionBranch">
<g class="symbol">
<rect height="22" width="108" x="299" y="543"/>
<text x="353" y="559">
UnionBranch</text>
</g>
</a>
<path d=" M 289 554 h 10"/>
</g>
</g>
<g class="character">
<rect height="22" rx="10" ry="10" width="52" x="429" y="543"/>
<text x="455" y="559">
HIDE</text>
</g>
<g class="string">
<rect height="22" rx="10" ry="10" width="28" x="491" y="543"/>
<text x="505" y="559">
}</text>
</g>
<path d=" M 153 554 h 10"/>
<path d=" M 215 554 h 10"/>
<path d=" M 419 554 h 10"/>
<path d=" M 481 554 h 10"/>
</g>
<path d=" M 529 554 h 5 a 5 5 0 0 1 5 -5 a 5 5 0 0 1 5 5 a 5 5 0 0 1 -5 5 a 5 5 0 0 1 -5 -5"/>
<path d=" M 25 554 h 10"/>
<path d=" M 115 554 h 10"/>
<path d=" M 519 554 h 10"/>
</g>
<g class="sequence">
<path d=" M 10 631 a 5 5 0 0 1 5 -5 a 5 5 0 0 1 5 5 a 5 5 0 0 1 -5 5 a 5 5 0 0 1 -5 -5 m 10 0 h 5"/>
<text class="comment" id="UnionBranch" x="78" y="636">
UnionBranch</text>
<g class="sequence">
<g class="string">
<rect height="22" rx="10" ry="10" width="28" x="132" y="620"/>
<text x="146" y="636">
|</text>
</g>
<g class="character">
<rect height="22" rx="10" ry="10" width="52" x="170" y="620"/>
<text x="196" y="636">
HIDE</text>
</g>
<a class="link" xlink:href="#ExpressionHard">
<g class="symbol">
<rect height="22" width="132" x="232" y="620"/>
<text x="298" y="636">
ExpressionHard</text>
</g>
</a>
<g class="character">
<rect height="22" rx="10" ry="10" width="52" x="374" y="620"/>
<text x="400" y="636">
HIDE</text>
</g>
<g class="optional">
<path d=" M 436 631 h 24 m -24 0 a 12 12 0 0 0 12 -12 v 0 a 12 12 0 0 1 12 -12 h 92 m -43 0 l -5 -5 m 0 10 l 5 -5 m 43 0 a 12 12 0 0 1 12 12 v 0 a 12 12 0 0 0 12 12 h -24"/>
<a class="link" xlink:href="#BranchTag">
<g class="symbol">
<rect height="22" width="92" x="460" y="620"/>
<text x="506" y="636">
BranchTag</text>
</g>
</a>
</g>
<path d=" M 160 631 h 10"/>
<path d=" M 222 631 h 10"/>
<path d=" M 364 631 h 10"/>
<path d=" M 426 631 h 10"/>
</g>
<path d=" M 586 631 h 5 a 5 5 0 0 1 5 -5 a 5 5 0 0 1 5 5 a 5 5 0 0 1 -5 5 a 5 5 0 0 1 -5 -5"/>
<path d=" M 25 631 h 10"/>
<path d=" M 122 631 h 10"/>
<path d=" M 576 631 h 10"/>
</g>
<g class="sequence">
<path d=" M 10 678 a 5 5 0 0 1 5 -5 a 5 5 0 0 1 5 5 a 5 5 0 0 1 -5 5 a 5 5 0 0 1 -5 -5 m 10 0 h 5"/>
<text class="comment" id="BranchTag" x="71" y="683">
BranchTag</text>
<g class="sequence">
<g class="string">
<rect height="22" rx="10" ry="10" width="28" x="118" y="667"/>
<text x="132" y="683">
#</text>
</g>
<a class="link" xlink:href="#Identifier">
<g class="symbol">
<rect height="22" width="100" x="156" y="667"/>
<text x="206" y="683">
Identifier</text>
</g>
</a>
<g class="optional">
<path d=" M 266 678 h 24 m -24 0 a 12 12 0 0 0 12 -12 v 0 a 12 12 0 0 1 12 -12 h 164 m -79 0 l -5 -5 m 0 10 l 5 -5 m 79 0 a 12 12 0 0 1 12 12 v 0 a 12 12 0 0 0 12 12 h -24"/>
<a class="link" xlink:href="#RightAssociativity">
<g class="symbol">
<rect height="22" width="164" x="290" y="667"/>
<text x="372" y="683">
RightAssociativity</text>
</g>
</a>
</g>
<path d=" M 146 678 h 10"/>
<path d=" M 256 678 h 10"/>
</g>
<path d=" M 488 678 h 5 a 5 5 0 0 1 5 -5 a 5 5 0 0 1 5 5 a 5 5 0 0 1 -5 5 a 5 5 0 0 1 -5 -5"/>
<path d=" M 25 678 h 10"/>
<path d=" M 108 678 h 10"/>
<path d=" M 478 678 h 10"/>
</g>
<g class="sequence">
<path d=" M 10 712 a 5 5 0 0 1 5 -5 a 5 5 0 0 1 5 5 a 5 5 0 0 1 -5 5 a 5 5 0 0 1 -5 -5 m 10 0 h 5"/>
<text class="comment" id="RightAssociativity" x="103" y="717">
RightAssociativity</text>
<g class="string">
<rect height="22" rx="10" ry="10" width="28" x="181" y="701"/>
<text x="195" y="717">
&gt;</text>
</g>
<path d=" M 219 712 h 5 a 5 5 0 0 1 5 -5 a 5 5 0 0 1 5 5 a 5 5 0 0 1 -5 5 a 5 5 0 0 1 -5 -5"/>
<path d=" M 25 712 h 10"/>
<path d=" M 171 712 h 10"/>
<path d=" M 209 712 h 10"/>
</g>
<g class="sequence">
<path d=" M 10 759 a 5 5 0 0 1 5 -5 a 5 5 0 0 1 5 5 a 5 5 0 0 1 -5 5 a 5 5 0 0 1 -5 -5 m 10 0 h 5"/>
<text class="comment" id="GroupStatement" x="89" y="764">
GroupStatement</text>
<g class="sequence">
<g class="repeat">
<path d=" M 153 759 h 12 m 186 0 h 12 m -12 0 a 12 12 0 0 1 12 12 v 7 a 12 12 0 0 1 -12 12 m -52 0 h -134 m 70 0 l 5 -5 m 0 10 l -5 -5 m -70 0 a 12 12 0 0 1 -12 -12 v -7 a 12 12 0 0 1 12 -12"/>
<text class="comment" x="325" y="795">
[0, ∞]</text>
<g class="sequence">
<g class="character">
<rect height="22" rx="10" ry="10" width="52" x="165" y="748"/>
<text x="191" y="764">
HIDE</text>
</g>
<a class="link" xlink:href="#DecoratorCall">
<g class="symbol">
<rect height="22" width="124" x="227" y="748"/>
<text x="289" y="764">
DecoratorCall</text>
</g>
</a>
<path d=" M 217 759 h 10"/>
</g>
</g>
<g class="character">
<rect height="22" rx="10" ry="10" width="52" x="373" y="748"/>
<text x="399" y="764">
HIDE</text>
</g>
<g class="repeat">
<path d=" M 435 759 h 12 m 178 0 h 12 m -12 0 a 12 12 0 0 1 12 12 v 7 a 12 12 0 0 1 -12 12 m -52 0 h -126 m 66 0 l 5 -5 m 0 10 l -5 -5 m -66 0 a 12 12 0 0 1 -12 -12 v -7 a 12 12 0 0 1 12 -12"/>
<text class="comment" x="599" y="795">
[0, ∞]</text>
<g class="sequence">
<g class="character">
<rect height="22" rx="10" ry="10" width="52" x="447" y="748"/>
<text x="473" y="764">
HIDE</text>
</g>
<a class="link" xlink:href="#ModifierCall">
<g class="symbol">
<rect height="22" width="116" x="509" y="748"/>
<text x="567" y="764">
ModifierCall</text>
</g>
</a>
<path d=" M 499 759 h 10"/>
</g>
</g>
<g class="character">
<rect height="22" rx="10" ry="10" width="52" x="647" y="748"/>
<text x="673" y="764">
HIDE</text>
</g>
<a class="link" xlink:href="#KW_GROUP">
<g class="symbol">
<rect height="22" width="84" x="709" y="748"/>
<text x="751" y="764">
KW_GROUP</text>
</g>
</a>
<g class="character">
<rect height="22" rx="10" ry="10" width="52" x="803" y="748"/>
<text x="829" y="764">
HIDE</text>
</g>
<g class="optional">
<path d=" M 865 759 h 24 m -24 0 a 12 12 0 0 0 12 -12 v 0 a 12 12 0 0 1 12 -12 h 100 m -47 0 l -5 -5 m 0 10 l 5 -5 m 47 0 a 12 12 0 0 1 12 12 v 0 a 12 12 0 0 0 12 12 h -24"/>
<a class="link" xlink:href="#Identifier">
<g class="symbol">
<rect height="22" width="100" x="889" y="748"/>
<text x="939" y="764">
Identifier</text>
</g>
</a>
</g>
<g class="character">
<rect height="22" rx="10" ry="10" width="52" x="1023" y="748"/>
<text x="1049" y="764">
HIDE</text>
</g>
<a class="link" xlink:href="#GroupBlock">
<g class="symbol">
<rect height="22" width="100" x="1085" y="748"/>
<text x="1135" y="764">
GroupBlock</text>
</g>
</a>
<path d=" M 363 759 h 10"/>
<path d=" M 425 759 h 10"/>
<path d=" M 637 759 h 10"/>
<path d=" M 699 759 h 10"/>
<path d=" M 793 759 h 10"/>
<path d=" M 855 759 h 10"/>
<path d=" M 1013 759 h 10"/>
<path d=" M 1075 759 h 10"/>
</g>
<path d=" M 1195 759 h 5 a 5 5 0 0 1 5 -5 a 5 5 0 0 1 5 5 a 5 5 0 0 1 -5 5 a 5 5 0 0 1 -5 -5"/>
<path d=" M 25 759 h 10"/>
<path d=" M 143 759 h 10"/>
<path d=" M 1185 759 h 10"/>
</g>
<g class="sequence">
<path d=" M 10 823 a 5 5 0 0 1 5 -5 a 5 5 0 0 1 5 5 a 5 5 0 0 1 -5 5 a 5 5 0 0 1 -5 -5 m 10 0 h 5"/>
<text class="comment" id="GroupBlock" x="75" y="828">
GroupBlock</text>
<g class="sequence">
<g class="string">
<rect height="22" rx="10" ry="10" width="28" x="125" y="812"/>
<text x="139" y="828">
{</text>
</g>
<g class="character">
<rect height="22" rx="10" ry="10" width="52" x="163" y="812"/>
<text x="189" y="828">
HIDE</text>
</g>
<g class="repeat">
<path d=" M 225 823 h 12 m 154 0 h 12 m -12 0 a 12 12 0 0 1 12 12 v 7 a 12 12 0 0 1 -12 12 m -52 0 h -102 m 54 0 l 5 -5 m 0 10 l -5 -5 m -54 0 a 12 12 0 0 1 -12 -12 v -7 a 12 12 0 0 1 12 -12"/>
<text class="comment" x="365" y="859">
[0, ∞]</text>
<g class="sequence">
<g class="character">
<rect height="22" rx="10" ry="10" width="52" x="237" y="812"/>
<text x="263" y="828">
HIDE</text>
</g>
<a class="link" xlink:href="#GroupPair">
<g class="symbol">
<rect height="22" width="92" x="299" y="812"/>
<text x="345" y="828">
GroupPair</text>
</g>
</a>
<path d=" M 289 823 h 10"/>
</g>
</g>
<g class="character">
<rect height="22" rx="10" ry="10" width="52" x="413" y="812"/>
<text x="439" y="828">
HIDE</text>
</g>
<g class="string">
<rect height="22" rx="10" ry="10" width="28" x="475" y="812"/>
<text x="489" y="828">
}</text>
</g>
<path d=" M 153 823 h 10"/>
<path d=" M 215 823 h 10"/>
<path d=" M 403 823 h 10"/>
<path d=" M 465 823 h 10"/>
</g>
<path d=" M 513 823 h 5 a 5 5 0 0 1 5 -5 a 5 5 0 0 1 5 5 a 5 5 0 0 1 -5 5 a 5 5 0 0 1 -5 -5"/>
<path d=" M 25 823 h 10"/>
<path d=" M 115 823 h 10"/>
<path d=" M 503 823 h 10"/>
</g>
<g class="sequence">
<path d=" M 10 887 a 5 5 0 0 1 5 -5 a 5 5 0 0 1 5 5 a 5 5 0 0 1 -5 5 a 5 5 0 0 1 -5 -5 m 10 0 h 5"/>
<text class="comment" id="GroupPair" x="71" y="892">
GroupPair</text>
<g class="sequence">
<a class="link" xlink:href="#Identifier">
<g class="symbol">
<rect height="22" width="100" x="118" y="876"/>
<text x="168" y="892">
Identifier</text>
</g>
</a>
<g class="character">
<rect height="22" rx="10" ry="10" width="52" x="228" y="876"/>
<text x="254" y="892">
HIDE</text>
</g>
<g class="string">
<rect height="22" rx="10" ry="10" width="28" x="290" y="876"/>
<text x="304" y="892">
:</text>
</g>
<g class="character">
<rect height="22" rx="10" ry="10" width="52" x="328" y="876"/>
<text x="354" y="892">
HIDE</text>
</g>
<a class="link" xlink:href="#Atomic">
<g class="symbol">
<rect height="22" width="68" x="390" y="876"/>
<text x="424" y="892">
Atomic</text>
</g>
</a>
<path d=" M 218 887 h 10"/>
<path d=" M 280 887 h 10"/>
<path d=" M 318 887 h 10"/>
<path d=" M 380 887 h 10"/>
</g>
<path d=" M 468 887 h 5 a 5 5 0 0 1 5 -5 a 5 5 0 0 1 5 5 a 5 5 0 0 1 -5 5 a 5 5 0 0 1 -5 -5"/>
<path d=" M 25 887 h 10"/>
<path d=" M 108 887 h 10"/>
<path d=" M 458 887 h 10"/>
</g>
<g class="sequence">
<path d=" M 10 921 a 5 5 0 0 1 5 -5 a 5 5 0 0 1 5 5 a 5 5 0 0 1 -5 5 a 5 5 0 0 1 -5 -5 m 10 0 h 5"/>
<text class="comment" id="ExternalStatement" x="99" y="926">
ExternalStatement</text>
<g class="sequence">
<a class="link" xlink:href="#KW_EXTERNAL">
<g class="symbol">
<rect height="22" width="108" x="174" y="910"/>
<text x="228" y="926">
KW_EXTERNAL</text>
</g>
</a>
<g class="character">
<rect height="22" rx="10" ry="10" width="52" x="292" y="910"/>
<text x="318" y="926">
HIDE</text>
</g>
<a class="link" xlink:href="#Identifier">
<g class="symbol">
<rect height="22" width="100" x="354" y="910"/>
<text x="404" y="926">
Identifier</text>
</g>
</a>
<g class="character">
<rect height="22" rx="10" ry="10" width="52" x="464" y="910"/>
<text x="490" y="926">
HIDE</text>
</g>
<a class="link" xlink:href="#LinkerBlock">
<g class="symbol">
<rect height="22" width="108" x="526" y="910"/>
<text x="580" y="926">
LinkerBlock</text>
</g>
</a>
<path d=" M 282 921 h 10"/>
<path d=" M 344 921 h 10"/>
<path d=" M 454 921 h 10"/>
<path d=" M 516 921 h 10"/>
</g>
<path d=" M 644 921 h 5 a 5 5 0 0 1 5 -5 a 5 5 0 0 1 5 5 a 5 5 0 0 1 -5 5 a 5 5 0 0 1 -5 -5"/>
<path d=" M 25 921 h 10"/>
<path d=" M 164 921 h 10"/>
<path d=" M 634 921 h 10"/>
</g>
<g class="sequence">
<path d=" M 10 955 a 5 5 0 0 1 5 -5 a 5 5 0 0 1 5 5 a 5 5 0 0 1 -5 5 a 5 5 0 0 1 -5 -5 m 10 0 h 5"/>
<text class="comment" id="LinkerBlock" x="78" y="960">
LinkerBlock</text>
<g class="sequence">
<g class="string">
<rect height="22" rx="10" ry="10" width="28" x="132" y="944"/>
<text x="146" y="960">
{</text>
</g>
<g class="character">
<rect height="22" rx="10" ry="10" width="52" x="170" y="944"/>
<text x="196" y="960">
HIDE</text>
</g>
<g class="repeat">
<path d=" M 232 955 h 12 m 162 0 h 12 m -12 0 a 12 12 0 0 1 12 12 v 7 a 12 12 0 0 1 -12 12 m -52 0 h -110 m 58 0 l 5 -5 m 0 10 l -5 -5 m -58 0 a 12 12 0 0 1 -12 -12 v -7 a 12 12 0 0 1 12 -12"/>
<text class="comment" x="380" y="991">
[0, ∞]</text>
<g class="sequence">
<g class="character">
<rect height="22" rx="10" ry="10" width="52" x="244" y="944"/>
<text x="270" y="960">
HIDE</text>
</g>
<a class="link" xlink:href="#LinkerPair">
<g class="symbol">
<rect height="22" width="100" x="306" y="944"/>
<text x="356" y="960">
LinkerPair</text>
</g>
</a>
<path d=" M 296 955 h 10"/>
</g>
</g>
<g class="character">
<rect height="22" rx="10" ry="10" width="52" x="428" y="944"/>
<text x="454" y="960">
HIDE</text>
</g>
<g class="string">
<rect height="22" rx="10" ry="10" width="28" x="490" y="944"/>
<text x="504" y="960">
}</text>
</g>
<path d=" M 160 955 h 10"/>
<path d=" M 222 955 h 10"/>
<path d=" M 418 955 h 10"/>
<path d=" M 480 955 h 10"/>
</g>
<path d=" M 528 955 h 5 a 5 5 0 0 1 5 -5 a 5 5 0 0 1 5 5 a 5 5 0 0 1 -5 5 a 5 5 0 0 1 -5 -5"/>
<path d=" M 25 955 h 10"/>
<path d=" M 122 955 h 10"/>
<path d=" M 518 955 h 10"/>
</g>
<g class="sequence">
<path d=" M 10 1019 a 5 5 0 0 1 5 -5 a 5 5 0 0 1 5 5 a 5 5 0 0 1 -5 5 a 5 5 0 0 1 -5 -5 m 10 0 h 5"/>
<text class="comment" id="LinkerPair" x="75" y="1024">
LinkerPair</text>
<g class="sequence">
<a class="link" xlink:href="#Identifier">
<g class="symbol">
<rect height="22" width="100" x="125" y="1008"/>
<text x="175" y="1024">
Identifier</text>
</g>
</a>
<g class="character">
<rect height="22" rx="10" ry="10" width="52" x="235" y="1008"/>
<text x="261" y="1024">
HIDE</text>
</g>
<g class="string">
<rect height="22" rx="10" ry="10" width="28" x="297" y="1008"/>
<text x="311" y="1024">
:</text>
</g>
<g class="character">
<rect height="22" rx="10" ry="10" width="52" x="335" y="1008"/>
<text x="361" y="1024">
HIDE</text>
</g>
<a class="link" xlink:href="#NamepathFree">
<g class="symbol">
<rect height="22" width="116" x="397" y="1008"/>
<text x="455" y="1024">
NamepathFree</text>
</g>
</a>
<path d=" M 225 1019 h 10"/>
<path d=" M 287 1019 h 10"/>
<path d=" M 325 1019 h 10"/>
<path d=" M 387 1019 h 10"/>
</g>
<path d=" M 523 1019 h 5 a 5 5 0 0 1 5 -5 a 5 5 0 0 1 5 5 a 5 5 0 0 1 -5 5 a 5 5 0 0 1 -5 -5"/>
<path d=" M 25 1019 h 10"/>
<path d=" M 115 1019 h 10"/>
<path d=" M 513 1019 h 10"/>
</g>
<g class="sequence">
<path d=" M 10 1053 a 5 5 0 0 1 5 -5 a 5 5 0 0 1 5 5 a 5 5 0 0 1 -5 5 a 5 5 0 0 1 -5 -5 m 10 0 h 5"/>
<text class="comment" id="DecoratorCall" x="85" y="1058">
DecoratorCall</text>
<g class="sequence">
<a class="link" xlink:href="#DecoratorName">
<g class="symbol">
<rect height="22" width="124" x="146" y="1042"/>
<text x="208" y="1058">
DecoratorName</text>
</g>
</a>
<g class="character">
<rect height="22" rx="10" ry="10" width="52" x="280" y="1042"/>
<text x="306" y="1058">
HIDE</text>
</g>
<a class="link" xlink:href="#CallBody">
<g class="symbol">
<rect height="22" width="84" x="342" y="1042"/>
<text x="384" y="1058">
CallBody</text>
</g>
</a>
<path d=" M 270 1053 h 10"/>
<path d=" M 332 1053 h 10"/>
</g>
<path d=" M 436 1053 h 5 a 5 5 0 0 1 5 -5 a 5 5 0 0 1 5 5 a 5 5 0 0 1 -5 5 a 5 5 0 0 1 -5 -5"/>
<path d=" M 25 1053 h 10"/>
<path d=" M 136 1053 h 10"/>
<path d=" M 426 1053 h 10"/>
</g>
<g class="sequence">
<path d=" M 10 1087 a 5 5 0 0 1 5 -5 a 5 5 0 0 1 5 5 a 5 5 0 0 1 -5 5 a 5 5 0 0 1 -5 -5 m 10 0 h 5"/>
<text class="comment" id="DecoratorName" x="85" y="1092">
DecoratorName</text>
<g class="sequence">
<g class="string">
<rect height="22" rx="10" ry="10" width="52" x="146" y="1076"/>
<text x="172" y="1092">
[@#]</text>
</g>
<g class="character">
<rect height="22" rx="10" ry="10" width="52" x="208" y="1076"/>
<text x="234" y="1092">
HIDE</text>
</g>
<a class="link" xlink:href="#Identifier">
<g class="symbol">
<rect height="22" width="100" x="270" y="1076"/>
<text x="320" y="1092">
Identifier</text>
</g>
</a>
<path d=" M 198 1087 h 10"/>
<path d=" M 260 1087 h 10"/>
</g>
<path d=" M 380 1087 h 5 a 5 5 0 0 1 5 -5 a 5 5 0 0 1 5 5 a 5 5 0 0 1 -5 5 a 5 5 0 0 1 -5 -5"/>
<path d=" M 25 1087 h 10"/>
<path d=" M 136 1087 h 10"/>
<path d=" M 370 1087 h 10"/>
</g>
<g class="sequence">
<path d=" M 10 1121 a 5 5 0 0 1 5 -5 a 5 5 0 0 1 5 5 a 5 5 0 0 1 -5 5 a 5 5 0 0 1 -5 -5 m 10 0 h 5"/>
<text class="comment" id="FunctionCall" x="82" y="1126">
FunctionCall</text>
<g class="sequence">
<a class="link" xlink:href="#FunctionName">
<g class="symbol">
<rect height="22" width="116" x="139" y="1110"/>
<text x="197" y="1126">
FunctionName</text>
</g>
</a>
<g class="character">
<rect height="22" rx="10" ry="10" width="52" x="265" y="1110"/>
<text x="291" y="1126">
HIDE</text>
</g>
<a class="link" xlink:href="#CallBody">
<g class="symbol">
<rect height="22" width="84" x="327" y="1110"/>
<text x="369" y="1126">
CallBody</text>
</g>
</a>
<path d=" M 255 1121 h 10"/>
<path d=" M 317 1121 h 10"/>
</g>
<path d=" M 421 1121 h 5 a 5 5 0 0 1 5 -5 a 5 5 0 0 1 5 5 a 5 5 0 0 1 -5 5 a 5 5 0 0 1 -5 -5"/>
<path d=" M 25 1121 h 10"/>
<path d=" M 129 1121 h 10"/>
<path d=" M 411 1121 h 10"/>
</g>
<g class="sequence">
<path d=" M 10 1155 a 5 5 0 0 1 5 -5 a 5 5 0 0 1 5 5 a 5 5 0 0 1 -5 5 a 5 5 0 0 1 -5 -5 m 10 0 h 5"/>
<text class="comment" id="FunctionName" x="82" y="1160">
FunctionName</text>
<g class="sequence">
<g class="string">
<rect height="22" rx="10" ry="10" width="28" x="139" y="1144"/>
<text x="153" y="1160">
@</text>
</g>
<g class="character">
<rect height="22" rx="10" ry="10" width="52" x="177" y="1144"/>
<text x="203" y="1160">
HIDE</text>
</g>
<a class="link" xlink:href="#Identifier">
<g class="symbol">
<rect height="22" width="100" x="239" y="1144"/>
<text x="289" y="1160">
Identifier</text>
</g>
</a>
<path d=" M 167 1155 h 10"/>
<path d=" M 229 1155 h 10"/>
</g>
<path d=" M 349 1155 h 5 a 5 5 0 0 1 5 -5 a 5 5 0 0 1 5 5 a 5 5 0 0 1 -5 5 a 5 5 0 0 1 -5 -5"/>
<path d=" M 25 1155 h 10"/>
<path d=" M 129 1155 h 10"/>
<path d=" M 339 1155 h 10"/>
</g>
<g class="sequence">
<path d=" M 10 1214 a 5 5 0 0 1 5 -5 a 5 5 0 0 1 5 5 a 5 5 0 0 1 -5 5 a 5 5 0 0 1 -5 -5 m 10 0 h 5"/>
<text class="comment" id="CallBody" x="68" y="1219">
CallBody</text>
<g class="sequence">
<g class="string">
<rect height="22" rx="10" ry="10" width="28" x="111" y="1203"/>
<text x="125" y="1219">
(</text>
</g>
<g class="character">
<rect height="22" rx="10" ry="10" width="52" x="149" y="1203"/>
<text x="175" y="1219">
HIDE</text>
</g>
<g class="optional">
<path d=" M 211 1214 h 24 m -24 0 a 12 12 0 0 0 12 -12 v -12 a 12 12 0 0 1 12 -12 h 606 m -300 0 l -5 -5 m 0 10 l 5 -5 m 300 0 a 12 12 0 0 1 12 12 v 12 a 12 12 0 0 0 12 12 h -24"/>
<g class="sequence">
<a class="link" xlink:href="#Expression">
<g class="symbol">
<rect height="22" width="100" x="235" y="1203"/>
<text x="285" y="1219">
Expression</text>
</g>
</a>
<g class="character">
<rect height="22" rx="10" ry="10" width="52" x="345" y="1203"/>
<text x="371" y="1219">
HIDE</text>
</g>
<g class="repeat">
<path d=" M 407 1214 h 12 m 262 0 h 12 m -12 0 a 12 12 0 0 1 12 12 v 7 a 12 12 0 0 1 -12 12 m -52 0 h -210 m 108 0 l 5 -5 m 0 10 l -5 -5 m -108 0 a 12 12 0 0 1 -12 -12 v -7 a 12 12 0 0 1 12 -12"/>
<text class="comment" x="655" y="1250">
[0, ∞]</text>
<g class="sequence">
<g class="character">
<rect height="22" rx="10" ry="10" width="52" x="419" y="1203"/>
<text x="445" y="1219">
HIDE</text>
</g>
<g class="sequence">
<g class="string">
<rect height="22" rx="10" ry="10" width="28" x="481" y="1203"/>
<text x="495" y="1219">
,</text>
</g>
<g class="character">
<rect height="22" rx="10" ry="10" width="52" x="519" y="1203"/>
<text x="545" y="1219">
HIDE</text>
</g>
<a class="link" xlink:href="#Expression">
<g class="symbol">
<rect height="22" width="100" x="581" y="1203"/>
<text x="631" y="1219">
Expression</text>
</g>
</a>
<path d=" M 509 1214 h 10"/>
<path d=" M 571 1214 h 10"/>
</g>
<path d=" M 471 1214 h 10"/>
</g>
</g>
<g class="character">
<rect height="22" rx="10" ry="10" width="52" x="703" y="1203"/>
<text x="729" y="1219">
HIDE</text>
</g>
<g class="optional">
<path d=" M 765 1214 h 24 m -24 0 a 12 12 0 0 0 12 -12 v 0 a 12 12 0 0 1 12 -12 h 28 a 12 12 0 0 1 12 12 v 0 a 12 12 0 0 0 12 12 h -24"/>
<g class="string">
<rect height="22" rx="10" ry="10" width="28" x="789" y="1203"/>
<text x="803" y="1219">
,</text>
</g>
</g>
<path d=" M 335 1214 h 10"/>
<path d=" M 397 1214 h 10"/>
<path d=" M 693 1214 h 10"/>
<path d=" M 755 1214 h 10"/>
</g>
</g>
<g class="character">
<rect height="22" rx="10" ry="10" width="52" x="875" y="1203"/>
<text x="901" y="1219">
HIDE</text>
</g>
<g class="string">
<rect height="22" rx="10" ry="10" width="28" x="937" y="1203"/>
<text x="951" y="1219">
)</text>
</g>
<path d=" M 139 1214 h 10"/>
<path d=" M 201 1214 h 10"/>
<path d=" M 865 1214 h 10"/>
<path d=" M 927 1214 h 10"/>
</g>
<path d=" M 975 1214 h 5 a 5 5 0 0 1 5 -5 a 5 5 0 0 1 5 5 a 5 5 0 0 1 -5 5 a 5 5 0 0 1 -5 -5"/>
<path d=" M 25 1214 h 10"/>
<path d=" M 101 1214 h 10"/>
<path d=" M 965 1214 h 10"/>
</g>
<g class="sequence">
<path d=" M 10 1278 a 5 5 0 0 1 5 -5 a 5 5 0 0 1 5 5 a 5 5 0 0 1 -5 5 a 5 5 0 0 1 -5 -5 m 10 0 h 5"/>
<text class="comment" id="Expression" x="75" y="1283">
Expression</text>
<g class="sequence">
<a class="link" xlink:href="#ExpressionHard">
<g class="symbol">
<rect height="22" width="132" x="125" y="1267"/>
<text x="191" y="1283">
ExpressionHard</text>
</g>
</a>
<g class="character">
<rect height="22" rx="10" ry="10" width="52" x="267" y="1267"/>
<text x="293" y="1283">
HIDE</text>
</g>
<g class="repeat">
<path d=" M 329 1278 h 12 m 294 0 h 12 m -12 0 a 12 12 0 0 1 12 12 v 7 a 12 12 0 0 1 -12 12 m -52 0 h -242 m 124 0 l 5 -5 m 0 10 l -5 -5 m -124 0 a 12 12 0 0 1 -12 -12 v -7 a 12 12 0 0 1 12 -12"/>
<text class="comment" x="609" y="1314">
[0, ∞]</text>
<g class="sequence">
<g class="character">
<rect height="22" rx="10" ry="10" width="52" x="341" y="1267"/>
<text x="367" y="1283">
HIDE</text>
</g>
<g class="sequence">
<g class="string">
<rect height="22" rx="10" ry="10" width="28" x="403" y="1267"/>
<text x="417" y="1283">
|</text>
</g>
<g class="character">
<rect height="22" rx="10" ry="10" width="52" x="441" y="1267"/>
<text x="467" y="1283">
HIDE</text>
</g>
<a class="link" xlink:href="#ExpressionHard">
<g class="symbol">
<rect height="22" width="132" x="503" y="1267"/>
<text x="569" y="1283">
ExpressionHard</text>
</g>
</a>
<path d=" M 431 1278 h 10"/>
<path d=" M 493 1278 h 10"/>
</g>
<path d=" M 393 1278 h 10"/>
</g>
</g>
<path d=" M 257 1278 h 10"/>
<path d=" M 319 1278 h 10"/>
</g>
<path d=" M 657 1278 h 5 a 5 5 0 0 1 5 -5 a 5 5 0 0 1 5 5 a 5 5 0 0 1 -5 5 a 5 5 0 0 1 -5 -5"/>
<path d=" M 25 1278 h 10"/>
<path d=" M 115 1278 h 10"/>
<path d=" M 647 1278 h 10"/>
</g>
<g class="sequence">
<path d=" M 10 1342 a 5 5 0 0 1 5 -5 a 5 5 0 0 1 5 5 a 5 5 0 0 1 -5 5 a 5 5 0 0 1 -5 -5 m 10 0 h 5"/>
<text class="comment" id="ExpressionHard" x="89" y="1347">
ExpressionHard</text>
<g class="sequence">
<a class="link" xlink:href="#ExpressionSoft">
<g class="symbol">
<rect height="22" width="132" x="153" y="1331"/>
<text x="219" y="1347">
ExpressionSoft</text>
</g>
</a>
<g class="character">
<rect height="22" rx="10" ry="10" width="52" x="295" y="1331"/>
<text x="321" y="1347">
HIDE</text>
</g>
<g class="repeat">
<path d=" M 357 1342 h 12 m 294 0 h 12 m -12 0 a 12 12 0 0 1 12 12 v 7 a 12 12 0 0 1 -12 12 m -52 0 h -242 m 124 0 l 5 -5 m 0 10 l -5 -5 m -124 0 a 12 12 0 0 1 -12 -12 v -7 a 12 12 0 0 1 12 -12"/>
<text class="comment" x="637" y="1378">
[0, ∞]</text>
<g class="sequence">
<g class="character">
<rect height="22" rx="10" ry="10" width="52" x="369" y="1331"/>
<text x="395" y="1347">
HIDE</text>
</g>
<g class="sequence">
<g class="string">
<rect height="22" rx="10" ry="10" width="28" x="431" y="1331"/>
<text x="445" y="1347">
~</text>
</g>
<g class="character">
<rect height="22" rx="10" ry="10" width="52" x="469" y="1331"/>
<text x="495" y="1347">
HIDE</text>
</g>
<a class="link" xlink:href="#ExpressionSoft">
<g class="symbol">
<rect height="22" width="132" x="531" y="1331"/>
<text x="597" y="1347">
ExpressionSoft</text>
</g>
</a>
<path d=" M 459 1342 h 10"/>
<path d=" M 521 1342 h 10"/>
</g>
<path d=" M 421 1342 h 10"/>
</g>
</g>
<path d=" M 285 1342 h 10"/>
<path d=" M 347 1342 h 10"/>
</g>
<path d=" M 685 1342 h 5 a 5 5 0 0 1 5 -5 a 5 5 0 0 1 5 5 a 5 5 0 0 1 -5 5 a 5 5 0 0 1 -5 -5"/>
<path d=" M 25 1342 h 10"/>
<path d=" M 143 1342 h 10"/>
<path d=" M 675 1342 h 10"/>
</g>
<g class="sequence">
<path d=" M 10 1406 a 5 5 0 0 1 5 -5 a 5 5 0 0 1 5 5 a 5 5 0 0 1 -5 5 a 5 5 0 0 1 -5 -5 m 10 0 h 5"/>
<text class="comment" id="ExpressionSoft" x="89" y="1411">
ExpressionSoft</text>
<g class="sequence">
<a class="link" xlink:href="#ExpressionTag">
<g class="symbol">
<rect height="22" width="124" x="153" y="1395"/>
<text x="215" y="1411">
ExpressionTag</text>
</g>
</a>
<g class="character">
<rect height="22" rx="10" ry="10" width="52" x="287" y="1395"/>
<text x="313" y="1411">
HIDE</text>
</g>
<g class="repeat">
<path d=" M 349 1406 h 12 m 186 0 h 12 m -12 0 a 12 12 0 0 1 12 12 v 7 a 12 12 0 0 1 -12 12 m -52 0 h -134 m 70 0 l 5 -5 m 0 10 l -5 -5 m -70 0 a 12 12 0 0 1 -12 -12 v -7 a 12 12 0 0 1 12 -12"/>
<text class="comment" x="521" y="1442">
[0, ∞]</text>
<g class="sequence">
<g class="character">
<rect height="22" rx="10" ry="10" width="52" x="361" y="1395"/>
<text x="387" y="1411">
HIDE</text>
</g>
<a class="link" xlink:href="#ExpressionTag">
<g class="symbol">
<rect height="22" width="124" x="423" y="1395"/>
<text x="485" y="1411">
ExpressionTag</text>
</g>
</a>
<path d=" M 413 1406 h 10"/>
</g>
</g>
<path d=" M 277 1406 h 10"/>
<path d=" M 339 1406 h 10"/>
</g>
<path d=" M 569 1406 h 5 a 5 5 0 0 1 5 -5 a 5 5 0 0 1 5 5 a 5 5 0 0 1 -5 5 a 5 5 0 0 1 -5 -5"/>
<path d=" M 25 1406 h 10"/>
<path d=" M 143 1406 h 10"/>
<path d=" M 559 1406 h 10"/>
</g>
<g class="sequence">
<path d=" M 10 1483 a 5 5 0 0 1 5 -5 a 5 5 0 0 1 5 5 a 5 5 0 0 1 -5 5 a 5 5 0 0 1 -5 -5 m 10 0 h 5"/>
<text class="comment" id="ExpressionTag" x="85" y="1488">
ExpressionTag</text>
<g class="sequence">
<g class="optional">
<path d=" M 146 1483 h 24 m -24 0 a 12 12 0 0 0 12 -12 v 0 a 12 12 0 0 1 12 -12 h 200 m -97 0 l -5 -5 m 0 10 l 5 -5 m 97 0 a 12 12 0 0 1 12 12 v 0 a 12 12 0 0 0 12 12 h -24"/>
<g class="sequence">
<a class="link" xlink:href="#Identifier">
<g class="symbol">
<rect height="22" width="100" x="170" y="1472"/>
<text x="220" y="1488">
Identifier</text>
</g>
</a>
<g class="character">
<rect height="22" rx="10" ry="10" width="52" x="280" y="1472"/>
<text x="306" y="1488">
HIDE</text>
</g>
<g class="string">
<rect height="22" rx="10" ry="10" width="28" x="342" y="1472"/>
<text x="356" y="1488">
:</text>
</g>
<path d=" M 270 1483 h 10"/>
<path d=" M 332 1483 h 10"/>
</g>
</g>
<g class="character">
<rect height="22" rx="10" ry="10" width="52" x="404" y="1472"/>
<text x="430" y="1488">
HIDE</text>
</g>
<a class="link" xlink:href="#Term">
<g class="symbol">
<rect height="22" width="52" x="466" y="1472"/>
<text x="492" y="1488">
Term</text>
</g>
</a>
<path d=" M 394 1483 h 10"/>
<path d=" M 456 1483 h 10"/>
</g>
<path d=" M 528 1483 h 5 a 5 5 0 0 1 5 -5 a 5 5 0 0 1 5 5 a 5 5 0 0 1 -5 5 a 5 5 0 0 1 -5 -5"/>
<path d=" M 25 1483 h 10"/>
<path d=" M 136 1483 h 10"/>
<path d=" M 518 1483 h 10"/>
</g>
<g class="sequence">
<path d=" M 10 1517 a 5 5 0 0 1 5 -5 a 5 5 0 0 1 5 5 a 5 5 0 0 1 -5 5 a 5 5 0 0 1 -5 -5 m 10 0 h 5"/>
<text class="comment" id="Term" x="54" y="1522">
Term</text>
<g class="sequence">
<g class="repeat">
<path d=" M 83 1517 h 12 m 130 0 h 12 m -12 0 a 12 12 0 0 1 12 12 v 7 a 12 12 0 0 1 -12 12 m -52 0 h -78 m 42 0 l 5 -5 m 0 10 l -5 -5 m -42 0 a 12 12 0 0 1 -12 -12 v -7 a 12 12 0 0 1 12 -12"/>
<text class="comment" x="199" y="1553">
[0, ∞]</text>
<g class="sequence">
<g class="character">
<rect height="22" rx="10" ry="10" width="52" x="95" y="1506"/>
<text x="121" y="1522">
HIDE</text>
</g>
<a class="link" xlink:href="#Prefix">
<g class="symbol">
<rect height="22" width="68" x="157" y="1506"/>
<text x="191" y="1522">
Prefix</text>
</g>
</a>
<path d=" M 147 1517 h 10"/>
</g>
</g>
<g class="character">
<rect height="22" rx="10" ry="10" width="52" x="247" y="1506"/>
<text x="273" y="1522">
HIDE</text>
</g>
<a class="link" xlink:href="#Atomic">
<g class="symbol">
<rect height="22" width="68" x="309" y="1506"/>
<text x="343" y="1522">
Atomic</text>
</g>
</a>
<g class="character">
<rect height="22" rx="10" ry="10" width="52" x="387" y="1506"/>
<text x="413" y="1522">
HIDE</text>
</g>
<g class="repeat">
<path d=" M 449 1517 h 12 m 130 0 h 12 m -12 0 a 12 12 0 0 1 12 12 v 7 a 12 12 0 0 1 -12 12 m -52 0 h -78 m 42 0 l 5 -5 m 0 10 l -5 -5 m -42 0 a 12 12 0 0 1 -12 -12 v -7 a 12 12 0 0 1 12 -12"/>
<text class="comment" x="565" y="1553">
[0, ∞]</text>
<g class="sequence">
<g class="character">
<rect height="22" rx="10" ry="10" width="52" x="461" y="1506"/>
<text x="487" y="1522">
HIDE</text>
</g>
<a class="link" xlink:href="#Suffix">
<g class="symbol">
<rect height="22" width="68" x="523" y="1506"/>
<text x="557" y="1522">
Suffix</text>
</g>
</a>
<path d=" M 513 1517 h 10"/>
</g>
</g>
<path d=" M 237 1517 h 10"/>
<path d=" M 299 1517 h 10"/>
<path d=" M 377 1517 h 10"/>
<path d=" M 439 1517 h 10"/>
</g>
<path d=" M 613 1517 h 5 a 5 5 0 0 1 5 -5 a 5 5 0 0 1 5 5 a 5 5 0 0 1 -5 5 a 5 5 0 0 1 -5 -5"/>
<path d=" M 25 1517 h 10"/>
<path d=" M 73 1517 h 10"/>
<path d=" M 603 1517 h 10"/>
</g>
<g class="sequence">
<path d=" M 10 1581 a 5 5 0 0 1 5 -5 a 5 5 0 0 1 5 5 a 5 5 0 0 1 -5 5 a 5 5 0 0 1 -5 -5 m 10 0 h 5"/>
<text class="comment" id="Prefix" x="61" y="1586">
Prefix</text>
<g class="choice">
<path d=" M 97 1581 h 24 m 28 0 h 24"/>
<g class="string">
<rect height="22" rx="10" ry="10" width="28" x="121" y="1570"/>
<text x="135" y="1586">
!</text>
</g>
<path d=" M 97 1581 a 12 12 0 0 1 12 12 v 9 m 52 0 v -9 a 12 12 0 0 1 12 -12"/>
<path d=" M 109 1602 v 33 m 52 0 v -33"/>
<path d=" M 109 1602 v 0 a 12 12 0 0 0 12 12 m 28 0 h 0 a 12 12 0 0 0 12 -12 v 0"/>
<g class="string">
<rect height="22" rx="10" ry="10" width="28" x="121" y="1603"/>
<text x="135" y="1619">
&amp;</text>
</g>
<path d=" M 109 1635 v 0 a 12 12 0 0 0 12 12 m 28 0 h 0 a 12 12 0 0 0 12 -12 v 0"/>
<g class="string">
<rect height="22" rx="10" ry="10" width="28" x="121" y="1636"/>
<text x="135" y="1652">
^</text>
</g>
</g>
<path d=" M 183 1581 h 5 a 5 5 0 0 1 5 -5 a 5 5 0 0 1 5 5 a 5 5 0 0 1 -5 5 a 5 5 0 0 1 -5 -5"/>
<path d=" M 25 1581 h 10"/>
<path d=" M 87 1581 h 10"/>
<path d=" M 173 1581 h 10"/>
</g>
<g class="sequence">
<path d=" M 10 1681 a 5 5 0 0 1 5 -5 a 5 5 0 0 1 5 5 a 5 5 0 0 1 -5 5 a 5 5 0 0 1 -5 -5 m 10 0 h 5"/>
<text class="comment" id="Suffix" x="61" y="1686">
Suffix</text>
<g class="choice">
<path d=" M 97 1681 h 24 m 28 0 h 96 m -45 0 l -5 -5 m 0 10 l 5 -5 m 45 0"/>
<g class="string">
<rect height="22" rx="10" ry="10" width="28" x="121" y="1670"/>
<text x="135" y="1686">
?</text>
</g>
<path d=" M 97 1681 a 12 12 0 0 1 12 12 v 9 m 124 0 v -9 a 12 12 0 0 1 12 -12"/>
<path d=" M 109 1702 v 33 m 124 0 v -33"/>
<path d=" M 109 1735 v 33 m 124 0 v -33"/>
<path d=" M 109 1768 v 33 m 124 0 v -33"/>
<path d=" M 109 1702 v 0 a 12 12 0 0 0 12 12 m 28 0 h 72 m -33 0 l -5 -5 m 0 10 l 5 -5 m 33 0 a 12 12 0 0 0 12 -12 v 0"/>
<g class="string">
<rect height="22" rx="10" ry="10" width="28" x="121" y="1703"/>
<text x="135" y="1719">
*</text>
</g>
<path d=" M 109 1735 v 0 a 12 12 0 0 0 12 12 m 28 0 h 72 m -33 0 l -5 -5 m 0 10 l 5 -5 m 33 0 a 12 12 0 0 0 12 -12 v 0"/>
<g class="string">
<rect height="22" rx="10" ry="10" width="28" x="121" y="1736"/>
<text x="135" y="1752">
+</text>
</g>
<path d=" M 109 1768 v 0 a 12 12 0 0 0 12 12 m 100 0 h 0 a 12 12 0 0 0 12 -12 v 0"/>
<a class="link" xlink:href="#RangeExact">
<g class="symbol">
<rect height="22" width="100" x="121" y="1769"/>
<text x="171" y="1785">
RangeExact</text>
</g>
</a>
<path d=" M 109 1801 v 0 a 12 12 0 0 0 12 12 m 60 0 h 40 a 12 12 0 0 0 12 -12 v 0"/>
<a class="link" xlink:href="#Range">
<g class="symbol">
<rect height="22" width="60" x="121" y="1802"/>
<text x="151" y="1818">
Range</text>
</g>
</a>
</g>
<path d=" M 255 1681 h 5 a 5 5 0 0 1 5 -5 a 5 5 0 0 1 5 5 a 5 5 0 0 1 -5 5 a 5 5 0 0 1 -5 -5"/>
<path d=" M 25 1681 h 10"/>
<path d=" M 87 1681 h 10"/>
<path d=" M 245 1681 h 10"/>
</g>
<g class="sequence">
<path d=" M 10 1847 a 5 5 0 0 1 5 -5 a 5 5 0 0 1 5 5 a 5 5 0 0 1 -5 5 a 5 5 0 0 1 -5 -5 m 10 0 h 5"/>
<text class="comment" id="Atomic" x="61" y="1852">
Atomic</text>
<g class="choice">
<path d=" M 97 1847 h 24 m 140 0 h 24"/>
<a class="link" xlink:href="#GroupExpression">
<g class="symbol">
<rect height="22" width="140" x="121" y="1836"/>
<text x="191" y="1852">
GroupExpression</text>
</g>
</a>
<path d=" M 97 1847 a 12 12 0 0 1 12 12 v 9 m 164 0 v -9 a 12 12 0 0 1 12 -12"/>
<path d=" M 109 1868 v 33 m 164 0 v -33"/>
<path d=" M 109 1901 v 33 m 164 0 v -33"/>
<path d=" M 109 1934 v 33 m 164 0 v -33"/>
<path d=" M 109 1967 v 33 m 164 0 v -33"/>
<path d=" M 109 2000 v 33 m 164 0 v -33"/>
<path d=" M 109 2033 v 33 m 164 0 v -33"/>
<path d=" M 109 2066 v 33 m 164 0 v -33"/>
<path d=" M 109 2099 v 33 m 164 0 v -33"/>
<path d=" M 109 2132 v 33 m 164 0 v -33"/>
<path d=" M 109 1868 v 0 a 12 12 0 0 0 12 12 m 116 0 h 24 a 12 12 0 0 0 12 -12 v 0"/>
<a class="link" xlink:href="#FunctionCall">
<g class="symbol">
<rect height="22" width="116" x="121" y="1869"/>
<text x="179" y="1885">
FunctionCall</text>
</g>
</a>
<path d=" M 109 1901 v 0 a 12 12 0 0 0 12 12 m 76 0 h 64 m -29 0 l -5 -5 m 0 10 l 5 -5 m 29 0 a 12 12 0 0 0 12 -12 v 0"/>
<a class="link" xlink:href="#Boolean">
<g class="symbol">
<rect height="22" width="76" x="121" y="1902"/>
<text x="159" y="1918">
Boolean</text>
</g>
</a>
<path d=" M 109 1934 v 0 a 12 12 0 0 0 12 12 m 76 0 h 64 m -29 0 l -5 -5 m 0 10 l 5 -5 m 29 0 a 12 12 0 0 0 12 -12 v 0"/>
<a class="link" xlink:href="#Integer">
<g class="symbol">
<rect height="22" width="76" x="121" y="1935"/>
<text x="159" y="1951">
Integer</text>
</g>
</a>
<path d=" M 109 1967 v 0 a 12 12 0 0 0 12 12 m 92 0 h 48 a 12 12 0 0 0 12 -12 v 0"/>
<a class="link" xlink:href="#StringRaw">
<g class="symbol">
<rect height="22" width="92" x="121" y="1968"/>
<text x="167" y="1984">
StringRaw</text>
</g>
</a>
<path d=" M 109 2000 v 0 a 12 12 0 0 0 12 12 m 116 0 h 24 a 12 12 0 0 0 12 -12 v 0"/>
<a class="link" xlink:href="#StringNormal">
<g class="symbol">
<rect height="22" width="116" x="121" y="2001"/>
<text x="179" y="2017">
StringNormal</text>
</g>
</a>
<path d=" M 109 2033 v 0 a 12 12 0 0 0 12 12 m 84 0 h 56 m -25 0 l -5 -5 m 0 10 l 5 -5 m 25 0 a 12 12 0 0 0 12 -12 v 0"/>
<a class="link" xlink:href="#Category">
<g class="symbol">
<rect height="22" width="84" x="121" y="2034"/>
<text x="163" y="2050">
Category</text>
</g>
</a>
<path d=" M 109 2066 v 0 a 12 12 0 0 0 12 12 m 132 0 h 8 a 12 12 0 0 0 12 -12 v 0"/>
<a class="link" xlink:href="#EscapedUnicode">
<g class="symbol">
<rect height="22" width="132" x="121" y="2067"/>
<text x="187" y="2083">
EscapedUnicode</text>
</g>
</a>
<path d=" M 109 2099 v 0 a 12 12 0 0 0 12 12 m 100 0 h 40 a 12 12 0 0 0 12 -12 v 0"/>
<a class="link" xlink:href="#RegexEmbed">
<g class="symbol">
<rect height="22" width="100" x="121" y="2100"/>
<text x="171" y="2116">
RegexEmbed</text>
</g>
</a>
<path d=" M 109 2132 v 0 a 12 12 0 0 0 12 12 m 100 0 h 40 a 12 12 0 0 0 12 -12 v 0"/>
<a class="link" xlink:href="#RegexRange">
<g class="symbol">
<rect height="22" width="100" x="121" y="2133"/>
<text x="171" y="2149">
RegexRange</text>
</g>
</a>
<path d=" M 109 2165 v 0 a 12 12 0 0 0 12 12 m 100 0 h 40 a 12 12 0 0 0 12 -12 v 0"/>
<a class="link" xlink:href="#Identifier">
<g class="symbol">
<rect height="22" width="100" x="121" y="2166"/>
<text x="171" y="2182">
Identifier</text>
</g>
</a>
</g>
<path d=" M 295 1847 h 5 a 5 5 0 0 1 5 -5 a 5 5 0 0 1 5 5 a 5 5 0 0 1 -5 5 a 5 5 0 0 1 -5 -5"/>
<path d=" M 25 1847 h 10"/>
<path d=" M 87 1847 h 10"/>
<path d=" M 285 1847 h 10"/>
</g>
<g class="sequence">
<path d=" M 10 2224 a 5 5 0 0 1 5 -5 a 5 5 0 0 1 5 5 a 5 5 0 0 1 -5 5 a 5 5 0 0 1 -5 -5 m 10 0 h 5"/>
<text class="comment" id="GroupExpression" x="92" y="2229">
GroupExpression</text>
<g class="sequence">
<g class="string">
<rect height="22" rx="10" ry="10" width="28" x="160" y="2213"/>
<text x="174" y="2229">
(</text>
</g>
<g class="character">
<rect height="22" rx="10" ry="10" width="52" x="198" y="2213"/>
<text x="224" y="2229">
HIDE</text>
</g>
<g class="optional">
<path d=" M 260 2224 h 24 m -24 0 a 12 12 0 0 0 12 -12 v 0 a 12 12 0 0 1 12 -12 h 28 a 12 12 0 0 1 12 12 v 0 a 12 12 0 0 0 12 12 h -24"/>
<g class="string">
<rect height="22" rx="10" ry="10" width="28" x="284" y="2213"/>
<text x="298" y="2229">
|</text>
</g>
</g>
<g class="character">
<rect height="22" rx="10" ry="10" width="52" x="346" y="2213"/>
<text x="372" y="2229">
HIDE</text>
</g>
<a class="link" xlink:href="#Expression">
<g class="symbol">
<rect height="22" width="100" x="408" y="2213"/>
<text x="458" y="2229">
Expression</text>
</g>
</a>
<g class="character">
<rect height="22" rx="10" ry="10" width="52" x="518" y="2213"/>
<text x="544" y="2229">
HIDE</text>
</g>
<g class="string">
<rect height="22" rx="10" ry="10" width="28" x="580" y="2213"/>
<text x="594" y="2229">
)</text>
</g>
<path d=" M 188 2224 h 10"/>
<path d=" M 250 2224 h 10"/>
<path d=" M 336 2224 h 10"/>
<path d=" M 398 2224 h 10"/>
<path d=" M 508 2224 h 10"/>
<path d=" M 570 2224 h 10"/>
</g>
<path d=" M 618 2224 h 5 a 5 5 0 0 1 5 -5 a 5 5 0 0 1 5 5 a 5 5 0 0 1 -5 5 a 5 5 0 0 1 -5 -5"/>
<path d=" M 25 2224 h 10"/>
<path d=" M 150 2224 h 10"/>
<path d=" M 608 2224 h 10"/>
</g>
<g class="sequence">
<path d=" M 10 2258 a 5 5 0 0 1 5 -5 a 5 5 0 0 1 5 5 a 5 5 0 0 1 -5 5 a 5 5 0 0 1 -5 -5 m 10 0 h 5"/>
<text class="comment" id="StringRaw" x="71" y="2263">
StringRaw</text>
<g class="sequence">
<g class="string">
<rect height="22" rx="10" ry="10" width="28" x="118" y="2247"/>
<text x="132" y="2263">
&#x27;</text>
</g>
<a class="link" xlink:href="#StringRawText">
<g class="symbol">
<rect height="22" width="124" x="156" y="2247"/>
<text x="218" y="2263">
StringRawText</text>
</g>
</a>
<g class="string">
<rect height="22" rx="10" ry="10" width="28" x="290" y="2247"/>
<text x="304" y="2263">
&#x27;</text>
</g>
<path d=" M 146 2258 h 10"/>
<path d=" M 280 2258 h 10"/>
</g>
<path d=" M 328 2258 h 5 a 5 5 0 0 1 5 -5 a 5 5 0 0 1 5 5 a 5 5 0 0 1 -5 5 a 5 5 0 0 1 -5 -5"/>
<path d=" M 25 2258 h 10"/>
<path d=" M 108 2258 h 10"/>
<path d=" M 318 2258 h 10"/>
</g>
<g class="sequence">
<path d=" M 10 2292 a 5 5 0 0 1 5 -5 a 5 5 0 0 1 5 5 a 5 5 0 0 1 -5 5 a 5 5 0 0 1 -5 -5 m 10 0 h 5"/>
<text class="comment" id="StringRawText" x="85" y="2297">
StringRawText</text>
<g class="string">
<rect height="22" rx="10" ry="10" width="60" x="146" y="2281"/>
<text x="176" y="2297">
[^&#x27;]*</text>
</g>
<path d=" M 216 2292 h 5 a 5 5 0 0 1 5 -5 a 5 5 0 0 1 5 5 a 5 5 0 0 1 -5 5 a 5 5 0 0 1 -5 -5"/>
<path d=" M 25 2292 h 10"/>
<path d=" M 136 2292 h 10"/>
<path d=" M 206 2292 h 10"/>
</g>
<g class="sequence">
<path d=" M 10 2326 a 5 5 0 0 1 5 -5 a 5 5 0 0 1 5 5 a 5 5 0 0 1 -5 5 a 5 5 0 0 1 -5 -5 m 10 0 h 5"/>
<text class="comment" id="StringNormal" x="82" y="2331">
StringNormal</text>
<g class="sequence">
<g class="string">
<rect height="22" rx="10" ry="10" width="28" x="139" y="2315"/>
<text x="153" y="2331">
&quot;</text>
</g>
<g class="repeat">
<path d=" M 177 2326 h 12 m 100 0 h 12 m -12 0 a 12 12 0 0 1 12 12 v 7 a 12 12 0 0 1 -12 12 m -52 0 h -48 a 12 12 0 0 1 -12 -12 v -7 a 12 12 0 0 1 12 -12"/>
<text class="comment" x="263" y="2362">
[0, ∞]</text>
<a class="link" xlink:href="#StringItem">
<g class="symbol">
<rect height="22" width="100" x="189" y="2315"/>
<text x="239" y="2331">
StringItem</text>
</g>
</a>
</g>
<g class="string">
<rect height="22" rx="10" ry="10" width="28" x="311" y="2315"/>
<text x="325" y="2331">
&quot;</text>
</g>
<path d=" M 167 2326 h 10"/>
<path d=" M 301 2326 h 10"/>
</g>
<path d=" M 349 2326 h 5 a 5 5 0 0 1 5 -5 a 5 5 0 0 1 5 5 a 5 5 0 0 1 -5 5 a 5 5 0 0 1 -5 -5"/>
<path d=" M 25 2326 h 10"/>
<path d=" M 129 2326 h 10"/>
<path d=" M 339 2326 h 10"/>
</g>
<g class="sequence">
<path d=" M 10 2390 a 5 5 0 0 1 5 -5 a 5 5 0 0 1 5 5 a 5 5 0 0 1 -5 5 a 5 5 0 0 1 -5 -5 m 10 0 h 5"/>
<text class="comment" id="StringItem" x="75" y="2395">
StringItem</text>
<g class="choice">
<path d=" M 125 2390 h 24 m 132 0 h 40"/>
<a class="link" xlink:href="#EscapedUnicode">
<g class="symbol">
<rect height="22" width="132" x="149" y="2379"/>
<text x="215" y="2395">
EscapedUnicode</text>
</g>
</a>
<path d=" M 125 2390 a 12 12 0 0 1 12 12 v 9 m 172 0 v -9 a 12 12 0 0 1 12 -12"/>
<path d=" M 137 2411 v 33 m 172 0 v -33"/>
<path d=" M 137 2411 v 0 a 12 12 0 0 0 12 12 m 148 0 h 0 a 12 12 0 0 0 12 -12 v 0"/>
<a class="link" xlink:href="#EscapedCharacter">
<g class="symbol">
<rect height="22" width="148" x="149" y="2412"/>
<text x="223" y="2428">
EscapedCharacter</text>
</g>
</a>
<path d=" M 137 2444 v 0 a 12 12 0 0 0 12 12 m 76 0 h 72 m -33 0 l -5 -5 m 0 10 l 5 -5 m 33 0 a 12 12 0 0 0 12 -12 v 0"/>
<a class="link" xlink:href="#TextAny">
<g class="symbol">
<rect height="22" width="76" x="149" y="2445"/>
<text x="187" y="2461">
TextAny</text>
</g>
</a>
</g>
<path d=" M 331 2390 h 5 a 5 5 0 0 1 5 -5 a 5 5 0 0 1 5 5 a 5 5 0 0 1 -5 5 a 5 5 0 0 1 -5 -5"/>
<path d=" M 25 2390 h 10"/>
<path d=" M 115 2390 h 10"/>
<path d=" M 321 2390 h 10"/>
</g>
<g class="sequence">
<path d=" M 10 2490 a 5 5 0 0 1 5 -5 a 5 5 0 0 1 5 5 a 5 5 0 0 1 -5 5 a 5 5 0 0 1 -5 -5 m 10 0 h 5"/>
<text class="comment" id="EscapedUnicode" x="89" y="2495">
EscapedUnicode</text>
<g class="sequence">
<g class="string">
<rect height="22" rx="10" ry="10" width="44" x="153" y="2479"/>
<text x="175" y="2495">
\u{</text>
</g>
<a class="link" xlink:href="#HEX">
<g class="symbol">
<rect height="22" width="44" x="207" y="2479"/>
<text x="229" y="2495">
HEX</text>
</g>
</a>
<g class="string">
<rect height="22" rx="10" ry="10" width="28" x="261" y="2479"/>
<text x="275" y="2495">
}</text>
</g>
<path d=" M 197 2490 h 10"/>
<path d=" M 251 2490 h 10"/>
</g>
<path d=" M 299 2490 h 5 a 5 5 0 0 1 5 -5 a 5 5 0 0 1 5 5 a 5 5 0 0 1 -5 5 a 5 5 0 0 1 -5 -5"/>
<path d=" M 25 2490 h 10"/>
<path d=" M 143 2490 h 10"/>
<path d=" M 289 2490 h 10"/>
</g>
<g class="sequence">
<path d=" M 10 2524 a 5 5 0 0 1 5 -5 a 5 5 0 0 1 5 5 a 5 5 0 0 1 -5 5 a 5 5 0 0 1 -5 -5 m 10 0 h 5"/>
<text class="comment" id="EscapedCharacter" x="96" y="2529">
EscapedCharacter</text>
<g class="sequence">
<g class="string">
<rect height="22" rx="10" ry="10" width="28" x="167" y="2513"/>
<text x="181" y="2529">
\</text>
</g>
<g class="character">
<rect height="22" rx="10" ry="10" width="44" x="205" y="2513"/>
<text x="227" y="2529">
ANY</text>
</g>
<path d=" M 195 2524 h 10"/>
</g>
<path d=" M 259 2524 h 5 a 5 5 0 0 1 5 -5 a 5 5 0 0 1 5 5 a 5 5 0 0 1 -5 5 a 5 5 0 0 1 -5 -5"/>
<path d=" M 25 2524 h 10"/>
<path d=" M 157 2524 h 10"/>
<path d=" M 249 2524 h 10"/>
</g>
<g class="sequence">
<path d=" M 10 2558 a 5 5 0 0 1 5 -5 a 5 5 0 0 1 5 5 a 5 5 0 0 1 -5 5 a 5 5 0 0 1 -5 -5 m 10 0 h 5"/>
<text class="comment" id="HEX" x="50" y="2563">
HEX</text>
<g class="repeat">
<path d=" M 76 2558 h 12 m 170 0 h 12 m -12 0 a 12 12 0 0 1 12 12 v 7 a 12 12 0 0 1 -12 12 m -52 0 h -118 m 62 0 l 5 -5 m 0 10 l -5 -5 m -62 0 a 12 12 0 0 1 -12 -12 v -7 a 12 12 0 0 1 12 -12"/>
<text class="comment" x="232" y="2594">
[1, 6]</text>
<g class="sequence">
<g class="character">
<rect height="22" rx="10" ry="10" width="52" x="88" y="2547"/>
<text x="114" y="2563">
HIDE</text>
</g>
<g class="string">
<rect height="22" rx="10" ry="10" width="108" x="150" y="2547"/>
<text x="204" y="2563">
[0-9a-fA-F]</text>
</g>
<path d=" M 140 2558 h 10"/>
</g>
</g>
<path d=" M 280 2558 h 5 a 5 5 0 0 1 5 -5 a 5 5 0 0 1 5 5 a 5 5 0 0 1 -5 5 a 5 5 0 0 1 -5 -5"/>
<path d=" M 25 2558 h 10"/>
<path d=" M 66 2558 h 10"/>
<path d=" M 270 2558 h 10"/>
</g>
<g class="sequence">
<path d=" M 10 2622 a 5 5 0 0 1 5 -5 a 5 5 0 0 1 5 5 a 5 5 0 0 1 -5 5 a 5 5 0 0 1 -5 -5 m 10 0 h 5"/>
<text class="comment" id="TextAny" x="64" y="2627">
TextAny</text>
<g class="string">
<rect height="22" rx="10" ry="10" width="76" x="104" y="2611"/>
<text x="142" y="2627">
[^&quot;\\]+</text>
</g>
<path d=" M 190 2622 h 5 a 5 5 0 0 1 5 -5 a 5 5 0 0 1 5 5 a 5 5 0 0 1 -5 5 a 5 5 0 0 1 -5 -5"/>
<path d=" M 25 2622 h 10"/>
<path d=" M 94 2622 h 10"/>
<path d=" M 180 2622 h 10"/>
</g>
<g class="sequence">
<path d=" M 10 2656 a 5 5 0 0 1 5 -5 a 5 5 0 0 1 5 5 a 5 5 0 0 1 -5 5 a 5 5 0 0 1 -5 -5 m 10 0 h 5"/>
<text class="comment" id="RegexEmbed" x="75" y="2661">
RegexEmbed</text>
<g class="sequence">
<g class="string">
<rect height="22" rx="10" ry="10" width="28" x="125" y="2645"/>
<text x="139" y="2661">
/</text>
</g>
<g class="repeat">
<path d=" M 163 2656 h 12 m 92 0 h 12 m -12 0 a 12 12 0 0 1 12 12 v 7 a 12 12 0 0 1 -12 12 m -52 0 h -40 a 12 12 0 0 1 -12 -12 v -7 a 12 12 0 0 1 12 -12"/>
<text class="comment" x="241" y="2692">
[1, ∞]</text>
<a class="link" xlink:href="#RegexItem">
<g class="symbol">
<rect height="22" width="92" x="175" y="2645"/>
<text x="221" y="2661">
RegexItem</text>
</g>
</a>
</g>
<g class="string">
<rect height="22" rx="10" ry="10" width="28" x="289" y="2645"/>
<text x="303" y="2661">
/</text>
</g>
<path d=" M 153 2656 h 10"/>
<path d=" M 279 2656 h 10"/>
</g>
<path d=" M 327 2656 h 5 a 5 5 0 0 1 5 -5 a 5 5 0 0 1 5 5 a 5 5 0 0 1 -5 5 a 5 5 0 0 1 -5 -5"/>
<path d=" M 25 2656 h 10"/>
<path d=" M 115 2656 h 10"/>
<path d=" M 317 2656 h 10"/>
</g>
<g class="sequence">
<path d=" M 10 2720 a 5 5 0 0 1 5 -5 a 5 5 0 0 1 5 5 a 5 5 0 0 1 -5 5 a 5 5 0 0 1 -5 -5 m 10 0 h 5"/>
<text class="comment" id="RegexItem" x="71" y="2725">
RegexItem</text>
<g class="choice">
<path d=" M 118 2720 h 24 m 148 0 h 24"/>
<a class="link" xlink:href="#EscapedCharacter">
<g class="symbol">
<rect height="22" width="148" x="142" y="2709"/>
<text x="216" y="2725">
EscapedCharacter</text>
</g>
</a>
<path d=" M 118 2720 a 12 12 0 0 1 12 12 v 9 m 172 0 v -9 a 12 12 0 0 1 12 -12"/>
<path d=" M 130 2741 v 0 a 12 12 0 0 0 12 12 m 132 0 h 16 a 12 12 0 0 0 12 -12 v 0"/>
<a class="link" xlink:href="#RegexCharacter">
<g class="symbol">
<rect height="22" width="132" x="142" y="2742"/>
<text x="208" y="2758">
RegexCharacter</text>
</g>
</a>
</g>
<path d=" M 324 2720 h 5 a 5 5 0 0 1 5 -5 a 5 5 0 0 1 5 5 a 5 5 0 0 1 -5 5 a 5 5 0 0 1 -5 -5"/>
<path d=" M 25 2720 h 10"/>
<path d=" M 108 2720 h 10"/>
<path d=" M 314 2720 h 10"/>
</g>
<g class="sequence">
<path d=" M 10 2787 a 5 5 0 0 1 5 -5 a 5 5 0 0 1 5 5 a 5 5 0 0 1 -5 5 a 5 5 0 0 1 -5 -5 m 10 0 h 5"/>
<text class="comment" id="RegexCharacter" x="89" y="2792">
RegexCharacter</text>
<g class="sequence">
<g class="string">
<rect height="22" rx="10" ry="10" width="28" x="153" y="2776"/>
<text x="167" y="2792">
/</text>
</g>
<g class="character">
<rect height="22" rx="10" ry="10" width="44" x="191" y="2776"/>
<text x="213" y="2792">
ANY</text>
</g>
<path d=" M 181 2787 h 10"/>
</g>
<path d=" M 245 2787 h 5 a 5 5 0 0 1 5 -5 a 5 5 0 0 1 5 5 a 5 5 0 0 1 -5 5 a 5 5 0 0 1 -5 -5"/>
<path d=" M 25 2787 h 10"/>
<path d=" M 143 2787 h 10"/>
<path d=" M 235 2787 h 10"/>
</g>
<g class="sequence">
<path d=" M 10 2834 a 5 5 0 0 1 5 -5 a 5 5 0 0 1 5 5 a 5 5 0 0 1 -5 5 a 5 5 0 0 1 -5 -5 m 10 0 h 5"/>
<text class="comment" id="RegexRange" x="75" y="2839">
RegexRange</text>
<g class="sequence">
<g class="string">
<rect height="22" rx="10" ry="10" width="28" x="125" y="2823"/>
<text x="139" y="2839">
[</text>
</g>
<g class="optional">
<path d=" M 163 2834 h 24 m -24 0 a 12 12 0 0 0 12 -12 v 0 a 12 12 0 0 1 12 -12 h 124 m -59 0 l -5 -5 m 0 10 l 5 -5 m 59 0 a 12 12 0 0 1 12 12 v 0 a 12 12 0 0 0 12 12 h -24"/>
<a class="link" xlink:href="#RegexNegative">
<g class="symbol">
<rect height="22" width="124" x="187" y="2823"/>
<text x="249" y="2839">
RegexNegative</text>
</g>
</a>
</g>
<g class="repeat">
<path d=" M 345 2834 h 12 m 82 0 h 12 m -12 0 a 12 12 0 0 1 12 12 v 7 a 12 12 0 0 1 -12 12 m -52 0 h -30 a 12 12 0 0 1 -12 -12 v -7 a 12 12 0 0 1 12 -12"/>
<text class="comment" x="413" y="2870">
[0, ∞]</text>
<g class="sequence">
<g class="string">
<rect height="22" rx="10" ry="10" width="28" x="357" y="2823"/>
<text x="371" y="2839">
]</text>
</g>
<g class="character">
<rect height="22" rx="10" ry="10" width="44" x="395" y="2823"/>
<text x="417" y="2839">
ANY</text>
</g>
<path d=" M 385 2834 h 10"/>
</g>
</g>
<g class="string">
<rect height="22" rx="10" ry="10" width="28" x="461" y="2823"/>
<text x="475" y="2839">
]</text>
</g>
<path d=" M 153 2834 h 10"/>
<path d=" M 335 2834 h 10"/>
<path d=" M 451 2834 h 10"/>
</g>
<path d=" M 499 2834 h 5 a 5 5 0 0 1 5 -5 a 5 5 0 0 1 5 5 a 5 5 0 0 1 -5 5 a 5 5 0 0 1 -5 -5"/>
<path d=" M 25 2834 h 10"/>
<path d=" M 115 2834 h 10"/>
<path d=" M 489 2834 h 10"/>
</g>
<g class="sequence">
<path d=" M 10 2898 a 5 5 0 0 1 5 -5 a 5 5 0 0 1 5 5 a 5 5 0 0 1 -5 5 a 5 5 0 0 1 -5 -5 m 10 0 h 5"/>
<text class="comment" id="RegexNegative" x="85" y="2903">
RegexNegative</text>
<g class="string">
<rect height="22" rx="10" ry="10" width="28" x="146" y="2887"/>
<text x="160" y="2903">
^</text>
</g>
<path d=" M 184 2898 h 5 a 5 5 0 0 1 5 -5 a 5 5 0 0 1 5 5 a 5 5 0 0 1 -5 5 a 5 5 0 0 1 -5 -5"/>
<path d=" M 25 2898 h 10"/>
<path d=" M 136 2898 h 10"/>
<path d=" M 174 2898 h 10"/>
</g>
<g class="sequence">
<path d=" M 10 2945 a 5 5 0 0 1 5 -5 a 5 5 0 0 1 5 5 a 5 5 0 0 1 -5 5 a 5 5 0 0 1 -5 -5 m 10 0 h 5"/>
<text class="comment" id="Category" x="68" y="2950">
Category</text>
<g class="sequence">
<g class="sequence">
<a class="link" xlink:href="#OP_CATEGORY">
<g class="symbol">
<rect height="22" width="108" x="111" y="2934"/>
<text x="165" y="2950">
OP_CATEGORY</text>
</g>
</a>
<g class="character">
<rect height="22" rx="10" ry="10" width="52" x="229" y="2934"/>
<text x="255" y="2950">
HIDE</text>
</g>
<g class="string">
<rect height="22" rx="10" ry="10" width="28" x="291" y="2934"/>
<text x="305" y="2950">
{</text>
</g>
<g class="character">
<rect height="22" rx="10" ry="10" width="52" x="329" y="2934"/>
<text x="355" y="2950">
HIDE</text>
</g>
<g class="optional">
<path d=" M 391 2945 h 24 m -24 0 a 12 12 0 0 0 12 -12 v 0 a 12 12 0 0 1 12 -12 h 200 m -97 0 l -5 -5 m 0 10 l 5 -5 m 97 0 a 12 12 0 0 1 12 12 v 0 a 12 12 0 0 0 12 12 h -24"/>
<g class="sequence">
<a class="link" xlink:href="#Identifier">
<g class="symbol">
<rect height="22" width="100" x="415" y="2934"/>
<text x="465" y="2950">
Identifier</text>
</g>
</a>
<g class="character">
<rect height="22" rx="10" ry="10" width="52" x="525" y="2934"/>
<text x="551" y="2950">
HIDE</text>
</g>
<g class="string">
<rect height="22" rx="10" ry="10" width="28" x="587" y="2934"/>
<text x="601" y="2950">
=</text>
</g>
<path d=" M 515 2945 h 10"/>
<path d=" M 577 2945 h 10"/>
</g>
</g>
<g class="character">
<rect height="22" rx="10" ry="10" width="52" x="649" y="2934"/>
<text x="675" y="2950">
HIDE</text>
</g>
<path d=" M 219 2945 h 10"/>
<path d=" M 281 2945 h 10"/>
<path d=" M 319 2945 h 10"/>
<path d=" M 381 2945 h 10"/>
<path d=" M 639 2945 h 10"/>
</g>
<a class="link" xlink:href="#Identifier">
<g class="symbol">
<rect height="22" width="100" x="711" y="2934"/>
<text x="761" y="2950">
Identifier</text>
</g>
</a>
<g class="character">
<rect height="22" rx="10" ry="10" width="52" x="821" y="2934"/>
<text x="847" y="2950">
HIDE</text>
</g>
<g class="string">
<rect height="22" rx="10" ry="10" width="28" x="883" y="2934"/>
<text x="897" y="2950">
}</text>
</g>
<path d=" M 701 2945 h 10"/>
<path d=" M 811 2945 h 10"/>
<path d=" M 873 2945 h 10"/>
</g>
<path d=" M 921 2945 h 5 a 5 5 0 0 1 5 -5 a 5 5 0 0 1 5 5 a 5 5 0 0 1 -5 5 a 5 5 0 0 1 -5 -5"/>
<path d=" M 25 2945 h 10"/>
<path d=" M 101 2945 h 10"/>
<path d=" M 911 2945 h 10"/>
</g>
<g class="sequence">
<path d=" M 10 2979 a 5 5 0 0 1 5 -5 a 5 5 0 0 1 5 5 a 5 5 0 0 1 -5 5 a 5 5 0 0 1 -5 -5 m 10 0 h 5"/>
<text class="comment" id="NamepathFree" x="82" y="2984">
NamepathFree</text>
<g class="sequence">
<a class="link" xlink:href="#Identifier">
<g class="symbol">
<rect height="22" width="100" x="139" y="2968"/>
<text x="189" y="2984">
Identifier</text>
</g>
</a>
<g class="character">
<rect height="22" rx="10" ry="10" width="52" x="249" y="2968"/>
<text x="275" y="2984">
HIDE</text>
</g>
<g class="repeat">
<path d=" M 311 2979 h 12 m 318 0 h 12 m -12 0 a 12 12 0 0 1 12 12 v 40 a 12 12 0 0 1 -12 12 m -52 0 h -266 m 136 0 l 5 -5 m 0 10 l -5 -5 m -136 0 a 12 12 0 0 1 -12 -12 v -40 a 12 12 0 0 1 12 -12"/>
<text class="comment" x="615" y="3048">
[0, ∞]</text>
<g class="sequence">
<g class="character">
<rect height="22" rx="10" ry="10" width="52" x="323" y="2968"/>
<text x="349" y="2984">
HIDE</text>
</g>
<g class="sequence">
<g class="choice">
<path d=" M 385 2979 h 24 m 28 0 h 32"/>
<g class="string">
<rect height="22" rx="10" ry="10" width="28" x="409" y="2968"/>
<text x="423" y="2984">
.</text>
</g>
<path d=" M 385 2979 a 12 12 0 0 1 12 12 v 9 m 60 0 v -9 a 12 12 0 0 1 12 -12"/>
<path d=" M 397 3000 v 0 a 12 12 0 0 0 12 12 m 36 0 h 0 a 12 12 0 0 0 12 -12 v 0"/>
<g class="string">
<rect height="22" rx="10" ry="10" width="36" x="409" y="3001"/>
<text x="427" y="3017">
::</text>
</g>
</g>
<g class="character">
<rect height="22" rx="10" ry="10" width="52" x="479" y="2968"/>
<text x="505" y="2984">
HIDE</text>
</g>
<a class="link" xlink:href="#Identifier">
<g class="symbol">
<rect height="22" width="100" x="541" y="2968"/>
<text x="591" y="2984">
Identifier</text>
</g>
</a>
<path d=" M 469 2979 h 10"/>
<path d=" M 531 2979 h 10"/>
</g>
<path d=" M 375 2979 h 10"/>
</g>
</g>
<path d=" M 239 2979 h 10"/>
<path d=" M 301 2979 h 10"/>
</g>
<path d=" M 663 2979 h 5 a 5 5 0 0 1 5 -5 a 5 5 0 0 1 5 5 a 5 5 0 0 1 -5 5 a 5 5 0 0 1 -5 -5"/>
<path d=" M 25 2979 h 10"/>
<path d=" M 129 2979 h 10"/>
<path d=" M 653 2979 h 10"/>
</g>
<g class="sequence">
<path d=" M 10 3076 a 5 5 0 0 1 5 -5 a 5 5 0 0 1 5 5 a 5 5 0 0 1 -5 5 a 5 5 0 0 1 -5 -5 m 10 0 h 5"/>
<text class="comment" id="Namepath" x="68" y="3081">
Namepath</text>
<g class="sequence">
<a class="link" xlink:href="#Identifier">
<g class="symbol">
<rect height="22" width="100" x="111" y="3065"/>
<text x="161" y="3081">
Identifier</text>
</g>
</a>
<g class="character">
<rect height="22" rx="10" ry="10" width="52" x="221" y="3065"/>
<text x="247" y="3081">
HIDE</text>
</g>
<g class="repeat">
<path d=" M 283 3076 h 12 m 270 0 h 12 m -12 0 a 12 12 0 0 1 12 12 v 7 a 12 12 0 0 1 -12 12 m -52 0 h -218 m 112 0 l 5 -5 m 0 10 l -5 -5 m -112 0 a 12 12 0 0 1 -12 -12 v -7 a 12 12 0 0 1 12 -12"/>
<text class="comment" x="539" y="3112">
[0, ∞]</text>
<g class="sequence">
<g class="character">
<rect height="22" rx="10" ry="10" width="52" x="295" y="3065"/>
<text x="321" y="3081">
HIDE</text>
</g>
<g class="sequence">
<g class="string">
<rect height="22" rx="10" ry="10" width="36" x="357" y="3065"/>
<text x="375" y="3081">
::</text>
</g>
<g class="character">
<rect height="22" rx="10" ry="10" width="52" x="403" y="3065"/>
<text x="429" y="3081">
HIDE</text>
</g>
<a class="link" xlink:href="#Identifier">
<g class="symbol">
<rect height="22" width="100" x="465" y="3065"/>
<text x="515" y="3081">
Identifier</text>
</g>
</a>
<path d=" M 393 3076 h 10"/>
<path d=" M 455 3076 h 10"/>
</g>
<path d=" M 347 3076 h 10"/>
</g>
</g>
<path d=" M 211 3076 h 10"/>
<path d=" M 273 3076 h 10"/>
</g>
<path d=" M 587 3076 h 5 a 5 5 0 0 1 5 -5 a 5 5 0 0 1 5 5 a 5 5 0 0 1 -5 5 a 5 5 0 0 1 -5 -5"/>
<path d=" M 25 3076 h 10"/>
<path d=" M 101 3076 h 10"/>
<path d=" M 577 3076 h 10"/>
</g>
<g class="sequence">
<path d=" M 10 3140 a 5 5 0 0 1 5 -5 a 5 5 0 0 1 5 5 a 5 5 0 0 1 -5 5 a 5 5 0 0 1 -5 -5 m 10 0 h 5"/>
<text class="comment" id="Identifier" x="75" y="3145">
Identifier</text>
<g class="string">
<rect height="22" rx="10" ry="10" width="292" x="125" y="3129"/>
<text x="271" y="3145">
[_\p{XID_start}]\p{XID_continue}*</text>
</g>
<path d=" M 427 3140 h 5 a 5 5 0 0 1 5 -5 a 5 5 0 0 1 5 5 a 5 5 0 0 1 -5 5 a 5 5 0 0 1 -5 -5"/>
<path d=" M 25 3140 h 10"/>
<path d=" M 115 3140 h 10"/>
<path d=" M 417 3140 h 10"/>
</g>
<g class="sequence">
<path d=" M 10 3174 a 5 5 0 0 1 5 -5 a 5 5 0 0 1 5 5 a 5 5 0 0 1 -5 5 a 5 5 0 0 1 -5 -5 m 10 0 h 5"/>
<text class="comment" id="Boolean" x="64" y="3179">
Boolean</text>
<g class="choice">
<path d=" M 104 3174 h 24 m 52 0 h 32"/>
<g class="string">
<rect height="22" rx="10" ry="10" width="52" x="128" y="3163"/>
<text x="154" y="3179">
true</text>
</g>
<path d=" M 104 3174 a 12 12 0 0 1 12 12 v 9 m 84 0 v -9 a 12 12 0 0 1 12 -12"/>
<path d=" M 116 3195 v 0 a 12 12 0 0 0 12 12 m 60 0 h 0 a 12 12 0 0 0 12 -12 v 0"/>
<g class="string">
<rect height="22" rx="10" ry="10" width="60" x="128" y="3196"/>
<text x="158" y="3212">
false</text>
</g>
</g>
<path d=" M 222 3174 h 5 a 5 5 0 0 1 5 -5 a 5 5 0 0 1 5 5 a 5 5 0 0 1 -5 5 a 5 5 0 0 1 -5 -5"/>
<path d=" M 25 3174 h 10"/>
<path d=" M 94 3174 h 10"/>
<path d=" M 212 3174 h 10"/>
</g>
<g class="sequence">
<path d=" M 10 3241 a 5 5 0 0 1 5 -5 a 5 5 0 0 1 5 5 a 5 5 0 0 1 -5 5 a 5 5 0 0 1 -5 -5 m 10 0 h 5"/>
<text class="comment" id="Integer" x="64" y="3246">
Integer</text>
<g class="string">
<rect height="22" rx="10" ry="10" width="124" x="104" y="3230"/>
<text x="166" y="3246">
0|[1-9][0-9]*</text>
</g>
<path d=" M 238 3241 h 5 a 5 5 0 0 1 5 -5 a 5 5 0 0 1 5 5 a 5 5 0 0 1 -5 5 a 5 5 0 0 1 -5 -5"/>
<path d=" M 25 3241 h 10"/>
<path d=" M 94 3241 h 10"/>
<path d=" M 228 3241 h 10"/>
</g>
<g class="sequence">
<path d=" M 10 3275 a 5 5 0 0 1 5 -5 a 5 5 0 0 1 5 5 a 5 5 0 0 1 -5 5 a 5 5 0 0 1 -5 -5 m 10 0 h 5"/>
<text class="comment" id="RangeExact" x="75" y="3280">
RangeExact</text>
<g class="sequence">
<g class="string">
<rect height="22" rx="10" ry="10" width="28" x="125" y="3264"/>
<text x="139" y="3280">
{</text>
</g>
<g class="character">
<rect height="22" rx="10" ry="10" width="52" x="163" y="3264"/>
<text x="189" y="3280">
HIDE</text>
</g>
<a class="link" xlink:href="#Integer">
<g class="symbol">
<rect height="22" width="76" x="225" y="3264"/>
<text x="263" y="3280">
Integer</text>
</g>
</a>
<g class="character">
<rect height="22" rx="10" ry="10" width="52" x="311" y="3264"/>
<text x="337" y="3280">
HIDE</text>
</g>
<g class="string">
<rect height="22" rx="10" ry="10" width="28" x="373" y="3264"/>
<text x="387" y="3280">
}</text>
</g>
<path d=" M 153 3275 h 10"/>
<path d=" M 215 3275 h 10"/>
<path d=" M 301 3275 h 10"/>
<path d=" M 363 3275 h 10"/>
</g>
<path d=" M 411 3275 h 5 a 5 5 0 0 1 5 -5 a 5 5 0 0 1 5 5 a 5 5 0 0 1 -5 5 a 5 5 0 0 1 -5 -5"/>
<path d=" M 25 3275 h 10"/>
<path d=" M 115 3275 h 10"/>
<path d=" M 401 3275 h 10"/>
</g>
<g class="sequence">
<path d=" M 10 3322 a 5 5 0 0 1 5 -5 a 5 5 0 0 1 5 5 a 5 5 0 0 1 -5 5 a 5 5 0 0 1 -5 -5 m 10 0 h 5"/>
<text class="comment" id="Range" x="57" y="3327">
Range</text>
<g class="sequence">
<g class="string">
<rect height="22" rx="10" ry="10" width="28" x="90" y="3311"/>
<text x="104" y="3327">
{</text>
</g>
<g class="character">
<rect height="22" rx="10" ry="10" width="52" x="128" y="3311"/>
<text x="154" y="3327">
HIDE</text>
</g>
<g class="optional">
<path d=" M 190 3322 h 24 m -24 0 a 12 12 0 0 0 12 -12 v 0 a 12 12 0 0 1 12 -12 h 76 m -35 0 l -5 -5 m 0 10 l 5 -5 m 35 0 a 12 12 0 0 1 12 12 v 0 a 12 12 0 0 0 12 12 h -24"/>
<a class="link" xlink:href="#Integer">
<g class="symbol">
<rect height="22" width="76" x="214" y="3311"/>
<text x="252" y="3327">
Integer</text>
</g>
</a>
</g>
<g class="character">
<rect height="22" rx="10" ry="10" width="52" x="324" y="3311"/>
<text x="350" y="3327">
HIDE</text>
</g>
<g class="string">
<rect height="22" rx="10" ry="10" width="28" x="386" y="3311"/>
<text x="400" y="3327">
,</text>
</g>
<g class="character">
<rect height="22" rx="10" ry="10" width="52" x="424" y="3311"/>
<text x="450" y="3327">
HIDE</text>
</g>
<g class="optional">
<path d=" M 486 3322 h 24 m -24 0 a 12 12 0 0 0 12 -12 v 0 a 12 12 0 0 1 12 -12 h 76 m -35 0 l -5 -5 m 0 10 l 5 -5 m 35 0 a 12 12 0 0 1 12 12 v 0 a 12 12 0 0 0 12 12 h -24"/>
<a class="link" xlink:href="#Integer">
<g class="symbol">
<rect height="22" width="76" x="510" y="3311"/>
<text x="548" y="3327">
Integer</text>
</g>
</a>
</g>
<g class="character">
<rect height="22" rx="10" ry="10" width="52" x="620" y="3311"/>
<text x="646" y="3327">
HIDE</text>
</g>
<g class="string">
<rect height="22" rx="10" ry="10" width="28" x="682" y="3311"/>
<text x="696" y="3327">
}</text>
</g>
<path d=" M 118 3322 h 10"/>
<path d=" M 180 3322 h 10"/>
<path d=" M 314 3322 h 10"/>
<path d=" M 376 3322 h 10"/>
<path d=" M 414 3322 h 10"/>
<path d=" M 476 3322 h 10"/>
<path d=" M 610 3322 h 10"/>
<path d=" M 672 3322 h 10"/>
</g>
<path d=" M 720 3322 h 5 a 5 5 0 0 1 5 -5 a 5 5 0 0 1 5 5 a 5 5 0 0 1 -5 5 a 5 5 0 0 1 -5 -5"/>
<path d=" M 25 3322 h 10"/>
<path d=" M 80 3322 h 10"/>
<path d=" M 710 3322 h 10"/>
</g>
<g class="sequence">
<path d=" M 10 3356 a 5 5 0 0 1 5 -5 a 5 5 0 0 1 5 5 a 5 5 0 0 1 -5 5 a 5 5 0 0 1 -5 -5 m 10 0 h 5"/>
<text class="comment" id="ModifierCall" x="82" y="3361">
ModifierCall</text>
<g class="sequence">
<g class="choice">
<path d=" M 139 3356 h 24 m 84 0 h 24"/>
<a class="link" xlink:href="#KW_CLASS">
<g class="symbol">
<rect height="22" width="84" x="163" y="3345"/>
<text x="205" y="3361">
KW_CLASS</text>
</g>
</a>
<path d=" M 139 3356 a 12 12 0 0 1 12 12 v 9 m 108 0 v -9 a 12 12 0 0 1 12 -12"/>
<path d=" M 151 3377 v 33 m 108 0 v -33"/>
<path d=" M 151 3410 v 33 m 108 0 v -33"/>
<path d=" M 151 3443 v 33 m 108 0 v -33"/>
<path d=" M 151 3377 v 0 a 12 12 0 0 0 12 12 m 84 0 h 0 a 12 12 0 0 0 12 -12 v 0"/>
<a class="link" xlink:href="#KW_UNION">
<g class="symbol">
<rect height="22" width="84" x="163" y="3378"/>
<text x="205" y="3394">
KW_UNION</text>
</g>
</a>
<path d=" M 151 3410 v 0 a 12 12 0 0 0 12 12 m 84 0 h 0 a 12 12 0 0 0 12 -12 v 0"/>
<a class="link" xlink:href="#KW_GROUP">
<g class="symbol">
<rect height="22" width="84" x="163" y="3411"/>
<text x="205" y="3427">
KW_GROUP</text>
</g>
</a>
<path d=" M 151 3443 v 0 a 12 12 0 0 0 12 12 m 84 0 h 0 a 12 12 0 0 0 12 -12 v 0"/>
<a class="link" xlink:href="#KW_MACRO">
<g class="symbol">
<rect height="22" width="84" x="163" y="3444"/>
<text x="205" y="3460">
KW_MACRO</text>
</g>
</a>
<path d=" M 151 3476 v 0 a 12 12 0 0 0 12 12 m 84 0 h 0 a 12 12 0 0 0 12 -12 v 0"/>
<a class="link" xlink:href="#KW_CLIMB">
<g class="symbol">
<rect height="22" width="84" x="163" y="3477"/>
<text x="205" y="3493">
KW_CLIMB</text>
</g>
</a>
</g>
<a class="link" xlink:href="#Identifier">
<g class="symbol">
<rect height="22" width="100" x="281" y="3345"/>
<text x="331" y="3361">
Identifier</text>
</g>
</a>
<path d=" M 271 3356 h 10"/>
</g>
<path d=" M 391 3356 h 5 a 5 5 0 0 1 5 -5 a 5 5 0 0 1 5 5 a 5 5 0 0 1 -5 5 a 5 5 0 0 1 -5 -5"/>
<path d=" M 25 3356 h 10"/>
<path d=" M 129 3356 h 10"/>
<path d=" M 381 3356 h 10"/>
</g>
<g class="sequence">
<path d=" M 10 3522 a 5 5 0 0 1 5 -5 a 5 5 0 0 1 5 5 a 5 5 0 0 1 -5 5 a 5 5 0 0 1 -5 -5 m 10 0 h 5"/>
<text class="comment" id="OP_CATEGORY" x="78" y="3527">
OP_CATEGORY</text>
<g class="string">
<rect height="22" rx="10" ry="10" width="36" x="132" y="3511"/>
<text x="150" y="3527">
\p</text>
</g>
<path d=" M 178 3522 h 5 a 5 5 0 0 1 5 -5 a 5 5 0 0 1 5 5 a 5 5 0 0 1 -5 5 a 5 5 0 0 1 -5 -5"/>
<path d=" M 25 3522 h 10"/>
<path d=" M 122 3522 h 10"/>
<path d=" M 168 3522 h 10"/>
</g>
<g class="sequence">
<path d=" M 10 3556 a 5 5 0 0 1 5 -5 a 5 5 0 0 1 5 5 a 5 5 0 0 1 -5 5 a 5 5 0 0 1 -5 -5 m 10 0 h 5"/>
<text class="comment" id="KW_EXTERNAL" x="78" y="3561">
KW_EXTERNAL</text>
<g class="choice">
<path d=" M 132 3556 h 24 m 68 0 h 48"/>
<g class="string">
<rect height="22" rx="10" ry="10" width="68" x="156" y="3545"/>
<text x="190" y="3561">
parser</text>
</g>
<path d=" M 132 3556 a 12 12 0 0 1 12 12 v 9 m 116 0 v -9 a 12 12 0 0 1 12 -12"/>
<path d=" M 144 3577 v 33 m 116 0 v -33"/>
<path d=" M 144 3577 v 0 a 12 12 0 0 0 12 12 m 92 0 h 0 a 12 12 0 0 0 12 -12 v 0"/>
<g class="string">
<rect height="22" rx="10" ry="10" width="92" x="156" y="3578"/>
<text x="202" y="3594">
inspector</text>
</g>
<path d=" M 144 3610 v 0 a 12 12 0 0 0 12 12 m 84 0 h 8 a 12 12 0 0 0 12 -12 v 0"/>
<g class="string">
<rect height="22" rx="10" ry="10" width="84" x="156" y="3611"/>
<text x="198" y="3627">
external</text>
</g>
</g>
<path d=" M 282 3556 h 5 a 5 5 0 0 1 5 -5 a 5 5 0 0 1 5 5 a 5 5 0 0 1 -5 5 a 5 5 0 0 1 -5 -5"/>
<path d=" M 25 3556 h 10"/>
<path d=" M 122 3556 h 10"/>
<path d=" M 272 3556 h 10"/>
</g>
<g class="sequence">
<path d=" M 10 3656 a 5 5 0 0 1 5 -5 a 5 5 0 0 1 5 5 a 5 5 0 0 1 -5 5 a 5 5 0 0 1 -5 -5 m 10 0 h 5"/>
<text class="comment" id="KW_GRAMMAR" x="75" y="3661">
KW_GRAMMAR</text>
<g class="string">
<rect height="22" rx="10" ry="10" width="76" x="125" y="3645"/>
<text x="163" y="3661">
grammar</text>
</g>
<path d=" M 211 3656 h 5 a 5 5 0 0 1 5 -5 a 5 5 0 0 1 5 5 a 5 5 0 0 1 -5 5 a 5 5 0 0 1 -5 -5"/>
<path d=" M 25 3656 h 10"/>
<path d=" M 115 3656 h 10"/>
<path d=" M 201 3656 h 10"/>
</g>
<g class="sequence">
<path d=" M 10 3690 a 5 5 0 0 1 5 -5 a 5 5 0 0 1 5 5 a 5 5 0 0 1 -5 5 a 5 5 0 0 1 -5 -5 m 10 0 h 5"/>
<text class="comment" id="KW_IMPORT" x="71" y="3695">
KW_IMPORT</text>
<g class="string">
<rect height="22" rx="10" ry="10" width="148" x="118" y="3679"/>
<text x="192" y="3695">
using|use|import</text>
</g>
<path d=" M 276 3690 h 5 a 5 5 0 0 1 5 -5 a 5 5 0 0 1 5 5 a 5 5 0 0 1 -5 5 a 5 5 0 0 1 -5 -5"/>
<path d=" M 25 3690 h 10"/>
<path d=" M 108 3690 h 10"/>
<path d=" M 266 3690 h 10"/>
</g>
<g class="sequence">
<path d=" M 10 3724 a 5 5 0 0 1 5 -5 a 5 5 0 0 1 5 5 a 5 5 0 0 1 -5 5 a 5 5 0 0 1 -5 -5 m 10 0 h 5"/>
<text class="comment" id="KW_CLASS" x="68" y="3729">
KW_CLASS</text>
<g class="string">
<rect height="22" rx="10" ry="10" width="116" x="111" y="3713"/>
<text x="169" y="3729">
class|struct</text>
</g>
<path d=" M 237 3724 h 5 a 5 5 0 0 1 5 -5 a 5 5 0 0 1 5 5 a 5 5 0 0 1 -5 5 a 5 5 0 0 1 -5 -5"/>
<path d=" M 25 3724 h 10"/>
<path d=" M 101 3724 h 10"/>
<path d=" M 227 3724 h 10"/>
</g>
<g class="sequence">
<path d=" M 10 3758 a 5 5 0 0 1 5 -5 a 5 5 0 0 1 5 5 a 5 5 0 0 1 -5 5 a 5 5 0 0 1 -5 -5 m 10 0 h 5"/>
<text class="comment" id="KW_UNION" x="68" y="3763">
KW_UNION</text>
<g class="string">
<rect height="22" rx="10" ry="10" width="100" x="111" y="3747"/>
<text x="161" y="3763">
union|enum</text>
</g>
<path d=" M 221 3758 h 5 a 5 5 0 0 1 5 -5 a 5 5 0 0 1 5 5 a 5 5 0 0 1 -5 5 a 5 5 0 0 1 -5 -5"/>
<path d=" M 25 3758 h 10"/>
<path d=" M 101 3758 h 10"/>
<path d=" M 211 3758 h 10"/>
</g>
<g class="sequence">
<path d=" M 10 3792 a 5 5 0 0 1 5 -5 a 5 5 0 0 1 5 5 a 5 5 0 0 1 -5 5 a 5 5 0 0 1 -5 -5 m 10 0 h 5"/>
<text class="comment" id="KW_GROUP" x="68" y="3797">
KW_GROUP</text>
<g class="string">
<rect height="22" rx="10" ry="10" width="108" x="111" y="3781"/>
<text x="165" y="3797">
group|token</text>
</g>
<path d=" M 229 3792 h 5 a 5 5 0 0 1 5 -5 a 5 5 0 0 1 5 5 a 5 5 0 0 1 -5 5 a 5 5 0 0 1 -5 -5"/>
<path d=" M 25 3792 h 10"/>
<path d=" M 101 3792 h 10"/>
<path d=" M 219 3792 h 10"/>
</g>
<g class="sequence">
<path d=" M 10 3826 a 5 5 0 0 1 5 -5 a 5 5 0 0 1 5 5 a 5 5 0 0 1 -5 5 a 5 5 0 0 1 -5 -5 m 10 0 h 5"/>
<text class="comment" id="KW_CLIMB" x="68" y="3831">
KW_CLIMB</text>
<g class="string">
<rect height="22" rx="10" ry="10" width="60" x="111" y="3815"/>
<text x="141" y="3831">
climb</text>
</g>
<path d=" M 181 3826 h 5 a 5 5 0 0 1 5 -5 a 5 5 0 0 1 5 5 a 5 5 0 0 1 -5 5 a 5 5 0 0 1 -5 -5"/>
<path d=" M 25 3826 h 10"/>
<path d=" M 101 3826 h 10"/>
<path d=" M 171 3826 h 10"/>
</g>
<g class="sequence">
<path d=" M 10 3860 a 5 5 0 0 1 5 -5 a 5 5 0 0 1 5 5 a 5 5 0 0 1 -5 5 a 5 5 0 0 1 -5 -5 m 10 0 h 5"/>
<text class="comment" id="KW_MACRO" x="68" y="3865">
KW_MACRO</text>
<g class="string">
<rect height="22" rx="10" ry="10" width="268" x="111" y="3849"/>
<text x="245" y="3865">
macro|def|function|func|fun|fn</text>
</g>
<path d=" M 389 3860 h 5 a 5 5 0 0 1 5 -5 a 5 5 0 0 1 5 5 a 5 5 0 0 1 -5 5 a 5 5 0 0 1 -5 -5"/>
<path d=" M 25 3860 h 10"/>
<path d=" M 101 3860 h 10"/>
<path d=" M 379 3860 h 10"/>
</g>
<g class="sequence">
<path d=" M 10 3894 a 5 5 0 0 1 5 -5 a 5 5 0 0 1 5 5 a 5 5 0 0 1 -5 5 a 5 5 0 0 1 -5 -5 m 10 0 h 5"/>
<text class="comment" id="WhiteSpace" x="75" y="3899">
WhiteSpace</text>
<g class="string">
<rect height="22" rx="10" ry="10" width="148" x="125" y="3883"/>
<text x="199" y="3899">
\p{White_Space}+</text>
</g>
<path d=" M 283 3894 h 5 a 5 5 0 0 1 5 -5 a 5 5 0 0 1 5 5 a 5 5 0 0 1 -5 5 a 5 5 0 0 1 -5 -5"/>
<path d=" M 25 3894 h 10"/>
<path d=" M 115 3894 h 10"/>
<path d=" M 273 3894 h 10"/>
</g>
<g class="sequence">
<path d=" M 10 3928 a 5 5 0 0 1 5 -5 a 5 5 0 0 1 5 5 a 5 5 0 0 1 -5 5 a 5 5 0 0 1 -5 -5 m 10 0 h 5"/>
<text class="comment" id="Comment" x="64" y="3933">
Comment</text>
<g class="string">
<rect height="22" rx="10" ry="10" width="100" x="104" y="3917"/>
<text x="154" y="3933">
//[^\n\r]*</text>
</g>
<path d=" M 214 3928 h 5 a 5 5 0 0 1 5 -5 a 5 5 0 0 1 5 5 a 5 5 0 0 1 -5 5 a 5 5 0 0 1 -5 -5"/>
<path d=" M 25 3928 h 10"/>
<path d=" M 94 3928 h 10"/>
<path d=" M 204 3928 h 10"/>
</g>
</g>
</svg>
