<svg class="railroad" viewBox="0 0 1712 4336" xmlns="http://www.w3.org/2000/svg" xmlns:xlink="http://www.w3.org/1999/xlink">
<style type="text/css">svg.railroad{background-color:hsl(30,20%,95%);background-size:15px 15px;background-image:linear-gradient(to right,rgba(30,30,30,.05) 1px,transparent 1px),linear-gradient(to bottom,rgba(30,30,30,.05) 1px,transparent 1px);}svg.railroad path{stroke-width:3px;stroke:black;fill:transparent;}svg.railroad .debug{stroke-width:1px;stroke:red;}svg.railroad text{font-size:14px;font-family:monospace;text-anchor:middle;}svg.railroad .nonterminal text{font-weight:bold;}svg.railroad text.comment{font-family:serif;font-style:italic;font-size:12px;}svg.railroad rect{stroke-width:3px;stroke:black;}svg.railroad g.labeledbox>rect{stroke-width:1px;stroke:grey;stroke-dasharray:5px;fill:rgba(90,90,150,.1);}svg.railroad .symbol>rect{fill:rgba(90,90,150,.1);}svg.railroad .regex>rect{fill:honeydew;}svg.railroad .string>rect{fill:cornsilk;}svg.railroad .character>rect{fill:lightcoral;}</style>
<g class="verticalgrid">
<g class="sequence">
<path d=" M 10 21 a 5 5 0 0 1 5 -5 a 5 5 0 0 1 5 5 a 5 5 0 0 1 -5 5 a 5 5 0 0 1 -5 -5 m 10 0 h 5"/>
<text class="comment" id="Root" x="54" y="26">
Root</text>
<g class="sequence">
<g class="repeat">
<path d=" M 83 21 h 12 m 154 0 h 12 m -12 0 a 12 12 0 0 1 12 12 v 7 a 12 12 0 0 1 -12 12 m -52 0 h -102 m 54 0 l 5 -5 m 0 10 l -5 -5 m -54 0 a 12 12 0 0 1 -12 -12 v -7 a 12 12 0 0 1 12 -12"/>
<text class="comment" x="223" y="57">
[0, ∞]</text>
<g class="sequence">
<g class="character">
<rect height="22" rx="10" ry="10" width="52" x="95" y="10"/>
<text x="121" y="26">
HIDE</text>
</g>
<a class="link" xlink:href="#Statement">
<g class="symbol">
<rect height="22" width="92" x="157" y="10"/>
<text x="203" y="26">
Statement</text>
</g>
</a>
<path d=" M 147 21 h 10"/>
</g>
</g>
<g class="character">
<rect height="22" rx="10" ry="10" width="52" x="271" y="10"/>
<text x="297" y="26">
HIDE</text>
</g>
<g class="character">
<rect height="22" rx="10" ry="10" width="116" x="333" y="10"/>
<text x="391" y="26">
END_OF_INPUT</text>
</g>
<path d=" M 261 21 h 10"/>
<path d=" M 323 21 h 10"/>
</g>
<path d=" M 459 21 h 5 a 5 5 0 0 1 5 -5 a 5 5 0 0 1 5 5 a 5 5 0 0 1 -5 5 a 5 5 0 0 1 -5 -5"/>
<path d=" M 25 21 h 10"/>
<path d=" M 73 21 h 10"/>
<path d=" M 449 21 h 10"/>
</g>
<g class="sequence">
<path d=" M 10 85 a 5 5 0 0 1 5 -5 a 5 5 0 0 1 5 5 a 5 5 0 0 1 -5 5 a 5 5 0 0 1 -5 -5 m 10 0 h 5"/>
<text class="comment" id="Statement" x="71" y="90">
Statement</text>
<g class="choice">
<path d=" M 118 85 h 24 m 148 0 h 24"/>
<a class="link" xlink:href="#GrammarStatement">
<g class="symbol">
<rect height="22" width="148" x="142" y="74"/>
<text x="216" y="90">
GrammarStatement</text>
</g>
</a>
<path d=" M 118 85 a 12 12 0 0 1 12 12 v 9 m 172 0 v -9 a 12 12 0 0 1 12 -12"/>
<path d=" M 130 106 v 33 m 172 0 v -33"/>
<path d=" M 130 139 v 33 m 172 0 v -33"/>
<path d=" M 130 106 v 0 a 12 12 0 0 0 12 12 m 132 0 h 16 a 12 12 0 0 0 12 -12 v 0"/>
<a class="link" xlink:href="#ClassStatement">
<g class="symbol">
<rect height="22" width="132" x="142" y="107"/>
<text x="208" y="123">
ClassStatement</text>
</g>
</a>
<path d=" M 130 139 v 0 a 12 12 0 0 0 12 12 m 132 0 h 16 a 12 12 0 0 0 12 -12 v 0"/>
<a class="link" xlink:href="#UnionStatement">
<g class="symbol">
<rect height="22" width="132" x="142" y="140"/>
<text x="208" y="156">
UnionStatement</text>
</g>
</a>
<path d=" M 130 172 v 0 a 12 12 0 0 0 12 12 m 132 0 h 16 a 12 12 0 0 0 12 -12 v 0"/>
<a class="link" xlink:href="#GroupStatement">
<g class="symbol">
<rect height="22" width="132" x="142" y="173"/>
<text x="208" y="189">
GroupStatement</text>
</g>
</a>
</g>
<path d=" M 324 85 h 5 a 5 5 0 0 1 5 -5 a 5 5 0 0 1 5 5 a 5 5 0 0 1 -5 5 a 5 5 0 0 1 -5 -5"/>
<path d=" M 25 85 h 10"/>
<path d=" M 108 85 h 10"/>
<path d=" M 314 85 h 10"/>
</g>
<g class="sequence">
<path d=" M 10 218 a 5 5 0 0 1 5 -5 a 5 5 0 0 1 5 5 a 5 5 0 0 1 -5 5 a 5 5 0 0 1 -5 -5 m 10 0 h 5"/>
<text class="comment" id="GrammarStatement" x="96" y="223">
GrammarStatement</text>
<g class="sequence">
<a class="link" xlink:href="#KW_GRAMMAR">
<g class="symbol">
<rect height="22" width="100" x="167" y="207"/>
<text x="217" y="223">
KW_GRAMMAR</text>
</g>
</a>
<g class="character">
<rect height="22" rx="10" ry="10" width="52" x="277" y="207"/>
<text x="303" y="223">
HIDE</text>
</g>
<a class="link" xlink:href="#Identifier">
<g class="symbol">
<rect height="22" width="100" x="339" y="207"/>
<text x="389" y="223">
Identifier</text>
</g>
</a>
<g class="character">
<rect height="22" rx="10" ry="10" width="52" x="449" y="207"/>
<text x="475" y="223">
HIDE</text>
</g>
<a class="link" xlink:href="#GrammarDict">
<g class="symbol">
<rect height="22" width="108" x="511" y="207"/>
<text x="565" y="223">
GrammarDict</text>
</g>
</a>
<path d=" M 267 218 h 10"/>
<path d=" M 329 218 h 10"/>
<path d=" M 439 218 h 10"/>
<path d=" M 501 218 h 10"/>
</g>
<path d=" M 629 218 h 5 a 5 5 0 0 1 5 -5 a 5 5 0 0 1 5 5 a 5 5 0 0 1 -5 5 a 5 5 0 0 1 -5 -5"/>
<path d=" M 25 218 h 10"/>
<path d=" M 157 218 h 10"/>
<path d=" M 619 218 h 10"/>
</g>
<g class="sequence">
<path d=" M 10 252 a 5 5 0 0 1 5 -5 a 5 5 0 0 1 5 5 a 5 5 0 0 1 -5 5 a 5 5 0 0 1 -5 -5 m 10 0 h 5"/>
<text class="comment" id="GrammarTerm1" x="82" y="257">
GrammarTerm1</text>
<g class="string">
<rect height="22" rx="10" ry="10" width="52" x="139" y="241"/>
<text x="165" y="257">
[,;]</text>
</g>
<path d=" M 201 252 h 5 a 5 5 0 0 1 5 -5 a 5 5 0 0 1 5 5 a 5 5 0 0 1 -5 5 a 5 5 0 0 1 -5 -5"/>
<path d=" M 25 252 h 10"/>
<path d=" M 129 252 h 10"/>
<path d=" M 191 252 h 10"/>
</g>
<g class="sequence">
<path d=" M 10 286 a 5 5 0 0 1 5 -5 a 5 5 0 0 1 5 5 a 5 5 0 0 1 -5 5 a 5 5 0 0 1 -5 -5 m 10 0 h 5"/>
<text class="comment" id="GrammarTerm" x="78" y="291">
GrammarTerm</text>
<g class="choice">
<path d=" M 132 286 h 24 m 108 0 h 32"/>
<a class="link" xlink:href="#GrammarPair">
<g class="symbol">
<rect height="22" width="108" x="156" y="275"/>
<text x="210" y="291">
GrammarPair</text>
</g>
</a>
<path d=" M 132 286 a 12 12 0 0 1 12 12 v 9 m 140 0 v -9 a 12 12 0 0 1 12 -12"/>
<path d=" M 144 307 v 0 a 12 12 0 0 0 12 12 m 116 0 h 0 a 12 12 0 0 0 12 -12 v 0"/>
<a class="link" xlink:href="#GrammarTerm1">
<g class="symbol">
<rect height="22" width="116" x="156" y="308"/>
<text x="214" y="324">
GrammarTerm1</text>
</g>
</a>
</g>
<path d=" M 306 286 h 5 a 5 5 0 0 1 5 -5 a 5 5 0 0 1 5 5 a 5 5 0 0 1 -5 5 a 5 5 0 0 1 -5 -5"/>
<path d=" M 25 286 h 10"/>
<path d=" M 122 286 h 10"/>
<path d=" M 296 286 h 10"/>
</g>
<g class="sequence">
<path d=" M 10 353 a 5 5 0 0 1 5 -5 a 5 5 0 0 1 5 5 a 5 5 0 0 1 -5 5 a 5 5 0 0 1 -5 -5 m 10 0 h 5"/>
<text class="comment" id="GrammarPair" x="78" y="358">
GrammarPair</text>
<g class="sequence">
<a class="link" xlink:href="#Identifier">
<g class="symbol">
<rect height="22" width="100" x="132" y="342"/>
<text x="182" y="358">
Identifier</text>
</g>
</a>
<g class="character">
<rect height="22" rx="10" ry="10" width="52" x="242" y="342"/>
<text x="268" y="358">
HIDE</text>
</g>
<g class="string">
<rect height="22" rx="10" ry="10" width="28" x="304" y="342"/>
<text x="318" y="358">
:</text>
</g>
<g class="character">
<rect height="22" rx="10" ry="10" width="52" x="342" y="342"/>
<text x="368" y="358">
HIDE</text>
</g>
<a class="link" xlink:href="#GrammarValue">
<g class="symbol">
<rect height="22" width="116" x="404" y="342"/>
<text x="462" y="358">
GrammarValue</text>
</g>
</a>
<path d=" M 232 353 h 10"/>
<path d=" M 294 353 h 10"/>
<path d=" M 332 353 h 10"/>
<path d=" M 394 353 h 10"/>
</g>
<path d=" M 530 353 h 5 a 5 5 0 0 1 5 -5 a 5 5 0 0 1 5 5 a 5 5 0 0 1 -5 5 a 5 5 0 0 1 -5 -5"/>
<path d=" M 25 353 h 10"/>
<path d=" M 122 353 h 10"/>
<path d=" M 520 353 h 10"/>
</g>
<g class="sequence">
<path d=" M 10 387 a 5 5 0 0 1 5 -5 a 5 5 0 0 1 5 5 a 5 5 0 0 1 -5 5 a 5 5 0 0 1 -5 -5 m 10 0 h 5"/>
<text class="comment" id="GrammarValue" x="82" y="392">
GrammarValue</text>
<g class="choice">
<path d=" M 139 387 h 24 m 108 0 h 32"/>
<a class="link" xlink:href="#GrammarDict">
<g class="symbol">
<rect height="22" width="108" x="163" y="376"/>
<text x="217" y="392">
GrammarDict</text>
</g>
</a>
<path d=" M 139 387 a 12 12 0 0 1 12 12 v 9 m 140 0 v -9 a 12 12 0 0 1 12 -12"/>
<path d=" M 151 408 v 33 m 140 0 v -33"/>
<path d=" M 151 441 v 33 m 140 0 v -33"/>
<path d=" M 151 474 v 33 m 140 0 v -33"/>
<path d=" M 151 408 v 0 a 12 12 0 0 0 12 12 m 108 0 h 8 a 12 12 0 0 0 12 -12 v 0"/>
<a class="link" xlink:href="#GrammarList">
<g class="symbol">
<rect height="22" width="108" x="163" y="409"/>
<text x="217" y="425">
GrammarList</text>
</g>
</a>
<path d=" M 151 441 v 0 a 12 12 0 0 0 12 12 m 84 0 h 32 a 12 12 0 0 0 12 -12 v 0"/>
<a class="link" xlink:href="#Namepath">
<g class="symbol">
<rect height="22" width="84" x="163" y="442"/>
<text x="205" y="458">
Namepath</text>
</g>
</a>
<path d=" M 151 474 v 0 a 12 12 0 0 0 12 12 m 92 0 h 24 a 12 12 0 0 0 12 -12 v 0"/>
<a class="link" xlink:href="#StringRaw">
<g class="symbol">
<rect height="22" width="92" x="163" y="475"/>
<text x="209" y="491">
StringRaw</text>
</g>
</a>
<path d=" M 151 507 v 0 a 12 12 0 0 0 12 12 m 116 0 h 0 a 12 12 0 0 0 12 -12 v 0"/>
<a class="link" xlink:href="#StringNormal">
<g class="symbol">
<rect height="22" width="116" x="163" y="508"/>
<text x="221" y="524">
StringNormal</text>
</g>
</a>
</g>
<path d=" M 313 387 h 5 a 5 5 0 0 1 5 -5 a 5 5 0 0 1 5 5 a 5 5 0 0 1 -5 5 a 5 5 0 0 1 -5 -5"/>
<path d=" M 25 387 h 10"/>
<path d=" M 129 387 h 10"/>
<path d=" M 303 387 h 10"/>
</g>
<g class="sequence">
<path d=" M 10 553 a 5 5 0 0 1 5 -5 a 5 5 0 0 1 5 5 a 5 5 0 0 1 -5 5 a 5 5 0 0 1 -5 -5 m 10 0 h 5"/>
<text class="comment" id="GrammarDict" x="78" y="558">
GrammarDict</text>
<g class="sequence">
<g class="string">
<rect height="22" rx="10" ry="10" width="28" x="132" y="542"/>
<text x="146" y="558">
{</text>
</g>
<g class="character">
<rect height="22" rx="10" ry="10" width="52" x="170" y="542"/>
<text x="196" y="558">
HIDE</text>
</g>
<g class="repeat">
<path d=" M 232 553 h 12 m 170 0 h 12 m -12 0 a 12 12 0 0 1 12 12 v 7 a 12 12 0 0 1 -12 12 m -52 0 h -118 m 62 0 l 5 -5 m 0 10 l -5 -5 m -62 0 a 12 12 0 0 1 -12 -12 v -7 a 12 12 0 0 1 12 -12"/>
<text class="comment" x="388" y="589">
[0, ∞]</text>
<g class="sequence">
<g class="character">
<rect height="22" rx="10" ry="10" width="52" x="244" y="542"/>
<text x="270" y="558">
HIDE</text>
</g>
<a class="link" xlink:href="#GrammarTerm">
<g class="symbol">
<rect height="22" width="108" x="306" y="542"/>
<text x="360" y="558">
GrammarTerm</text>
</g>
</a>
<path d=" M 296 553 h 10"/>
</g>
</g>
<g class="character">
<rect height="22" rx="10" ry="10" width="52" x="436" y="542"/>
<text x="462" y="558">
HIDE</text>
</g>
<g class="string">
<rect height="22" rx="10" ry="10" width="28" x="498" y="542"/>
<text x="512" y="558">
}</text>
</g>
<path d=" M 160 553 h 10"/>
<path d=" M 222 553 h 10"/>
<path d=" M 426 553 h 10"/>
<path d=" M 488 553 h 10"/>
</g>
<path d=" M 536 553 h 5 a 5 5 0 0 1 5 -5 a 5 5 0 0 1 5 5 a 5 5 0 0 1 -5 5 a 5 5 0 0 1 -5 -5"/>
<path d=" M 25 553 h 10"/>
<path d=" M 122 553 h 10"/>
<path d=" M 526 553 h 10"/>
</g>
<g class="sequence">
<path d=" M 10 642 a 5 5 0 0 1 5 -5 a 5 5 0 0 1 5 5 a 5 5 0 0 1 -5 5 a 5 5 0 0 1 -5 -5 m 10 0 h 5"/>
<text class="comment" id="GrammarList" x="78" y="647">
GrammarList</text>
<g class="choice">
<path d=" M 132 642 h 24 m 886 0 h 24"/>
<g class="sequence">
<g class="string">
<rect height="22" rx="10" ry="10" width="28" x="156" y="631"/>
<text x="170" y="647">
(</text>
</g>
<g class="character">
<rect height="22" rx="10" ry="10" width="52" x="194" y="631"/>
<text x="220" y="647">
HIDE</text>
</g>
<g class="optional">
<path d=" M 256 642 h 24 m -24 0 a 12 12 0 0 0 12 -12 v -12 a 12 12 0 0 1 12 -12 h 638 m -316 0 l -5 -5 m 0 10 l 5 -5 m 316 0 a 12 12 0 0 1 12 12 v 12 a 12 12 0 0 0 12 12 h -24"/>
<g class="sequence">
<a class="link" xlink:href="#GrammarValue">
<g class="symbol">
<rect height="22" width="116" x="280" y="631"/>
<text x="338" y="647">
GrammarValue</text>
</g>
</a>
<g class="character">
<rect height="22" rx="10" ry="10" width="52" x="406" y="631"/>
<text x="432" y="647">
HIDE</text>
</g>
<g class="repeat">
<path d=" M 468 642 h 12 m 278 0 h 12 m -12 0 a 12 12 0 0 1 12 12 v 7 a 12 12 0 0 1 -12 12 m -52 0 h -226 m 116 0 l 5 -5 m 0 10 l -5 -5 m -116 0 a 12 12 0 0 1 -12 -12 v -7 a 12 12 0 0 1 12 -12"/>
<text class="comment" x="732" y="678">
[0, ∞]</text>
<g class="sequence">
<g class="character">
<rect height="22" rx="10" ry="10" width="52" x="480" y="631"/>
<text x="506" y="647">
HIDE</text>
</g>
<g class="sequence">
<g class="string">
<rect height="22" rx="10" ry="10" width="28" x="542" y="631"/>
<text x="556" y="647">
,</text>
</g>
<g class="character">
<rect height="22" rx="10" ry="10" width="52" x="580" y="631"/>
<text x="606" y="647">
HIDE</text>
</g>
<a class="link" xlink:href="#GrammarValue">
<g class="symbol">
<rect height="22" width="116" x="642" y="631"/>
<text x="700" y="647">
GrammarValue</text>
</g>
</a>
<path d=" M 570 642 h 10"/>
<path d=" M 632 642 h 10"/>
</g>
<path d=" M 532 642 h 10"/>
</g>
</g>
<g class="character">
<rect height="22" rx="10" ry="10" width="52" x="780" y="631"/>
<text x="806" y="647">
HIDE</text>
</g>
<g class="optional">
<path d=" M 842 642 h 24 m -24 0 a 12 12 0 0 0 12 -12 v 0 a 12 12 0 0 1 12 -12 h 28 a 12 12 0 0 1 12 12 v 0 a 12 12 0 0 0 12 12 h -24"/>
<g class="string">
<rect height="22" rx="10" ry="10" width="28" x="866" y="631"/>
<text x="880" y="647">
,</text>
</g>
</g>
<path d=" M 396 642 h 10"/>
<path d=" M 458 642 h 10"/>
<path d=" M 770 642 h 10"/>
<path d=" M 832 642 h 10"/>
</g>
</g>
<g class="character">
<rect height="22" rx="10" ry="10" width="52" x="952" y="631"/>
<text x="978" y="647">
HIDE</text>
</g>
<g class="string">
<rect height="22" rx="10" ry="10" width="28" x="1014" y="631"/>
<text x="1028" y="647">
)</text>
</g>
<path d=" M 184 642 h 10"/>
<path d=" M 246 642 h 10"/>
<path d=" M 942 642 h 10"/>
<path d=" M 1004 642 h 10"/>
</g>
<path d=" M 132 642 a 12 12 0 0 1 12 12 v 39 m 910 0 v -39 a 12 12 0 0 1 12 -12"/>
<path d=" M 144 693 v 24 a 12 12 0 0 0 12 12 m 886 0 h 0 a 12 12 0 0 0 12 -12 v -24"/>
<g class="sequence">
<g class="string">
<rect height="22" rx="10" ry="10" width="28" x="156" y="718"/>
<text x="170" y="734">
[</text>
</g>
<g class="character">
<rect height="22" rx="10" ry="10" width="52" x="194" y="718"/>
<text x="220" y="734">
HIDE</text>
</g>
<g class="optional">
<path d=" M 256 729 h 24 m -24 0 a 12 12 0 0 0 12 -12 v -12 a 12 12 0 0 1 12 -12 h 638 m -316 0 l -5 -5 m 0 10 l 5 -5 m 316 0 a 12 12 0 0 1 12 12 v 12 a 12 12 0 0 0 12 12 h -24"/>
<g class="sequence">
<a class="link" xlink:href="#GrammarValue">
<g class="symbol">
<rect height="22" width="116" x="280" y="718"/>
<text x="338" y="734">
GrammarValue</text>
</g>
</a>
<g class="character">
<rect height="22" rx="10" ry="10" width="52" x="406" y="718"/>
<text x="432" y="734">
HIDE</text>
</g>
<g class="repeat">
<path d=" M 468 729 h 12 m 278 0 h 12 m -12 0 a 12 12 0 0 1 12 12 v 7 a 12 12 0 0 1 -12 12 m -52 0 h -226 m 116 0 l 5 -5 m 0 10 l -5 -5 m -116 0 a 12 12 0 0 1 -12 -12 v -7 a 12 12 0 0 1 12 -12"/>
<text class="comment" x="732" y="765">
[0, ∞]</text>
<g class="sequence">
<g class="character">
<rect height="22" rx="10" ry="10" width="52" x="480" y="718"/>
<text x="506" y="734">
HIDE</text>
</g>
<g class="sequence">
<g class="string">
<rect height="22" rx="10" ry="10" width="28" x="542" y="718"/>
<text x="556" y="734">
,</text>
</g>
<g class="character">
<rect height="22" rx="10" ry="10" width="52" x="580" y="718"/>
<text x="606" y="734">
HIDE</text>
</g>
<a class="link" xlink:href="#GrammarValue">
<g class="symbol">
<rect height="22" width="116" x="642" y="718"/>
<text x="700" y="734">
GrammarValue</text>
</g>
</a>
<path d=" M 570 729 h 10"/>
<path d=" M 632 729 h 10"/>
</g>
<path d=" M 532 729 h 10"/>
</g>
</g>
<g class="character">
<rect height="22" rx="10" ry="10" width="52" x="780" y="718"/>
<text x="806" y="734">
HIDE</text>
</g>
<g class="optional">
<path d=" M 842 729 h 24 m -24 0 a 12 12 0 0 0 12 -12 v 0 a 12 12 0 0 1 12 -12 h 28 a 12 12 0 0 1 12 12 v 0 a 12 12 0 0 0 12 12 h -24"/>
<g class="string">
<rect height="22" rx="10" ry="10" width="28" x="866" y="718"/>
<text x="880" y="734">
,</text>
</g>
</g>
<path d=" M 396 729 h 10"/>
<path d=" M 458 729 h 10"/>
<path d=" M 770 729 h 10"/>
<path d=" M 832 729 h 10"/>
</g>
</g>
<g class="character">
<rect height="22" rx="10" ry="10" width="52" x="952" y="718"/>
<text x="978" y="734">
HIDE</text>
</g>
<g class="string">
<rect height="22" rx="10" ry="10" width="28" x="1014" y="718"/>
<text x="1028" y="734">
]</text>
</g>
<path d=" M 184 729 h 10"/>
<path d=" M 246 729 h 10"/>
<path d=" M 942 729 h 10"/>
<path d=" M 1004 729 h 10"/>
</g>
</g>
<path d=" M 1076 642 h 5 a 5 5 0 0 1 5 -5 a 5 5 0 0 1 5 5 a 5 5 0 0 1 -5 5 a 5 5 0 0 1 -5 -5"/>
<path d=" M 25 642 h 10"/>
<path d=" M 122 642 h 10"/>
<path d=" M 1066 642 h 10"/>
</g>
<g class="sequence">
<path d=" M 10 806 a 5 5 0 0 1 5 -5 a 5 5 0 0 1 5 5 a 5 5 0 0 1 -5 5 a 5 5 0 0 1 -5 -5 m 10 0 h 5"/>
<text class="comment" id="GrammarListTerms" x="96" y="811">
GrammarListTerms</text>
<g class="sequence">
<a class="link" xlink:href="#GrammarValue">
<g class="symbol">
<rect height="22" width="116" x="167" y="795"/>
<text x="225" y="811">
GrammarValue</text>
</g>
</a>
<g class="character">
<rect height="22" rx="10" ry="10" width="52" x="293" y="795"/>
<text x="319" y="811">
HIDE</text>
</g>
<g class="repeat">
<path d=" M 355 806 h 12 m 278 0 h 12 m -12 0 a 12 12 0 0 1 12 12 v 7 a 12 12 0 0 1 -12 12 m -52 0 h -226 m 116 0 l 5 -5 m 0 10 l -5 -5 m -116 0 a 12 12 0 0 1 -12 -12 v -7 a 12 12 0 0 1 12 -12"/>
<text class="comment" x="619" y="842">
[0, ∞]</text>
<g class="sequence">
<g class="character">
<rect height="22" rx="10" ry="10" width="52" x="367" y="795"/>
<text x="393" y="811">
HIDE</text>
</g>
<g class="sequence">
<g class="string">
<rect height="22" rx="10" ry="10" width="28" x="429" y="795"/>
<text x="443" y="811">
,</text>
</g>
<g class="character">
<rect height="22" rx="10" ry="10" width="52" x="467" y="795"/>
<text x="493" y="811">
HIDE</text>
</g>
<a class="link" xlink:href="#GrammarValue">
<g class="symbol">
<rect height="22" width="116" x="529" y="795"/>
<text x="587" y="811">
GrammarValue</text>
</g>
</a>
<path d=" M 457 806 h 10"/>
<path d=" M 519 806 h 10"/>
</g>
<path d=" M 419 806 h 10"/>
</g>
</g>
<g class="character">
<rect height="22" rx="10" ry="10" width="52" x="667" y="795"/>
<text x="693" y="811">
HIDE</text>
</g>
<g class="optional">
<path d=" M 729 806 h 24 m -24 0 a 12 12 0 0 0 12 -12 v 0 a 12 12 0 0 1 12 -12 h 28 a 12 12 0 0 1 12 12 v 0 a 12 12 0 0 0 12 12 h -24"/>
<g class="string">
<rect height="22" rx="10" ry="10" width="28" x="753" y="795"/>
<text x="767" y="811">
,</text>
</g>
</g>
<path d=" M 283 806 h 10"/>
<path d=" M 345 806 h 10"/>
<path d=" M 657 806 h 10"/>
<path d=" M 719 806 h 10"/>
</g>
<path d=" M 815 806 h 5 a 5 5 0 0 1 5 -5 a 5 5 0 0 1 5 5 a 5 5 0 0 1 -5 5 a 5 5 0 0 1 -5 -5"/>
<path d=" M 25 806 h 10"/>
<path d=" M 157 806 h 10"/>
<path d=" M 805 806 h 10"/>
</g>
<g class="sequence">
<path d=" M 10 883 a 5 5 0 0 1 5 -5 a 5 5 0 0 1 5 5 a 5 5 0 0 1 -5 5 a 5 5 0 0 1 -5 -5 m 10 0 h 5"/>
<text class="comment" id="ClassStatement" x="89" y="888">
ClassStatement</text>
<g class="sequence">
<g class="sequence">
<g class="repeat">
<path d=" M 153 883 h 12 m 186 0 h 12 m -12 0 a 12 12 0 0 1 12 12 v 7 a 12 12 0 0 1 -12 12 m -52 0 h -134 m 70 0 l 5 -5 m 0 10 l -5 -5 m -70 0 a 12 12 0 0 1 -12 -12 v -7 a 12 12 0 0 1 12 -12"/>
<text class="comment" x="325" y="919">
[0, ∞]</text>
<g class="sequence">
<g class="character">
<rect height="22" rx="10" ry="10" width="52" x="165" y="872"/>
<text x="191" y="888">
HIDE</text>
</g>
<a class="link" xlink:href="#DecoratorCall">
<g class="symbol">
<rect height="22" width="124" x="227" y="872"/>
<text x="289" y="888">
DecoratorCall</text>
</g>
</a>
<path d=" M 217 883 h 10"/>
</g>
</g>
<g class="character">
<rect height="22" rx="10" ry="10" width="52" x="373" y="872"/>
<text x="399" y="888">
HIDE</text>
</g>
<g class="repeat">
<path d=" M 435 883 h 12 m 178 0 h 12 m -12 0 a 12 12 0 0 1 12 12 v 7 a 12 12 0 0 1 -12 12 m -52 0 h -126 m 66 0 l 5 -5 m 0 10 l -5 -5 m -66 0 a 12 12 0 0 1 -12 -12 v -7 a 12 12 0 0 1 12 -12"/>
<text class="comment" x="599" y="919">
[0, ∞]</text>
<g class="sequence">
<g class="character">
<rect height="22" rx="10" ry="10" width="52" x="447" y="872"/>
<text x="473" y="888">
HIDE</text>
</g>
<a class="link" xlink:href="#ModifierCall">
<g class="symbol">
<rect height="22" width="116" x="509" y="872"/>
<text x="567" y="888">
ModifierCall</text>
</g>
</a>
<path d=" M 499 883 h 10"/>
</g>
</g>
<g class="character">
<rect height="22" rx="10" ry="10" width="52" x="647" y="872"/>
<text x="673" y="888">
HIDE</text>
</g>
<a class="link" xlink:href="#KW_CLASS">
<g class="symbol">
<rect height="22" width="84" x="709" y="872"/>
<text x="751" y="888">
KW_CLASS</text>
</g>
</a>
<g class="character">
<rect height="22" rx="10" ry="10" width="52" x="803" y="872"/>
<text x="829" y="888">
HIDE</text>
</g>
<path d=" M 363 883 h 10"/>
<path d=" M 425 883 h 10"/>
<path d=" M 637 883 h 10"/>
<path d=" M 699 883 h 10"/>
<path d=" M 793 883 h 10"/>
</g>
<a class="link" xlink:href="#Identifier">
<g class="symbol">
<rect height="22" width="100" x="865" y="872"/>
<text x="915" y="888">
Identifier</text>
</g>
</a>
<g class="character">
<rect height="22" rx="10" ry="10" width="52" x="975" y="872"/>
<text x="1001" y="888">
HIDE</text>
</g>
<g class="optional">
<path d=" M 1037 883 h 24 m -24 0 a 12 12 0 0 0 12 -12 v 0 a 12 12 0 0 1 12 -12 h 208 m -101 0 l -5 -5 m 0 10 l 5 -5 m 101 0 a 12 12 0 0 1 12 12 v 0 a 12 12 0 0 0 12 12 h -24"/>
<g class="sequence">
<g class="sequence">
<g class="string">
<rect height="22" rx="10" ry="10" width="36" x="1061" y="872"/>
<text x="1079" y="888">
-&gt;</text>
</g>
<g class="character">
<rect height="22" rx="10" ry="10" width="52" x="1107" y="872"/>
<text x="1133" y="888">
HIDE</text>
</g>
<path d=" M 1097 883 h 10"/>
</g>
<a class="link" xlink:href="#Identifier">
<g class="symbol">
<rect height="22" width="100" x="1169" y="872"/>
<text x="1219" y="888">
Identifier</text>
</g>
</a>
<path d=" M 1159 883 h 10"/>
</g>
</g>
<g class="character">
<rect height="22" rx="10" ry="10" width="52" x="1303" y="872"/>
<text x="1329" y="888">
HIDE</text>
</g>
<g class="optional">
<path d=" M 1365 883 h 24 m -24 0 a 12 12 0 0 0 12 -12 v 0 a 12 12 0 0 1 12 -12 h 92 m -43 0 l -5 -5 m 0 10 l 5 -5 m 43 0 a 12 12 0 0 1 12 12 v 0 a 12 12 0 0 0 12 12 h -24"/>
<a class="link" xlink:href="#OP_REMARK">
<g class="symbol">
<rect height="22" width="92" x="1389" y="872"/>
<text x="1435" y="888">
OP_REMARK</text>
</g>
</a>
</g>
<g class="character">
<rect height="22" rx="10" ry="10" width="52" x="1515" y="872"/>
<text x="1541" y="888">
HIDE</text>
</g>
<a class="link" xlink:href="#ClassBlock">
<g class="symbol">
<rect height="22" width="100" x="1577" y="872"/>
<text x="1627" y="888">
ClassBlock</text>
</g>
</a>
<path d=" M 855 883 h 10"/>
<path d=" M 965 883 h 10"/>
<path d=" M 1027 883 h 10"/>
<path d=" M 1293 883 h 10"/>
<path d=" M 1355 883 h 10"/>
<path d=" M 1505 883 h 10"/>
<path d=" M 1567 883 h 10"/>
</g>
<path d=" M 1687 883 h 5 a 5 5 0 0 1 5 -5 a 5 5 0 0 1 5 5 a 5 5 0 0 1 -5 5 a 5 5 0 0 1 -5 -5"/>
<path d=" M 25 883 h 10"/>
<path d=" M 143 883 h 10"/>
<path d=" M 1677 883 h 10"/>
</g>
<g class="sequence">
<path d=" M 10 960 a 5 5 0 0 1 5 -5 a 5 5 0 0 1 5 5 a 5 5 0 0 1 -5 5 a 5 5 0 0 1 -5 -5 m 10 0 h 5"/>
<text class="comment" id="ClassBlock" x="75" y="965">
ClassBlock</text>
<g class="sequence">
<g class="string">
<rect height="22" rx="10" ry="10" width="28" x="125" y="949"/>
<text x="139" y="965">
{</text>
</g>
<g class="character">
<rect height="22" rx="10" ry="10" width="52" x="163" y="949"/>
<text x="189" y="965">
HIDE</text>
</g>
<g class="optional">
<path d=" M 225 960 h 24 m -24 0 a 12 12 0 0 0 12 -12 v 0 a 12 12 0 0 1 12 -12 h 28 a 12 12 0 0 1 12 12 v 0 a 12 12 0 0 0 12 12 h -24"/>
<g class="string">
<rect height="22" rx="10" ry="10" width="28" x="249" y="949"/>
<text x="263" y="965">
|</text>
</g>
</g>
<g class="character">
<rect height="22" rx="10" ry="10" width="52" x="311" y="949"/>
<text x="337" y="965">
HIDE</text>
</g>
<a class="link" xlink:href="#Expression">
<g class="symbol">
<rect height="22" width="100" x="373" y="949"/>
<text x="423" y="965">
Expression</text>
</g>
</a>
<g class="character">
<rect height="22" rx="10" ry="10" width="52" x="483" y="949"/>
<text x="509" y="965">
HIDE</text>
</g>
<g class="string">
<rect height="22" rx="10" ry="10" width="28" x="545" y="949"/>
<text x="559" y="965">
}</text>
</g>
<path d=" M 153 960 h 10"/>
<path d=" M 215 960 h 10"/>
<path d=" M 301 960 h 10"/>
<path d=" M 363 960 h 10"/>
<path d=" M 473 960 h 10"/>
<path d=" M 535 960 h 10"/>
</g>
<path d=" M 583 960 h 5 a 5 5 0 0 1 5 -5 a 5 5 0 0 1 5 5 a 5 5 0 0 1 -5 5 a 5 5 0 0 1 -5 -5"/>
<path d=" M 25 960 h 10"/>
<path d=" M 115 960 h 10"/>
<path d=" M 573 960 h 10"/>
</g>
<g class="sequence">
<path d=" M 10 994 a 5 5 0 0 1 5 -5 a 5 5 0 0 1 5 5 a 5 5 0 0 1 -5 5 a 5 5 0 0 1 -5 -5 m 10 0 h 5"/>
<text class="comment" id="OP_REMARK" x="71" y="999">
OP_REMARK</text>
<g class="string">
<rect height="22" rx="10" ry="10" width="28" x="118" y="983"/>
<text x="132" y="999">
^</text>
</g>
<path d=" M 156 994 h 5 a 5 5 0 0 1 5 -5 a 5 5 0 0 1 5 5 a 5 5 0 0 1 -5 5 a 5 5 0 0 1 -5 -5"/>
<path d=" M 25 994 h 10"/>
<path d=" M 108 994 h 10"/>
<path d=" M 146 994 h 10"/>
</g>
<g class="sequence">
<path d=" M 10 1041 a 5 5 0 0 1 5 -5 a 5 5 0 0 1 5 5 a 5 5 0 0 1 -5 5 a 5 5 0 0 1 -5 -5 m 10 0 h 5"/>
<text class="comment" id="UnionStatement" x="89" y="1046">
UnionStatement</text>
<g class="sequence">
<g class="sequence">
<g class="repeat">
<path d=" M 153 1041 h 12 m 186 0 h 12 m -12 0 a 12 12 0 0 1 12 12 v 7 a 12 12 0 0 1 -12 12 m -52 0 h -134 m 70 0 l 5 -5 m 0 10 l -5 -5 m -70 0 a 12 12 0 0 1 -12 -12 v -7 a 12 12 0 0 1 12 -12"/>
<text class="comment" x="325" y="1077">
[0, ∞]</text>
<g class="sequence">
<g class="character">
<rect height="22" rx="10" ry="10" width="52" x="165" y="1030"/>
<text x="191" y="1046">
HIDE</text>
</g>
<a class="link" xlink:href="#DecoratorCall">
<g class="symbol">
<rect height="22" width="124" x="227" y="1030"/>
<text x="289" y="1046">
DecoratorCall</text>
</g>
</a>
<path d=" M 217 1041 h 10"/>
</g>
</g>
<g class="character">
<rect height="22" rx="10" ry="10" width="52" x="373" y="1030"/>
<text x="399" y="1046">
HIDE</text>
</g>
<g class="repeat">
<path d=" M 435 1041 h 12 m 178 0 h 12 m -12 0 a 12 12 0 0 1 12 12 v 7 a 12 12 0 0 1 -12 12 m -52 0 h -126 m 66 0 l 5 -5 m 0 10 l -5 -5 m -66 0 a 12 12 0 0 1 -12 -12 v -7 a 12 12 0 0 1 12 -12"/>
<text class="comment" x="599" y="1077">
[0, ∞]</text>
<g class="sequence">
<g class="character">
<rect height="22" rx="10" ry="10" width="52" x="447" y="1030"/>
<text x="473" y="1046">
HIDE</text>
</g>
<a class="link" xlink:href="#ModifierCall">
<g class="symbol">
<rect height="22" width="116" x="509" y="1030"/>
<text x="567" y="1046">
ModifierCall</text>
</g>
</a>
<path d=" M 499 1041 h 10"/>
</g>
</g>
<g class="character">
<rect height="22" rx="10" ry="10" width="52" x="647" y="1030"/>
<text x="673" y="1046">
HIDE</text>
</g>
<a class="link" xlink:href="#KW_UNION">
<g class="symbol">
<rect height="22" width="84" x="709" y="1030"/>
<text x="751" y="1046">
KW_UNION</text>
</g>
</a>
<g class="character">
<rect height="22" rx="10" ry="10" width="52" x="803" y="1030"/>
<text x="829" y="1046">
HIDE</text>
</g>
<path d=" M 363 1041 h 10"/>
<path d=" M 425 1041 h 10"/>
<path d=" M 637 1041 h 10"/>
<path d=" M 699 1041 h 10"/>
<path d=" M 793 1041 h 10"/>
</g>
<a class="link" xlink:href="#Identifier">
<g class="symbol">
<rect height="22" width="100" x="865" y="1030"/>
<text x="915" y="1046">
Identifier</text>
</g>
</a>
<g class="character">
<rect height="22" rx="10" ry="10" width="52" x="975" y="1030"/>
<text x="1001" y="1046">
HIDE</text>
</g>
<g class="optional">
<path d=" M 1037 1041 h 24 m -24 0 a 12 12 0 0 0 12 -12 v 0 a 12 12 0 0 1 12 -12 h 92 m -43 0 l -5 -5 m 0 10 l 5 -5 m 43 0 a 12 12 0 0 1 12 12 v 0 a 12 12 0 0 0 12 12 h -24"/>
<a class="link" xlink:href="#OP_REMARK">
<g class="symbol">
<rect height="22" width="92" x="1061" y="1030"/>
<text x="1107" y="1046">
OP_REMARK</text>
</g>
</a>
</g>
<g class="character">
<rect height="22" rx="10" ry="10" width="52" x="1187" y="1030"/>
<text x="1213" y="1046">
HIDE</text>
</g>
<a class="link" xlink:href="#UnionBlock">
<g class="symbol">
<rect height="22" width="100" x="1249" y="1030"/>
<text x="1299" y="1046">
UnionBlock</text>
</g>
</a>
<path d=" M 855 1041 h 10"/>
<path d=" M 965 1041 h 10"/>
<path d=" M 1027 1041 h 10"/>
<path d=" M 1177 1041 h 10"/>
<path d=" M 1239 1041 h 10"/>
</g>
<path d=" M 1359 1041 h 5 a 5 5 0 0 1 5 -5 a 5 5 0 0 1 5 5 a 5 5 0 0 1 -5 5 a 5 5 0 0 1 -5 -5"/>
<path d=" M 25 1041 h 10"/>
<path d=" M 143 1041 h 10"/>
<path d=" M 1349 1041 h 10"/>
</g>
<g class="sequence">
<path d=" M 10 1105 a 5 5 0 0 1 5 -5 a 5 5 0 0 1 5 5 a 5 5 0 0 1 -5 5 a 5 5 0 0 1 -5 -5 m 10 0 h 5"/>
<text class="comment" id="UnionBlock" x="75" y="1110">
UnionBlock</text>
<g class="sequence">
<g class="string">
<rect height="22" rx="10" ry="10" width="28" x="125" y="1094"/>
<text x="139" y="1110">
{</text>
</g>
<g class="character">
<rect height="22" rx="10" ry="10" width="52" x="163" y="1094"/>
<text x="189" y="1110">
HIDE</text>
</g>
<g class="repeat">
<path d=" M 225 1105 h 12 m 170 0 h 12 m -12 0 a 12 12 0 0 1 12 12 v 7 a 12 12 0 0 1 -12 12 m -52 0 h -118 m 62 0 l 5 -5 m 0 10 l -5 -5 m -62 0 a 12 12 0 0 1 -12 -12 v -7 a 12 12 0 0 1 12 -12"/>
<text class="comment" x="381" y="1141">
[0, ∞]</text>
<g class="sequence">
<g class="character">
<rect height="22" rx="10" ry="10" width="52" x="237" y="1094"/>
<text x="263" y="1110">
HIDE</text>
</g>
<a class="link" xlink:href="#UnionBranch">
<g class="symbol">
<rect height="22" width="108" x="299" y="1094"/>
<text x="353" y="1110">
UnionBranch</text>
</g>
</a>
<path d=" M 289 1105 h 10"/>
</g>
</g>
<g class="character">
<rect height="22" rx="10" ry="10" width="52" x="429" y="1094"/>
<text x="455" y="1110">
HIDE</text>
</g>
<g class="string">
<rect height="22" rx="10" ry="10" width="28" x="491" y="1094"/>
<text x="505" y="1110">
}</text>
</g>
<path d=" M 153 1105 h 10"/>
<path d=" M 215 1105 h 10"/>
<path d=" M 419 1105 h 10"/>
<path d=" M 481 1105 h 10"/>
</g>
<path d=" M 529 1105 h 5 a 5 5 0 0 1 5 -5 a 5 5 0 0 1 5 5 a 5 5 0 0 1 -5 5 a 5 5 0 0 1 -5 -5"/>
<path d=" M 25 1105 h 10"/>
<path d=" M 115 1105 h 10"/>
<path d=" M 519 1105 h 10"/>
</g>
<g class="sequence">
<path d=" M 10 1182 a 5 5 0 0 1 5 -5 a 5 5 0 0 1 5 5 a 5 5 0 0 1 -5 5 a 5 5 0 0 1 -5 -5 m 10 0 h 5"/>
<text class="comment" id="UnionBranch" x="78" y="1187">
UnionBranch</text>
<g class="sequence">
<g class="string">
<rect height="22" rx="10" ry="10" width="28" x="132" y="1171"/>
<text x="146" y="1187">
|</text>
</g>
<g class="character">
<rect height="22" rx="10" ry="10" width="52" x="170" y="1171"/>
<text x="196" y="1187">
HIDE</text>
</g>
<a class="link" xlink:href="#ExpressionHard">
<g class="symbol">
<rect height="22" width="132" x="232" y="1171"/>
<text x="298" y="1187">
ExpressionHard</text>
</g>
</a>
<g class="character">
<rect height="22" rx="10" ry="10" width="52" x="374" y="1171"/>
<text x="400" y="1187">
HIDE</text>
</g>
<g class="optional">
<path d=" M 436 1182 h 24 m -24 0 a 12 12 0 0 0 12 -12 v 0 a 12 12 0 0 1 12 -12 h 92 m -43 0 l -5 -5 m 0 10 l 5 -5 m 43 0 a 12 12 0 0 1 12 12 v 0 a 12 12 0 0 0 12 12 h -24"/>
<a class="link" xlink:href="#BranchTag">
<g class="symbol">
<rect height="22" width="92" x="460" y="1171"/>
<text x="506" y="1187">
BranchTag</text>
</g>
</a>
</g>
<path d=" M 160 1182 h 10"/>
<path d=" M 222 1182 h 10"/>
<path d=" M 364 1182 h 10"/>
<path d=" M 426 1182 h 10"/>
</g>
<path d=" M 586 1182 h 5 a 5 5 0 0 1 5 -5 a 5 5 0 0 1 5 5 a 5 5 0 0 1 -5 5 a 5 5 0 0 1 -5 -5"/>
<path d=" M 25 1182 h 10"/>
<path d=" M 122 1182 h 10"/>
<path d=" M 576 1182 h 10"/>
</g>
<g class="sequence">
<path d=" M 10 1229 a 5 5 0 0 1 5 -5 a 5 5 0 0 1 5 5 a 5 5 0 0 1 -5 5 a 5 5 0 0 1 -5 -5 m 10 0 h 5"/>
<text class="comment" id="BranchTag" x="71" y="1234">
BranchTag</text>
<g class="sequence">
<g class="string">
<rect height="22" rx="10" ry="10" width="28" x="118" y="1218"/>
<text x="132" y="1234">
#</text>
</g>
<a class="link" xlink:href="#Identifier">
<g class="symbol">
<rect height="22" width="100" x="156" y="1218"/>
<text x="206" y="1234">
Identifier</text>
</g>
</a>
<g class="optional">
<path d=" M 266 1229 h 24 m -24 0 a 12 12 0 0 0 12 -12 v 0 a 12 12 0 0 1 12 -12 h 164 m -79 0 l -5 -5 m 0 10 l 5 -5 m 79 0 a 12 12 0 0 1 12 12 v 0 a 12 12 0 0 0 12 12 h -24"/>
<a class="link" xlink:href="#RightAssociativity">
<g class="symbol">
<rect height="22" width="164" x="290" y="1218"/>
<text x="372" y="1234">
RightAssociativity</text>
</g>
</a>
</g>
<path d=" M 146 1229 h 10"/>
<path d=" M 256 1229 h 10"/>
</g>
<path d=" M 488 1229 h 5 a 5 5 0 0 1 5 -5 a 5 5 0 0 1 5 5 a 5 5 0 0 1 -5 5 a 5 5 0 0 1 -5 -5"/>
<path d=" M 25 1229 h 10"/>
<path d=" M 108 1229 h 10"/>
<path d=" M 478 1229 h 10"/>
</g>
<g class="sequence">
<path d=" M 10 1263 a 5 5 0 0 1 5 -5 a 5 5 0 0 1 5 5 a 5 5 0 0 1 -5 5 a 5 5 0 0 1 -5 -5 m 10 0 h 5"/>
<text class="comment" id="RightAssociativity" x="103" y="1268">
RightAssociativity</text>
<g class="string">
<rect height="22" rx="10" ry="10" width="28" x="181" y="1252"/>
<text x="195" y="1268">
&gt;</text>
</g>
<path d=" M 219 1263 h 5 a 5 5 0 0 1 5 -5 a 5 5 0 0 1 5 5 a 5 5 0 0 1 -5 5 a 5 5 0 0 1 -5 -5"/>
<path d=" M 25 1263 h 10"/>
<path d=" M 171 1263 h 10"/>
<path d=" M 209 1263 h 10"/>
</g>
<g class="sequence">
<path d=" M 10 1310 a 5 5 0 0 1 5 -5 a 5 5 0 0 1 5 5 a 5 5 0 0 1 -5 5 a 5 5 0 0 1 -5 -5 m 10 0 h 5"/>
<text class="comment" id="GroupStatement" x="89" y="1315">
GroupStatement</text>
<g class="sequence">
<g class="repeat">
<path d=" M 153 1310 h 12 m 186 0 h 12 m -12 0 a 12 12 0 0 1 12 12 v 7 a 12 12 0 0 1 -12 12 m -52 0 h -134 m 70 0 l 5 -5 m 0 10 l -5 -5 m -70 0 a 12 12 0 0 1 -12 -12 v -7 a 12 12 0 0 1 12 -12"/>
<text class="comment" x="325" y="1346">
[0, ∞]</text>
<g class="sequence">
<g class="character">
<rect height="22" rx="10" ry="10" width="52" x="165" y="1299"/>
<text x="191" y="1315">
HIDE</text>
</g>
<a class="link" xlink:href="#DecoratorCall">
<g class="symbol">
<rect height="22" width="124" x="227" y="1299"/>
<text x="289" y="1315">
DecoratorCall</text>
</g>
</a>
<path d=" M 217 1310 h 10"/>
</g>
</g>
<g class="character">
<rect height="22" rx="10" ry="10" width="52" x="373" y="1299"/>
<text x="399" y="1315">
HIDE</text>
</g>
<g class="repeat">
<path d=" M 435 1310 h 12 m 178 0 h 12 m -12 0 a 12 12 0 0 1 12 12 v 7 a 12 12 0 0 1 -12 12 m -52 0 h -126 m 66 0 l 5 -5 m 0 10 l -5 -5 m -66 0 a 12 12 0 0 1 -12 -12 v -7 a 12 12 0 0 1 12 -12"/>
<text class="comment" x="599" y="1346">
[0, ∞]</text>
<g class="sequence">
<g class="character">
<rect height="22" rx="10" ry="10" width="52" x="447" y="1299"/>
<text x="473" y="1315">
HIDE</text>
</g>
<a class="link" xlink:href="#ModifierCall">
<g class="symbol">
<rect height="22" width="116" x="509" y="1299"/>
<text x="567" y="1315">
ModifierCall</text>
</g>
</a>
<path d=" M 499 1310 h 10"/>
</g>
</g>
<g class="character">
<rect height="22" rx="10" ry="10" width="52" x="647" y="1299"/>
<text x="673" y="1315">
HIDE</text>
</g>
<a class="link" xlink:href="#KW_GROUP">
<g class="symbol">
<rect height="22" width="84" x="709" y="1299"/>
<text x="751" y="1315">
KW_GROUP</text>
</g>
</a>
<g class="character">
<rect height="22" rx="10" ry="10" width="52" x="803" y="1299"/>
<text x="829" y="1315">
HIDE</text>
</g>
<g class="optional">
<path d=" M 865 1310 h 24 m -24 0 a 12 12 0 0 0 12 -12 v 0 a 12 12 0 0 1 12 -12 h 100 m -47 0 l -5 -5 m 0 10 l 5 -5 m 47 0 a 12 12 0 0 1 12 12 v 0 a 12 12 0 0 0 12 12 h -24"/>
<a class="link" xlink:href="#Identifier">
<g class="symbol">
<rect height="22" width="100" x="889" y="1299"/>
<text x="939" y="1315">
Identifier</text>
</g>
</a>
</g>
<g class="character">
<rect height="22" rx="10" ry="10" width="52" x="1023" y="1299"/>
<text x="1049" y="1315">
HIDE</text>
</g>
<a class="link" xlink:href="#GroupBlock">
<g class="symbol">
<rect height="22" width="100" x="1085" y="1299"/>
<text x="1135" y="1315">
GroupBlock</text>
</g>
</a>
<path d=" M 363 1310 h 10"/>
<path d=" M 425 1310 h 10"/>
<path d=" M 637 1310 h 10"/>
<path d=" M 699 1310 h 10"/>
<path d=" M 793 1310 h 10"/>
<path d=" M 855 1310 h 10"/>
<path d=" M 1013 1310 h 10"/>
<path d=" M 1075 1310 h 10"/>
</g>
<path d=" M 1195 1310 h 5 a 5 5 0 0 1 5 -5 a 5 5 0 0 1 5 5 a 5 5 0 0 1 -5 5 a 5 5 0 0 1 -5 -5"/>
<path d=" M 25 1310 h 10"/>
<path d=" M 143 1310 h 10"/>
<path d=" M 1185 1310 h 10"/>
</g>
<g class="sequence">
<path d=" M 10 1374 a 5 5 0 0 1 5 -5 a 5 5 0 0 1 5 5 a 5 5 0 0 1 -5 5 a 5 5 0 0 1 -5 -5 m 10 0 h 5"/>
<text class="comment" id="GroupBlock" x="75" y="1379">
GroupBlock</text>
<g class="sequence">
<g class="string">
<rect height="22" rx="10" ry="10" width="28" x="125" y="1363"/>
<text x="139" y="1379">
{</text>
</g>
<g class="character">
<rect height="22" rx="10" ry="10" width="52" x="163" y="1363"/>
<text x="189" y="1379">
HIDE</text>
</g>
<g class="repeat">
<path d=" M 225 1374 h 12 m 154 0 h 12 m -12 0 a 12 12 0 0 1 12 12 v 7 a 12 12 0 0 1 -12 12 m -52 0 h -102 m 54 0 l 5 -5 m 0 10 l -5 -5 m -54 0 a 12 12 0 0 1 -12 -12 v -7 a 12 12 0 0 1 12 -12"/>
<text class="comment" x="365" y="1410">
[0, ∞]</text>
<g class="sequence">
<g class="character">
<rect height="22" rx="10" ry="10" width="52" x="237" y="1363"/>
<text x="263" y="1379">
HIDE</text>
</g>
<a class="link" xlink:href="#GroupPair">
<g class="symbol">
<rect height="22" width="92" x="299" y="1363"/>
<text x="345" y="1379">
GroupPair</text>
</g>
</a>
<path d=" M 289 1374 h 10"/>
</g>
</g>
<g class="character">
<rect height="22" rx="10" ry="10" width="52" x="413" y="1363"/>
<text x="439" y="1379">
HIDE</text>
</g>
<g class="string">
<rect height="22" rx="10" ry="10" width="28" x="475" y="1363"/>
<text x="489" y="1379">
}</text>
</g>
<path d=" M 153 1374 h 10"/>
<path d=" M 215 1374 h 10"/>
<path d=" M 403 1374 h 10"/>
<path d=" M 465 1374 h 10"/>
</g>
<path d=" M 513 1374 h 5 a 5 5 0 0 1 5 -5 a 5 5 0 0 1 5 5 a 5 5 0 0 1 -5 5 a 5 5 0 0 1 -5 -5"/>
<path d=" M 25 1374 h 10"/>
<path d=" M 115 1374 h 10"/>
<path d=" M 503 1374 h 10"/>
</g>
<g class="sequence">
<path d=" M 10 1438 a 5 5 0 0 1 5 -5 a 5 5 0 0 1 5 5 a 5 5 0 0 1 -5 5 a 5 5 0 0 1 -5 -5 m 10 0 h 5"/>
<text class="comment" id="GroupPair" x="71" y="1443">
GroupPair</text>
<g class="sequence">
<a class="link" xlink:href="#Identifier">
<g class="symbol">
<rect height="22" width="100" x="118" y="1427"/>
<text x="168" y="1443">
Identifier</text>
</g>
</a>
<g class="character">
<rect height="22" rx="10" ry="10" width="52" x="228" y="1427"/>
<text x="254" y="1443">
HIDE</text>
</g>
<g class="string">
<rect height="22" rx="10" ry="10" width="28" x="290" y="1427"/>
<text x="304" y="1443">
:</text>
</g>
<g class="character">
<rect height="22" rx="10" ry="10" width="52" x="328" y="1427"/>
<text x="354" y="1443">
HIDE</text>
</g>
<a class="link" xlink:href="#Atomic">
<g class="symbol">
<rect height="22" width="68" x="390" y="1427"/>
<text x="424" y="1443">
Atomic</text>
</g>
</a>
<path d=" M 218 1438 h 10"/>
<path d=" M 280 1438 h 10"/>
<path d=" M 318 1438 h 10"/>
<path d=" M 380 1438 h 10"/>
</g>
<path d=" M 468 1438 h 5 a 5 5 0 0 1 5 -5 a 5 5 0 0 1 5 5 a 5 5 0 0 1 -5 5 a 5 5 0 0 1 -5 -5"/>
<path d=" M 25 1438 h 10"/>
<path d=" M 108 1438 h 10"/>
<path d=" M 458 1438 h 10"/>
</g>
<g class="sequence">
<path d=" M 10 1472 a 5 5 0 0 1 5 -5 a 5 5 0 0 1 5 5 a 5 5 0 0 1 -5 5 a 5 5 0 0 1 -5 -5 m 10 0 h 5"/>
<text class="comment" id="DecoratorCall" x="85" y="1477">
DecoratorCall</text>
<g class="sequence">
<a class="link" xlink:href="#DecoratorName">
<g class="symbol">
<rect height="22" width="124" x="146" y="1461"/>
<text x="208" y="1477">
DecoratorName</text>
</g>
</a>
<g class="character">
<rect height="22" rx="10" ry="10" width="52" x="280" y="1461"/>
<text x="306" y="1477">
HIDE</text>
</g>
<a class="link" xlink:href="#CallBody">
<g class="symbol">
<rect height="22" width="84" x="342" y="1461"/>
<text x="384" y="1477">
CallBody</text>
</g>
</a>
<path d=" M 270 1472 h 10"/>
<path d=" M 332 1472 h 10"/>
</g>
<path d=" M 436 1472 h 5 a 5 5 0 0 1 5 -5 a 5 5 0 0 1 5 5 a 5 5 0 0 1 -5 5 a 5 5 0 0 1 -5 -5"/>
<path d=" M 25 1472 h 10"/>
<path d=" M 136 1472 h 10"/>
<path d=" M 426 1472 h 10"/>
</g>
<g class="sequence">
<path d=" M 10 1506 a 5 5 0 0 1 5 -5 a 5 5 0 0 1 5 5 a 5 5 0 0 1 -5 5 a 5 5 0 0 1 -5 -5 m 10 0 h 5"/>
<text class="comment" id="DecoratorName" x="85" y="1511">
DecoratorName</text>
<g class="sequence">
<g class="string">
<rect height="22" rx="10" ry="10" width="60" x="146" y="1495"/>
<text x="176" y="1511">
[@\#]</text>
</g>
<g class="character">
<rect height="22" rx="10" ry="10" width="52" x="216" y="1495"/>
<text x="242" y="1511">
HIDE</text>
</g>
<a class="link" xlink:href="#Identifier">
<g class="symbol">
<rect height="22" width="100" x="278" y="1495"/>
<text x="328" y="1511">
Identifier</text>
</g>
</a>
<path d=" M 206 1506 h 10"/>
<path d=" M 268 1506 h 10"/>
</g>
<path d=" M 388 1506 h 5 a 5 5 0 0 1 5 -5 a 5 5 0 0 1 5 5 a 5 5 0 0 1 -5 5 a 5 5 0 0 1 -5 -5"/>
<path d=" M 25 1506 h 10"/>
<path d=" M 136 1506 h 10"/>
<path d=" M 378 1506 h 10"/>
</g>
<g class="sequence">
<path d=" M 10 1540 a 5 5 0 0 1 5 -5 a 5 5 0 0 1 5 5 a 5 5 0 0 1 -5 5 a 5 5 0 0 1 -5 -5 m 10 0 h 5"/>
<text class="comment" id="FunctionCall" x="82" y="1545">
FunctionCall</text>
<g class="sequence">
<a class="link" xlink:href="#FunctionName">
<g class="symbol">
<rect height="22" width="116" x="139" y="1529"/>
<text x="197" y="1545">
FunctionName</text>
</g>
</a>
<g class="character">
<rect height="22" rx="10" ry="10" width="52" x="265" y="1529"/>
<text x="291" y="1545">
HIDE</text>
</g>
<a class="link" xlink:href="#CallBody">
<g class="symbol">
<rect height="22" width="84" x="327" y="1529"/>
<text x="369" y="1545">
CallBody</text>
</g>
</a>
<path d=" M 255 1540 h 10"/>
<path d=" M 317 1540 h 10"/>
</g>
<path d=" M 421 1540 h 5 a 5 5 0 0 1 5 -5 a 5 5 0 0 1 5 5 a 5 5 0 0 1 -5 5 a 5 5 0 0 1 -5 -5"/>
<path d=" M 25 1540 h 10"/>
<path d=" M 129 1540 h 10"/>
<path d=" M 411 1540 h 10"/>
</g>
<g class="sequence">
<path d=" M 10 1574 a 5 5 0 0 1 5 -5 a 5 5 0 0 1 5 5 a 5 5 0 0 1 -5 5 a 5 5 0 0 1 -5 -5 m 10 0 h 5"/>
<text class="comment" id="FunctionName" x="82" y="1579">
FunctionName</text>
<g class="sequence">
<g class="string">
<rect height="22" rx="10" ry="10" width="28" x="139" y="1563"/>
<text x="153" y="1579">
@</text>
</g>
<g class="character">
<rect height="22" rx="10" ry="10" width="52" x="177" y="1563"/>
<text x="203" y="1579">
HIDE</text>
</g>
<a class="link" xlink:href="#Identifier">
<g class="symbol">
<rect height="22" width="100" x="239" y="1563"/>
<text x="289" y="1579">
Identifier</text>
</g>
</a>
<path d=" M 167 1574 h 10"/>
<path d=" M 229 1574 h 10"/>
</g>
<path d=" M 349 1574 h 5 a 5 5 0 0 1 5 -5 a 5 5 0 0 1 5 5 a 5 5 0 0 1 -5 5 a 5 5 0 0 1 -5 -5"/>
<path d=" M 25 1574 h 10"/>
<path d=" M 129 1574 h 10"/>
<path d=" M 339 1574 h 10"/>
</g>
<g class="sequence">
<path d=" M 10 1633 a 5 5 0 0 1 5 -5 a 5 5 0 0 1 5 5 a 5 5 0 0 1 -5 5 a 5 5 0 0 1 -5 -5 m 10 0 h 5"/>
<text class="comment" id="CallBody" x="68" y="1638">
CallBody</text>
<g class="sequence">
<g class="string">
<rect height="22" rx="10" ry="10" width="28" x="111" y="1622"/>
<text x="125" y="1638">
(</text>
</g>
<g class="character">
<rect height="22" rx="10" ry="10" width="52" x="149" y="1622"/>
<text x="175" y="1638">
HIDE</text>
</g>
<g class="optional">
<path d=" M 211 1633 h 24 m -24 0 a 12 12 0 0 0 12 -12 v -12 a 12 12 0 0 1 12 -12 h 606 m -300 0 l -5 -5 m 0 10 l 5 -5 m 300 0 a 12 12 0 0 1 12 12 v 12 a 12 12 0 0 0 12 12 h -24"/>
<g class="sequence">
<a class="link" xlink:href="#Expression">
<g class="symbol">
<rect height="22" width="100" x="235" y="1622"/>
<text x="285" y="1638">
Expression</text>
</g>
</a>
<g class="character">
<rect height="22" rx="10" ry="10" width="52" x="345" y="1622"/>
<text x="371" y="1638">
HIDE</text>
</g>
<g class="repeat">
<path d=" M 407 1633 h 12 m 262 0 h 12 m -12 0 a 12 12 0 0 1 12 12 v 7 a 12 12 0 0 1 -12 12 m -52 0 h -210 m 108 0 l 5 -5 m 0 10 l -5 -5 m -108 0 a 12 12 0 0 1 -12 -12 v -7 a 12 12 0 0 1 12 -12"/>
<text class="comment" x="655" y="1669">
[0, ∞]</text>
<g class="sequence">
<g class="character">
<rect height="22" rx="10" ry="10" width="52" x="419" y="1622"/>
<text x="445" y="1638">
HIDE</text>
</g>
<g class="sequence">
<g class="string">
<rect height="22" rx="10" ry="10" width="28" x="481" y="1622"/>
<text x="495" y="1638">
,</text>
</g>
<g class="character">
<rect height="22" rx="10" ry="10" width="52" x="519" y="1622"/>
<text x="545" y="1638">
HIDE</text>
</g>
<a class="link" xlink:href="#Expression">
<g class="symbol">
<rect height="22" width="100" x="581" y="1622"/>
<text x="631" y="1638">
Expression</text>
</g>
</a>
<path d=" M 509 1633 h 10"/>
<path d=" M 571 1633 h 10"/>
</g>
<path d=" M 471 1633 h 10"/>
</g>
</g>
<g class="character">
<rect height="22" rx="10" ry="10" width="52" x="703" y="1622"/>
<text x="729" y="1638">
HIDE</text>
</g>
<g class="optional">
<path d=" M 765 1633 h 24 m -24 0 a 12 12 0 0 0 12 -12 v 0 a 12 12 0 0 1 12 -12 h 28 a 12 12 0 0 1 12 12 v 0 a 12 12 0 0 0 12 12 h -24"/>
<g class="string">
<rect height="22" rx="10" ry="10" width="28" x="789" y="1622"/>
<text x="803" y="1638">
,</text>
</g>
</g>
<path d=" M 335 1633 h 10"/>
<path d=" M 397 1633 h 10"/>
<path d=" M 693 1633 h 10"/>
<path d=" M 755 1633 h 10"/>
</g>
</g>
<g class="character">
<rect height="22" rx="10" ry="10" width="52" x="875" y="1622"/>
<text x="901" y="1638">
HIDE</text>
</g>
<g class="string">
<rect height="22" rx="10" ry="10" width="28" x="937" y="1622"/>
<text x="951" y="1638">
)</text>
</g>
<path d=" M 139 1633 h 10"/>
<path d=" M 201 1633 h 10"/>
<path d=" M 865 1633 h 10"/>
<path d=" M 927 1633 h 10"/>
</g>
<path d=" M 975 1633 h 5 a 5 5 0 0 1 5 -5 a 5 5 0 0 1 5 5 a 5 5 0 0 1 -5 5 a 5 5 0 0 1 -5 -5"/>
<path d=" M 25 1633 h 10"/>
<path d=" M 101 1633 h 10"/>
<path d=" M 965 1633 h 10"/>
</g>
<g class="sequence">
<path d=" M 10 1697 a 5 5 0 0 1 5 -5 a 5 5 0 0 1 5 5 a 5 5 0 0 1 -5 5 a 5 5 0 0 1 -5 -5 m 10 0 h 5"/>
<text class="comment" id="Expression" x="75" y="1702">
Expression</text>
<g class="sequence">
<a class="link" xlink:href="#ExpressionHard">
<g class="symbol">
<rect height="22" width="132" x="125" y="1686"/>
<text x="191" y="1702">
ExpressionHard</text>
</g>
</a>
<g class="character">
<rect height="22" rx="10" ry="10" width="52" x="267" y="1686"/>
<text x="293" y="1702">
HIDE</text>
</g>
<g class="repeat">
<path d=" M 329 1697 h 12 m 294 0 h 12 m -12 0 a 12 12 0 0 1 12 12 v 7 a 12 12 0 0 1 -12 12 m -52 0 h -242 m 124 0 l 5 -5 m 0 10 l -5 -5 m -124 0 a 12 12 0 0 1 -12 -12 v -7 a 12 12 0 0 1 12 -12"/>
<text class="comment" x="609" y="1733">
[0, ∞]</text>
<g class="sequence">
<g class="character">
<rect height="22" rx="10" ry="10" width="52" x="341" y="1686"/>
<text x="367" y="1702">
HIDE</text>
</g>
<g class="sequence">
<g class="string">
<rect height="22" rx="10" ry="10" width="28" x="403" y="1686"/>
<text x="417" y="1702">
|</text>
</g>
<g class="character">
<rect height="22" rx="10" ry="10" width="52" x="441" y="1686"/>
<text x="467" y="1702">
HIDE</text>
</g>
<a class="link" xlink:href="#ExpressionHard">
<g class="symbol">
<rect height="22" width="132" x="503" y="1686"/>
<text x="569" y="1702">
ExpressionHard</text>
</g>
</a>
<path d=" M 431 1697 h 10"/>
<path d=" M 493 1697 h 10"/>
</g>
<path d=" M 393 1697 h 10"/>
</g>
</g>
<path d=" M 257 1697 h 10"/>
<path d=" M 319 1697 h 10"/>
</g>
<path d=" M 657 1697 h 5 a 5 5 0 0 1 5 -5 a 5 5 0 0 1 5 5 a 5 5 0 0 1 -5 5 a 5 5 0 0 1 -5 -5"/>
<path d=" M 25 1697 h 10"/>
<path d=" M 115 1697 h 10"/>
<path d=" M 647 1697 h 10"/>
</g>
<g class="sequence">
<path d=" M 10 1761 a 5 5 0 0 1 5 -5 a 5 5 0 0 1 5 5 a 5 5 0 0 1 -5 5 a 5 5 0 0 1 -5 -5 m 10 0 h 5"/>
<text class="comment" id="ExpressionHard" x="89" y="1766">
ExpressionHard</text>
<g class="sequence">
<a class="link" xlink:href="#ExpressionSoft">
<g class="symbol">
<rect height="22" width="132" x="153" y="1750"/>
<text x="219" y="1766">
ExpressionSoft</text>
</g>
</a>
<g class="character">
<rect height="22" rx="10" ry="10" width="52" x="295" y="1750"/>
<text x="321" y="1766">
HIDE</text>
</g>
<g class="repeat">
<path d=" M 357 1761 h 12 m 294 0 h 12 m -12 0 a 12 12 0 0 1 12 12 v 7 a 12 12 0 0 1 -12 12 m -52 0 h -242 m 124 0 l 5 -5 m 0 10 l -5 -5 m -124 0 a 12 12 0 0 1 -12 -12 v -7 a 12 12 0 0 1 12 -12"/>
<text class="comment" x="637" y="1797">
[0, ∞]</text>
<g class="sequence">
<g class="character">
<rect height="22" rx="10" ry="10" width="52" x="369" y="1750"/>
<text x="395" y="1766">
HIDE</text>
</g>
<g class="sequence">
<g class="string">
<rect height="22" rx="10" ry="10" width="28" x="431" y="1750"/>
<text x="445" y="1766">
~</text>
</g>
<g class="character">
<rect height="22" rx="10" ry="10" width="52" x="469" y="1750"/>
<text x="495" y="1766">
HIDE</text>
</g>
<a class="link" xlink:href="#ExpressionSoft">
<g class="symbol">
<rect height="22" width="132" x="531" y="1750"/>
<text x="597" y="1766">
ExpressionSoft</text>
</g>
</a>
<path d=" M 459 1761 h 10"/>
<path d=" M 521 1761 h 10"/>
</g>
<path d=" M 421 1761 h 10"/>
</g>
</g>
<path d=" M 285 1761 h 10"/>
<path d=" M 347 1761 h 10"/>
</g>
<path d=" M 685 1761 h 5 a 5 5 0 0 1 5 -5 a 5 5 0 0 1 5 5 a 5 5 0 0 1 -5 5 a 5 5 0 0 1 -5 -5"/>
<path d=" M 25 1761 h 10"/>
<path d=" M 143 1761 h 10"/>
<path d=" M 675 1761 h 10"/>
</g>
<g class="sequence">
<path d=" M 10 1825 a 5 5 0 0 1 5 -5 a 5 5 0 0 1 5 5 a 5 5 0 0 1 -5 5 a 5 5 0 0 1 -5 -5 m 10 0 h 5"/>
<text class="comment" id="ExpressionSoft" x="89" y="1830">
ExpressionSoft</text>
<g class="sequence">
<a class="link" xlink:href="#ExpressionTag">
<g class="symbol">
<rect height="22" width="124" x="153" y="1814"/>
<text x="215" y="1830">
ExpressionTag</text>
</g>
</a>
<g class="character">
<rect height="22" rx="10" ry="10" width="52" x="287" y="1814"/>
<text x="313" y="1830">
HIDE</text>
</g>
<g class="repeat">
<path d=" M 349 1825 h 12 m 186 0 h 12 m -12 0 a 12 12 0 0 1 12 12 v 7 a 12 12 0 0 1 -12 12 m -52 0 h -134 m 70 0 l 5 -5 m 0 10 l -5 -5 m -70 0 a 12 12 0 0 1 -12 -12 v -7 a 12 12 0 0 1 12 -12"/>
<text class="comment" x="521" y="1861">
[0, ∞]</text>
<g class="sequence">
<g class="character">
<rect height="22" rx="10" ry="10" width="52" x="361" y="1814"/>
<text x="387" y="1830">
HIDE</text>
</g>
<a class="link" xlink:href="#ExpressionTag">
<g class="symbol">
<rect height="22" width="124" x="423" y="1814"/>
<text x="485" y="1830">
ExpressionTag</text>
</g>
</a>
<path d=" M 413 1825 h 10"/>
</g>
</g>
<path d=" M 277 1825 h 10"/>
<path d=" M 339 1825 h 10"/>
</g>
<path d=" M 569 1825 h 5 a 5 5 0 0 1 5 -5 a 5 5 0 0 1 5 5 a 5 5 0 0 1 -5 5 a 5 5 0 0 1 -5 -5"/>
<path d=" M 25 1825 h 10"/>
<path d=" M 143 1825 h 10"/>
<path d=" M 559 1825 h 10"/>
</g>
<g class="sequence">
<path d=" M 10 1902 a 5 5 0 0 1 5 -5 a 5 5 0 0 1 5 5 a 5 5 0 0 1 -5 5 a 5 5 0 0 1 -5 -5 m 10 0 h 5"/>
<text class="comment" id="ExpressionTag" x="85" y="1907">
ExpressionTag</text>
<g class="sequence">
<g class="optional">
<path d=" M 146 1902 h 24 m -24 0 a 12 12 0 0 0 12 -12 v 0 a 12 12 0 0 1 12 -12 h 200 m -97 0 l -5 -5 m 0 10 l 5 -5 m 97 0 a 12 12 0 0 1 12 12 v 0 a 12 12 0 0 0 12 12 h -24"/>
<g class="sequence">
<a class="link" xlink:href="#Identifier">
<g class="symbol">
<rect height="22" width="100" x="170" y="1891"/>
<text x="220" y="1907">
Identifier</text>
</g>
</a>
<g class="character">
<rect height="22" rx="10" ry="10" width="52" x="280" y="1891"/>
<text x="306" y="1907">
HIDE</text>
</g>
<g class="string">
<rect height="22" rx="10" ry="10" width="28" x="342" y="1891"/>
<text x="356" y="1907">
:</text>
</g>
<path d=" M 270 1902 h 10"/>
<path d=" M 332 1902 h 10"/>
</g>
</g>
<g class="character">
<rect height="22" rx="10" ry="10" width="52" x="404" y="1891"/>
<text x="430" y="1907">
HIDE</text>
</g>
<a class="link" xlink:href="#Term">
<g class="symbol">
<rect height="22" width="52" x="466" y="1891"/>
<text x="492" y="1907">
Term</text>
</g>
</a>
<path d=" M 394 1902 h 10"/>
<path d=" M 456 1902 h 10"/>
</g>
<path d=" M 528 1902 h 5 a 5 5 0 0 1 5 -5 a 5 5 0 0 1 5 5 a 5 5 0 0 1 -5 5 a 5 5 0 0 1 -5 -5"/>
<path d=" M 25 1902 h 10"/>
<path d=" M 136 1902 h 10"/>
<path d=" M 518 1902 h 10"/>
</g>
<g class="sequence">
<path d=" M 10 1936 a 5 5 0 0 1 5 -5 a 5 5 0 0 1 5 5 a 5 5 0 0 1 -5 5 a 5 5 0 0 1 -5 -5 m 10 0 h 5"/>
<text class="comment" id="Term" x="54" y="1941">
Term</text>
<g class="sequence">
<g class="repeat">
<path d=" M 83 1936 h 12 m 130 0 h 12 m -12 0 a 12 12 0 0 1 12 12 v 7 a 12 12 0 0 1 -12 12 m -52 0 h -78 m 42 0 l 5 -5 m 0 10 l -5 -5 m -42 0 a 12 12 0 0 1 -12 -12 v -7 a 12 12 0 0 1 12 -12"/>
<text class="comment" x="199" y="1972">
[0, ∞]</text>
<g class="sequence">
<g class="character">
<rect height="22" rx="10" ry="10" width="52" x="95" y="1925"/>
<text x="121" y="1941">
HIDE</text>
</g>
<a class="link" xlink:href="#Prefix">
<g class="symbol">
<rect height="22" width="68" x="157" y="1925"/>
<text x="191" y="1941">
Prefix</text>
</g>
</a>
<path d=" M 147 1936 h 10"/>
</g>
</g>
<g class="character">
<rect height="22" rx="10" ry="10" width="52" x="247" y="1925"/>
<text x="273" y="1941">
HIDE</text>
</g>
<a class="link" xlink:href="#Atomic">
<g class="symbol">
<rect height="22" width="68" x="309" y="1925"/>
<text x="343" y="1941">
Atomic</text>
</g>
</a>
<g class="character">
<rect height="22" rx="10" ry="10" width="52" x="387" y="1925"/>
<text x="413" y="1941">
HIDE</text>
</g>
<g class="repeat">
<path d=" M 449 1936 h 12 m 130 0 h 12 m -12 0 a 12 12 0 0 1 12 12 v 7 a 12 12 0 0 1 -12 12 m -52 0 h -78 m 42 0 l 5 -5 m 0 10 l -5 -5 m -42 0 a 12 12 0 0 1 -12 -12 v -7 a 12 12 0 0 1 12 -12"/>
<text class="comment" x="565" y="1972">
[0, ∞]</text>
<g class="sequence">
<g class="character">
<rect height="22" rx="10" ry="10" width="52" x="461" y="1925"/>
<text x="487" y="1941">
HIDE</text>
</g>
<a class="link" xlink:href="#Suffix">
<g class="symbol">
<rect height="22" width="68" x="523" y="1925"/>
<text x="557" y="1941">
Suffix</text>
</g>
</a>
<path d=" M 513 1936 h 10"/>
</g>
</g>
<path d=" M 237 1936 h 10"/>
<path d=" M 299 1936 h 10"/>
<path d=" M 377 1936 h 10"/>
<path d=" M 439 1936 h 10"/>
</g>
<path d=" M 613 1936 h 5 a 5 5 0 0 1 5 -5 a 5 5 0 0 1 5 5 a 5 5 0 0 1 -5 5 a 5 5 0 0 1 -5 -5"/>
<path d=" M 25 1936 h 10"/>
<path d=" M 73 1936 h 10"/>
<path d=" M 603 1936 h 10"/>
</g>
<g class="sequence">
<path d=" M 10 2000 a 5 5 0 0 1 5 -5 a 5 5 0 0 1 5 5 a 5 5 0 0 1 -5 5 a 5 5 0 0 1 -5 -5 m 10 0 h 5"/>
<text class="comment" id="Negative" x="68" y="2005">
Negative</text>
<g class="string">
<rect height="22" rx="10" ry="10" width="28" x="111" y="1989"/>
<text x="125" y="2005">
!</text>
</g>
<path d=" M 149 2000 h 5 a 5 5 0 0 1 5 -5 a 5 5 0 0 1 5 5 a 5 5 0 0 1 -5 5 a 5 5 0 0 1 -5 -5"/>
<path d=" M 25 2000 h 10"/>
<path d=" M 101 2000 h 10"/>
<path d=" M 139 2000 h 10"/>
</g>
<g class="sequence">
<path d=" M 10 2034 a 5 5 0 0 1 5 -5 a 5 5 0 0 1 5 5 a 5 5 0 0 1 -5 5 a 5 5 0 0 1 -5 -5 m 10 0 h 5"/>
<text class="comment" id="Positive" x="68" y="2039">
Positive</text>
<g class="string">
<rect height="22" rx="10" ry="10" width="28" x="111" y="2023"/>
<text x="125" y="2039">
&amp;</text>
</g>
<path d=" M 149 2034 h 5 a 5 5 0 0 1 5 -5 a 5 5 0 0 1 5 5 a 5 5 0 0 1 -5 5 a 5 5 0 0 1 -5 -5"/>
<path d=" M 25 2034 h 10"/>
<path d=" M 101 2034 h 10"/>
<path d=" M 139 2034 h 10"/>
</g>
<g class="sequence">
<path d=" M 10 2068 a 5 5 0 0 1 5 -5 a 5 5 0 0 1 5 5 a 5 5 0 0 1 -5 5 a 5 5 0 0 1 -5 -5 m 10 0 h 5"/>
<text class="comment" id="Remark" x="61" y="2073">
Remark</text>
<g class="string">
<rect height="22" rx="10" ry="10" width="28" x="97" y="2057"/>
<text x="111" y="2073">
^</text>
</g>
<path d=" M 135 2068 h 5 a 5 5 0 0 1 5 -5 a 5 5 0 0 1 5 5 a 5 5 0 0 1 -5 5 a 5 5 0 0 1 -5 -5"/>
<path d=" M 25 2068 h 10"/>
<path d=" M 87 2068 h 10"/>
<path d=" M 125 2068 h 10"/>
</g>
<g class="sequence">
<path d=" M 10 2102 a 5 5 0 0 1 5 -5 a 5 5 0 0 1 5 5 a 5 5 0 0 1 -5 5 a 5 5 0 0 1 -5 -5 m 10 0 h 5"/>
<text class="comment" id="Prefix" x="61" y="2107">
Prefix</text>
<g class="choice">
<path d=" M 97 2102 h 24 m 84 0 h 24"/>
<a class="link" xlink:href="#Negative">
<g class="symbol">
<rect height="22" width="84" x="121" y="2091"/>
<text x="163" y="2107">
Negative</text>
</g>
</a>
<path d=" M 97 2102 a 12 12 0 0 1 12 12 v 9 m 108 0 v -9 a 12 12 0 0 1 12 -12"/>
<path d=" M 109 2123 v 33 m 108 0 v -33"/>
<path d=" M 109 2123 v 0 a 12 12 0 0 0 12 12 m 84 0 h 0 a 12 12 0 0 0 12 -12 v 0"/>
<a class="link" xlink:href="#Positive">
<g class="symbol">
<rect height="22" width="84" x="121" y="2124"/>
<text x="163" y="2140">
Positive</text>
</g>
</a>
<path d=" M 109 2156 v 0 a 12 12 0 0 0 12 12 m 68 0 h 16 a 12 12 0 0 0 12 -12 v 0"/>
<a class="link" xlink:href="#Remark">
<g class="symbol">
<rect height="22" width="68" x="121" y="2157"/>
<text x="155" y="2173">
Remark</text>
</g>
</a>
</g>
<path d=" M 239 2102 h 5 a 5 5 0 0 1 5 -5 a 5 5 0 0 1 5 5 a 5 5 0 0 1 -5 5 a 5 5 0 0 1 -5 -5"/>
<path d=" M 25 2102 h 10"/>
<path d=" M 87 2102 h 10"/>
<path d=" M 229 2102 h 10"/>
</g>
<g class="sequence">
<path d=" M 10 2202 a 5 5 0 0 1 5 -5 a 5 5 0 0 1 5 5 a 5 5 0 0 1 -5 5 a 5 5 0 0 1 -5 -5 m 10 0 h 5"/>
<text class="comment" id="Optional" x="68" y="2207">
Optional</text>
<g class="string">
<rect height="22" rx="10" ry="10" width="28" x="111" y="2191"/>
<text x="125" y="2207">
?</text>
</g>
<path d=" M 149 2202 h 5 a 5 5 0 0 1 5 -5 a 5 5 0 0 1 5 5 a 5 5 0 0 1 -5 5 a 5 5 0 0 1 -5 -5"/>
<path d=" M 25 2202 h 10"/>
<path d=" M 101 2202 h 10"/>
<path d=" M 139 2202 h 10"/>
</g>
<g class="sequence">
<path d=" M 10 2236 a 5 5 0 0 1 5 -5 a 5 5 0 0 1 5 5 a 5 5 0 0 1 -5 5 a 5 5 0 0 1 -5 -5 m 10 0 h 5"/>
<text class="comment" id="Many" x="54" y="2241">
Many</text>
<g class="string">
<rect height="22" rx="10" ry="10" width="28" x="83" y="2225"/>
<text x="97" y="2241">
*</text>
</g>
<path d=" M 121 2236 h 5 a 5 5 0 0 1 5 -5 a 5 5 0 0 1 5 5 a 5 5 0 0 1 -5 5 a 5 5 0 0 1 -5 -5"/>
<path d=" M 25 2236 h 10"/>
<path d=" M 73 2236 h 10"/>
<path d=" M 111 2236 h 10"/>
</g>
<g class="sequence">
<path d=" M 10 2270 a 5 5 0 0 1 5 -5 a 5 5 0 0 1 5 5 a 5 5 0 0 1 -5 5 a 5 5 0 0 1 -5 -5 m 10 0 h 5"/>
<text class="comment" id="Many1" x="57" y="2275">
Many1</text>
<g class="string">
<rect height="22" rx="10" ry="10" width="28" x="90" y="2259"/>
<text x="104" y="2275">
+</text>
</g>
<path d=" M 128 2270 h 5 a 5 5 0 0 1 5 -5 a 5 5 0 0 1 5 5 a 5 5 0 0 1 -5 5 a 5 5 0 0 1 -5 -5"/>
<path d=" M 25 2270 h 10"/>
<path d=" M 80 2270 h 10"/>
<path d=" M 118 2270 h 10"/>
</g>
<g class="sequence">
<path d=" M 10 2304 a 5 5 0 0 1 5 -5 a 5 5 0 0 1 5 5 a 5 5 0 0 1 -5 5 a 5 5 0 0 1 -5 -5 m 10 0 h 5"/>
<text class="comment" id="Suffix" x="61" y="2309">
Suffix</text>
<g class="choice">
<path d=" M 97 2304 h 24 m 84 0 h 40"/>
<a class="link" xlink:href="#Optional">
<g class="symbol">
<rect height="22" width="84" x="121" y="2293"/>
<text x="163" y="2309">
Optional</text>
</g>
</a>
<path d=" M 97 2304 a 12 12 0 0 1 12 12 v 9 m 124 0 v -9 a 12 12 0 0 1 12 -12"/>
<path d=" M 109 2325 v 33 m 124 0 v -33"/>
<path d=" M 109 2358 v 33 m 124 0 v -33"/>
<path d=" M 109 2391 v 33 m 124 0 v -33"/>
<path d=" M 109 2325 v 0 a 12 12 0 0 0 12 12 m 52 0 h 48 a 12 12 0 0 0 12 -12 v 0"/>
<a class="link" xlink:href="#Many">
<g class="symbol">
<rect height="22" width="52" x="121" y="2326"/>
<text x="147" y="2342">
Many</text>
</g>
</a>
<path d=" M 109 2358 v 0 a 12 12 0 0 0 12 12 m 60 0 h 40 a 12 12 0 0 0 12 -12 v 0"/>
<a class="link" xlink:href="#Many1">
<g class="symbol">
<rect height="22" width="60" x="121" y="2359"/>
<text x="151" y="2375">
Many1</text>
</g>
</a>
<path d=" M 109 2391 v 0 a 12 12 0 0 0 12 12 m 100 0 h 0 a 12 12 0 0 0 12 -12 v 0"/>
<a class="link" xlink:href="#RangeExact">
<g class="symbol">
<rect height="22" width="100" x="121" y="2392"/>
<text x="171" y="2408">
RangeExact</text>
</g>
</a>
<path d=" M 109 2424 v 0 a 12 12 0 0 0 12 12 m 60 0 h 40 a 12 12 0 0 0 12 -12 v 0"/>
<a class="link" xlink:href="#Range">
<g class="symbol">
<rect height="22" width="60" x="121" y="2425"/>
<text x="151" y="2441">
Range</text>
</g>
</a>
</g>
<path d=" M 255 2304 h 5 a 5 5 0 0 1 5 -5 a 5 5 0 0 1 5 5 a 5 5 0 0 1 -5 5 a 5 5 0 0 1 -5 -5"/>
<path d=" M 25 2304 h 10"/>
<path d=" M 87 2304 h 10"/>
<path d=" M 245 2304 h 10"/>
</g>
<g class="sequence">
<path d=" M 10 2470 a 5 5 0 0 1 5 -5 a 5 5 0 0 1 5 5 a 5 5 0 0 1 -5 5 a 5 5 0 0 1 -5 -5 m 10 0 h 5"/>
<text class="comment" id="Atomic" x="61" y="2475">
Atomic</text>
<g class="choice">
<path d=" M 97 2470 h 24 m 140 0 h 24"/>
<a class="link" xlink:href="#GroupExpression">
<g class="symbol">
<rect height="22" width="140" x="121" y="2459"/>
<text x="191" y="2475">
GroupExpression</text>
</g>
</a>
<path d=" M 97 2470 a 12 12 0 0 1 12 12 v 9 m 164 0 v -9 a 12 12 0 0 1 12 -12"/>
<path d=" M 109 2491 v 33 m 164 0 v -33"/>
<path d=" M 109 2524 v 33 m 164 0 v -33"/>
<path d=" M 109 2557 v 33 m 164 0 v -33"/>
<path d=" M 109 2590 v 33 m 164 0 v -33"/>
<path d=" M 109 2623 v 33 m 164 0 v -33"/>
<path d=" M 109 2656 v 33 m 164 0 v -33"/>
<path d=" M 109 2689 v 33 m 164 0 v -33"/>
<path d=" M 109 2722 v 33 m 164 0 v -33"/>
<path d=" M 109 2755 v 33 m 164 0 v -33"/>
<path d=" M 109 2491 v 0 a 12 12 0 0 0 12 12 m 116 0 h 24 a 12 12 0 0 0 12 -12 v 0"/>
<a class="link" xlink:href="#FunctionCall">
<g class="symbol">
<rect height="22" width="116" x="121" y="2492"/>
<text x="179" y="2508">
FunctionCall</text>
</g>
</a>
<path d=" M 109 2524 v 0 a 12 12 0 0 0 12 12 m 76 0 h 64 m -29 0 l -5 -5 m 0 10 l 5 -5 m 29 0 a 12 12 0 0 0 12 -12 v 0"/>
<a class="link" xlink:href="#Boolean">
<g class="symbol">
<rect height="22" width="76" x="121" y="2525"/>
<text x="159" y="2541">
Boolean</text>
</g>
</a>
<path d=" M 109 2557 v 0 a 12 12 0 0 0 12 12 m 76 0 h 64 m -29 0 l -5 -5 m 0 10 l 5 -5 m 29 0 a 12 12 0 0 0 12 -12 v 0"/>
<a class="link" xlink:href="#Integer">
<g class="symbol">
<rect height="22" width="76" x="121" y="2558"/>
<text x="159" y="2574">
Integer</text>
</g>
</a>
<path d=" M 109 2590 v 0 a 12 12 0 0 0 12 12 m 92 0 h 48 a 12 12 0 0 0 12 -12 v 0"/>
<a class="link" xlink:href="#StringRaw">
<g class="symbol">
<rect height="22" width="92" x="121" y="2591"/>
<text x="167" y="2607">
StringRaw</text>
</g>
</a>
<path d=" M 109 2623 v 0 a 12 12 0 0 0 12 12 m 116 0 h 24 a 12 12 0 0 0 12 -12 v 0"/>
<a class="link" xlink:href="#StringNormal">
<g class="symbol">
<rect height="22" width="116" x="121" y="2624"/>
<text x="179" y="2640">
StringNormal</text>
</g>
</a>
<path d=" M 109 2656 v 0 a 12 12 0 0 0 12 12 m 84 0 h 56 m -25 0 l -5 -5 m 0 10 l 5 -5 m 25 0 a 12 12 0 0 0 12 -12 v 0"/>
<a class="link" xlink:href="#Category">
<g class="symbol">
<rect height="22" width="84" x="121" y="2657"/>
<text x="163" y="2673">
Category</text>
</g>
</a>
<path d=" M 109 2689 v 0 a 12 12 0 0 0 12 12 m 132 0 h 8 a 12 12 0 0 0 12 -12 v 0"/>
<a class="link" xlink:href="#EscapedUnicode">
<g class="symbol">
<rect height="22" width="132" x="121" y="2690"/>
<text x="187" y="2706">
EscapedUnicode</text>
</g>
</a>
<path d=" M 109 2722 v 0 a 12 12 0 0 0 12 12 m 100 0 h 40 a 12 12 0 0 0 12 -12 v 0"/>
<a class="link" xlink:href="#RegexEmbed">
<g class="symbol">
<rect height="22" width="100" x="121" y="2723"/>
<text x="171" y="2739">
RegexEmbed</text>
</g>
</a>
<path d=" M 109 2755 v 0 a 12 12 0 0 0 12 12 m 100 0 h 40 a 12 12 0 0 0 12 -12 v 0"/>
<a class="link" xlink:href="#RegexRange">
<g class="symbol">
<rect height="22" width="100" x="121" y="2756"/>
<text x="171" y="2772">
RegexRange</text>
</g>
</a>
<path d=" M 109 2788 v 0 a 12 12 0 0 0 12 12 m 100 0 h 40 a 12 12 0 0 0 12 -12 v 0"/>
<a class="link" xlink:href="#Identifier">
<g class="symbol">
<rect height="22" width="100" x="121" y="2789"/>
<text x="171" y="2805">
Identifier</text>
</g>
</a>
</g>
<path d=" M 295 2470 h 5 a 5 5 0 0 1 5 -5 a 5 5 0 0 1 5 5 a 5 5 0 0 1 -5 5 a 5 5 0 0 1 -5 -5"/>
<path d=" M 25 2470 h 10"/>
<path d=" M 87 2470 h 10"/>
<path d=" M 285 2470 h 10"/>
</g>
<g class="sequence">
<path d=" M 10 2847 a 5 5 0 0 1 5 -5 a 5 5 0 0 1 5 5 a 5 5 0 0 1 -5 5 a 5 5 0 0 1 -5 -5 m 10 0 h 5"/>
<text class="comment" id="GroupExpression" x="92" y="2852">
GroupExpression</text>
<g class="sequence">
<g class="string">
<rect height="22" rx="10" ry="10" width="28" x="160" y="2836"/>
<text x="174" y="2852">
(</text>
</g>
<g class="character">
<rect height="22" rx="10" ry="10" width="52" x="198" y="2836"/>
<text x="224" y="2852">
HIDE</text>
</g>
<g class="optional">
<path d=" M 260 2847 h 24 m -24 0 a 12 12 0 0 0 12 -12 v 0 a 12 12 0 0 1 12 -12 h 28 a 12 12 0 0 1 12 12 v 0 a 12 12 0 0 0 12 12 h -24"/>
<g class="string">
<rect height="22" rx="10" ry="10" width="28" x="284" y="2836"/>
<text x="298" y="2852">
|</text>
</g>
</g>
<g class="character">
<rect height="22" rx="10" ry="10" width="52" x="346" y="2836"/>
<text x="372" y="2852">
HIDE</text>
</g>
<a class="link" xlink:href="#Expression">
<g class="symbol">
<rect height="22" width="100" x="408" y="2836"/>
<text x="458" y="2852">
Expression</text>
</g>
</a>
<g class="character">
<rect height="22" rx="10" ry="10" width="52" x="518" y="2836"/>
<text x="544" y="2852">
HIDE</text>
</g>
<g class="string">
<rect height="22" rx="10" ry="10" width="28" x="580" y="2836"/>
<text x="594" y="2852">
)</text>
</g>
<path d=" M 188 2847 h 10"/>
<path d=" M 250 2847 h 10"/>
<path d=" M 336 2847 h 10"/>
<path d=" M 398 2847 h 10"/>
<path d=" M 508 2847 h 10"/>
<path d=" M 570 2847 h 10"/>
</g>
<path d=" M 618 2847 h 5 a 5 5 0 0 1 5 -5 a 5 5 0 0 1 5 5 a 5 5 0 0 1 -5 5 a 5 5 0 0 1 -5 -5"/>
<path d=" M 25 2847 h 10"/>
<path d=" M 150 2847 h 10"/>
<path d=" M 608 2847 h 10"/>
</g>
<g class="sequence">
<path d=" M 10 2881 a 5 5 0 0 1 5 -5 a 5 5 0 0 1 5 5 a 5 5 0 0 1 -5 5 a 5 5 0 0 1 -5 -5 m 10 0 h 5"/>
<text class="comment" id="StringRaw" x="71" y="2886">
StringRaw</text>
<g class="sequence">
<g class="string">
<rect height="22" rx="10" ry="10" width="28" x="118" y="2870"/>
<text x="132" y="2886">
&#x27;</text>
</g>
<a class="link" xlink:href="#StringRawText">
<g class="symbol">
<rect height="22" width="124" x="156" y="2870"/>
<text x="218" y="2886">
StringRawText</text>
</g>
</a>
<g class="string">
<rect height="22" rx="10" ry="10" width="28" x="290" y="2870"/>
<text x="304" y="2886">
&#x27;</text>
</g>
<path d=" M 146 2881 h 10"/>
<path d=" M 280 2881 h 10"/>
</g>
<path d=" M 328 2881 h 5 a 5 5 0 0 1 5 -5 a 5 5 0 0 1 5 5 a 5 5 0 0 1 -5 5 a 5 5 0 0 1 -5 -5"/>
<path d=" M 25 2881 h 10"/>
<path d=" M 108 2881 h 10"/>
<path d=" M 318 2881 h 10"/>
</g>
<g class="sequence">
<path d=" M 10 2915 a 5 5 0 0 1 5 -5 a 5 5 0 0 1 5 5 a 5 5 0 0 1 -5 5 a 5 5 0 0 1 -5 -5 m 10 0 h 5"/>
<text class="comment" id="StringRawText" x="85" y="2920">
StringRawText</text>
<g class="string">
<rect height="22" rx="10" ry="10" width="60" x="146" y="2904"/>
<text x="176" y="2920">
[^&#x27;]*</text>
</g>
<path d=" M 216 2915 h 5 a 5 5 0 0 1 5 -5 a 5 5 0 0 1 5 5 a 5 5 0 0 1 -5 5 a 5 5 0 0 1 -5 -5"/>
<path d=" M 25 2915 h 10"/>
<path d=" M 136 2915 h 10"/>
<path d=" M 206 2915 h 10"/>
</g>
<g class="sequence">
<path d=" M 10 2949 a 5 5 0 0 1 5 -5 a 5 5 0 0 1 5 5 a 5 5 0 0 1 -5 5 a 5 5 0 0 1 -5 -5 m 10 0 h 5"/>
<text class="comment" id="StringNormal" x="82" y="2954">
StringNormal</text>
<g class="sequence">
<g class="string">
<rect height="22" rx="10" ry="10" width="28" x="139" y="2938"/>
<text x="153" y="2954">
&quot;</text>
</g>
<g class="repeat">
<path d=" M 177 2949 h 12 m 100 0 h 12 m -12 0 a 12 12 0 0 1 12 12 v 7 a 12 12 0 0 1 -12 12 m -52 0 h -48 a 12 12 0 0 1 -12 -12 v -7 a 12 12 0 0 1 12 -12"/>
<text class="comment" x="263" y="2985">
[0, ∞]</text>
<a class="link" xlink:href="#StringItem">
<g class="symbol">
<rect height="22" width="100" x="189" y="2938"/>
<text x="239" y="2954">
StringItem</text>
</g>
</a>
</g>
<g class="string">
<rect height="22" rx="10" ry="10" width="28" x="311" y="2938"/>
<text x="325" y="2954">
&quot;</text>
</g>
<path d=" M 167 2949 h 10"/>
<path d=" M 301 2949 h 10"/>
</g>
<path d=" M 349 2949 h 5 a 5 5 0 0 1 5 -5 a 5 5 0 0 1 5 5 a 5 5 0 0 1 -5 5 a 5 5 0 0 1 -5 -5"/>
<path d=" M 25 2949 h 10"/>
<path d=" M 129 2949 h 10"/>
<path d=" M 339 2949 h 10"/>
</g>
<g class="sequence">
<path d=" M 10 3013 a 5 5 0 0 1 5 -5 a 5 5 0 0 1 5 5 a 5 5 0 0 1 -5 5 a 5 5 0 0 1 -5 -5 m 10 0 h 5"/>
<text class="comment" id="StringItem" x="75" y="3018">
StringItem</text>
<g class="choice">
<path d=" M 125 3013 h 24 m 132 0 h 40"/>
<a class="link" xlink:href="#EscapedUnicode">
<g class="symbol">
<rect height="22" width="132" x="149" y="3002"/>
<text x="215" y="3018">
EscapedUnicode</text>
</g>
</a>
<path d=" M 125 3013 a 12 12 0 0 1 12 12 v 9 m 172 0 v -9 a 12 12 0 0 1 12 -12"/>
<path d=" M 137 3034 v 33 m 172 0 v -33"/>
<path d=" M 137 3034 v 0 a 12 12 0 0 0 12 12 m 148 0 h 0 a 12 12 0 0 0 12 -12 v 0"/>
<a class="link" xlink:href="#EscapedCharacter">
<g class="symbol">
<rect height="22" width="148" x="149" y="3035"/>
<text x="223" y="3051">
EscapedCharacter</text>
</g>
</a>
<path d=" M 137 3067 v 0 a 12 12 0 0 0 12 12 m 76 0 h 72 m -33 0 l -5 -5 m 0 10 l 5 -5 m 33 0 a 12 12 0 0 0 12 -12 v 0"/>
<a class="link" xlink:href="#TextAny">
<g class="symbol">
<rect height="22" width="76" x="149" y="3068"/>
<text x="187" y="3084">
TextAny</text>
</g>
</a>
</g>
<path d=" M 331 3013 h 5 a 5 5 0 0 1 5 -5 a 5 5 0 0 1 5 5 a 5 5 0 0 1 -5 5 a 5 5 0 0 1 -5 -5"/>
<path d=" M 25 3013 h 10"/>
<path d=" M 115 3013 h 10"/>
<path d=" M 321 3013 h 10"/>
</g>
<g class="sequence">
<path d=" M 10 3113 a 5 5 0 0 1 5 -5 a 5 5 0 0 1 5 5 a 5 5 0 0 1 -5 5 a 5 5 0 0 1 -5 -5 m 10 0 h 5"/>
<text class="comment" id="EscapedUnicode" x="89" y="3118">
EscapedUnicode</text>
<g class="sequence">
<g class="string">
<rect height="22" rx="10" ry="10" width="44" x="153" y="3102"/>
<text x="175" y="3118">
\u{</text>
</g>
<a class="link" xlink:href="#HEX">
<g class="symbol">
<rect height="22" width="44" x="207" y="3102"/>
<text x="229" y="3118">
HEX</text>
</g>
</a>
<g class="string">
<rect height="22" rx="10" ry="10" width="28" x="261" y="3102"/>
<text x="275" y="3118">
}</text>
</g>
<path d=" M 197 3113 h 10"/>
<path d=" M 251 3113 h 10"/>
</g>
<path d=" M 299 3113 h 5 a 5 5 0 0 1 5 -5 a 5 5 0 0 1 5 5 a 5 5 0 0 1 -5 5 a 5 5 0 0 1 -5 -5"/>
<path d=" M 25 3113 h 10"/>
<path d=" M 143 3113 h 10"/>
<path d=" M 289 3113 h 10"/>
</g>
<g class="sequence">
<path d=" M 10 3147 a 5 5 0 0 1 5 -5 a 5 5 0 0 1 5 5 a 5 5 0 0 1 -5 5 a 5 5 0 0 1 -5 -5 m 10 0 h 5"/>
<text class="comment" id="EscapedCharacter" x="96" y="3152">
EscapedCharacter</text>
<g class="sequence">
<g class="string">
<rect height="22" rx="10" ry="10" width="28" x="167" y="3136"/>
<text x="181" y="3152">
\</text>
</g>
<g class="character">
<rect height="22" rx="10" ry="10" width="44" x="205" y="3136"/>
<text x="227" y="3152">
ANY</text>
</g>
<path d=" M 195 3147 h 10"/>
</g>
<path d=" M 259 3147 h 5 a 5 5 0 0 1 5 -5 a 5 5 0 0 1 5 5 a 5 5 0 0 1 -5 5 a 5 5 0 0 1 -5 -5"/>
<path d=" M 25 3147 h 10"/>
<path d=" M 157 3147 h 10"/>
<path d=" M 249 3147 h 10"/>
</g>
<g class="sequence">
<path d=" M 10 3181 a 5 5 0 0 1 5 -5 a 5 5 0 0 1 5 5 a 5 5 0 0 1 -5 5 a 5 5 0 0 1 -5 -5 m 10 0 h 5"/>
<text class="comment" id="HEX" x="50" y="3186">
HEX</text>
<g class="repeat">
<path d=" M 76 3181 h 12 m 170 0 h 12 m -12 0 a 12 12 0 0 1 12 12 v 7 a 12 12 0 0 1 -12 12 m -52 0 h -118 m 62 0 l 5 -5 m 0 10 l -5 -5 m -62 0 a 12 12 0 0 1 -12 -12 v -7 a 12 12 0 0 1 12 -12"/>
<text class="comment" x="232" y="3217">
[1, 6]</text>
<g class="sequence">
<g class="character">
<rect height="22" rx="10" ry="10" width="52" x="88" y="3170"/>
<text x="114" y="3186">
HIDE</text>
</g>
<g class="string">
<rect height="22" rx="10" ry="10" width="108" x="150" y="3170"/>
<text x="204" y="3186">
[0-9a-fA-F]</text>
</g>
<path d=" M 140 3181 h 10"/>
</g>
</g>
<path d=" M 280 3181 h 5 a 5 5 0 0 1 5 -5 a 5 5 0 0 1 5 5 a 5 5 0 0 1 -5 5 a 5 5 0 0 1 -5 -5"/>
<path d=" M 25 3181 h 10"/>
<path d=" M 66 3181 h 10"/>
<path d=" M 270 3181 h 10"/>
</g>
<g class="sequence">
<path d=" M 10 3245 a 5 5 0 0 1 5 -5 a 5 5 0 0 1 5 5 a 5 5 0 0 1 -5 5 a 5 5 0 0 1 -5 -5 m 10 0 h 5"/>
<text class="comment" id="TextAny" x="64" y="3250">
TextAny</text>
<g class="string">
<rect height="22" rx="10" ry="10" width="76" x="104" y="3234"/>
<text x="142" y="3250">
[^&quot;\\]+</text>
</g>
<path d=" M 190 3245 h 5 a 5 5 0 0 1 5 -5 a 5 5 0 0 1 5 5 a 5 5 0 0 1 -5 5 a 5 5 0 0 1 -5 -5"/>
<path d=" M 25 3245 h 10"/>
<path d=" M 94 3245 h 10"/>
<path d=" M 180 3245 h 10"/>
</g>
<g class="sequence">
<path d=" M 10 3279 a 5 5 0 0 1 5 -5 a 5 5 0 0 1 5 5 a 5 5 0 0 1 -5 5 a 5 5 0 0 1 -5 -5 m 10 0 h 5"/>
<text class="comment" id="RegexEmbed" x="75" y="3284">
RegexEmbed</text>
<g class="sequence">
<g class="string">
<rect height="22" rx="10" ry="10" width="28" x="125" y="3268"/>
<text x="139" y="3284">
/</text>
</g>
<g class="repeat">
<path d=" M 163 3279 h 12 m 92 0 h 12 m -12 0 a 12 12 0 0 1 12 12 v 7 a 12 12 0 0 1 -12 12 m -52 0 h -40 a 12 12 0 0 1 -12 -12 v -7 a 12 12 0 0 1 12 -12"/>
<text class="comment" x="241" y="3315">
[1, ∞]</text>
<a class="link" xlink:href="#RegexItem">
<g class="symbol">
<rect height="22" width="92" x="175" y="3268"/>
<text x="221" y="3284">
RegexItem</text>
</g>
</a>
</g>
<g class="string">
<rect height="22" rx="10" ry="10" width="28" x="289" y="3268"/>
<text x="303" y="3284">
/</text>
</g>
<path d=" M 153 3279 h 10"/>
<path d=" M 279 3279 h 10"/>
</g>
<path d=" M 327 3279 h 5 a 5 5 0 0 1 5 -5 a 5 5 0 0 1 5 5 a 5 5 0 0 1 -5 5 a 5 5 0 0 1 -5 -5"/>
<path d=" M 25 3279 h 10"/>
<path d=" M 115 3279 h 10"/>
<path d=" M 317 3279 h 10"/>
</g>
<g class="sequence">
<path d=" M 10 3343 a 5 5 0 0 1 5 -5 a 5 5 0 0 1 5 5 a 5 5 0 0 1 -5 5 a 5 5 0 0 1 -5 -5 m 10 0 h 5"/>
<text class="comment" id="RegexItem" x="71" y="3348">
RegexItem</text>
<g class="choice">
<path d=" M 118 3343 h 24 m 148 0 h 24"/>
<a class="link" xlink:href="#EscapedCharacter">
<g class="symbol">
<rect height="22" width="148" x="142" y="3332"/>
<text x="216" y="3348">
EscapedCharacter</text>
</g>
</a>
<path d=" M 118 3343 a 12 12 0 0 1 12 12 v 9 m 172 0 v -9 a 12 12 0 0 1 12 -12"/>
<path d=" M 130 3364 v 0 a 12 12 0 0 0 12 12 m 132 0 h 16 a 12 12 0 0 0 12 -12 v 0"/>
<a class="link" xlink:href="#RegexCharacter">
<g class="symbol">
<rect height="22" width="132" x="142" y="3365"/>
<text x="208" y="3381">
RegexCharacter</text>
</g>
</a>
</g>
<path d=" M 324 3343 h 5 a 5 5 0 0 1 5 -5 a 5 5 0 0 1 5 5 a 5 5 0 0 1 -5 5 a 5 5 0 0 1 -5 -5"/>
<path d=" M 25 3343 h 10"/>
<path d=" M 108 3343 h 10"/>
<path d=" M 314 3343 h 10"/>
</g>
<g class="sequence">
<path d=" M 10 3410 a 5 5 0 0 1 5 -5 a 5 5 0 0 1 5 5 a 5 5 0 0 1 -5 5 a 5 5 0 0 1 -5 -5 m 10 0 h 5"/>
<text class="comment" id="RegexCharacter" x="89" y="3415">
RegexCharacter</text>
<g class="sequence">
<g class="string">
<rect height="22" rx="10" ry="10" width="28" x="153" y="3399"/>
<text x="167" y="3415">
/</text>
</g>
<g class="character">
<rect height="22" rx="10" ry="10" width="44" x="191" y="3399"/>
<text x="213" y="3415">
ANY</text>
</g>
<path d=" M 181 3410 h 10"/>
</g>
<path d=" M 245 3410 h 5 a 5 5 0 0 1 5 -5 a 5 5 0 0 1 5 5 a 5 5 0 0 1 -5 5 a 5 5 0 0 1 -5 -5"/>
<path d=" M 25 3410 h 10"/>
<path d=" M 143 3410 h 10"/>
<path d=" M 235 3410 h 10"/>
</g>
<g class="sequence">
<path d=" M 10 3457 a 5 5 0 0 1 5 -5 a 5 5 0 0 1 5 5 a 5 5 0 0 1 -5 5 a 5 5 0 0 1 -5 -5 m 10 0 h 5"/>
<text class="comment" id="RegexRange" x="75" y="3462">
RegexRange</text>
<g class="sequence">
<g class="string">
<rect height="22" rx="10" ry="10" width="28" x="125" y="3446"/>
<text x="139" y="3462">
[</text>
</g>
<g class="optional">
<path d=" M 163 3457 h 24 m -24 0 a 12 12 0 0 0 12 -12 v 0 a 12 12 0 0 1 12 -12 h 124 m -59 0 l -5 -5 m 0 10 l 5 -5 m 59 0 a 12 12 0 0 1 12 12 v 0 a 12 12 0 0 0 12 12 h -24"/>
<a class="link" xlink:href="#RegexNegative">
<g class="symbol">
<rect height="22" width="124" x="187" y="3446"/>
<text x="249" y="3462">
RegexNegative</text>
</g>
</a>
</g>
<g class="repeat">
<path d=" M 345 3457 h 12 m 82 0 h 12 m -12 0 a 12 12 0 0 1 12 12 v 7 a 12 12 0 0 1 -12 12 m -52 0 h -30 a 12 12 0 0 1 -12 -12 v -7 a 12 12 0 0 1 12 -12"/>
<text class="comment" x="413" y="3493">
[0, ∞]</text>
<g class="sequence">
<g class="string">
<rect height="22" rx="10" ry="10" width="28" x="357" y="3446"/>
<text x="371" y="3462">
]</text>
</g>
<g class="character">
<rect height="22" rx="10" ry="10" width="44" x="395" y="3446"/>
<text x="417" y="3462">
ANY</text>
</g>
<path d=" M 385 3457 h 10"/>
</g>
</g>
<g class="string">
<rect height="22" rx="10" ry="10" width="28" x="461" y="3446"/>
<text x="475" y="3462">
]</text>
</g>
<path d=" M 153 3457 h 10"/>
<path d=" M 335 3457 h 10"/>
<path d=" M 451 3457 h 10"/>
</g>
<path d=" M 499 3457 h 5 a 5 5 0 0 1 5 -5 a 5 5 0 0 1 5 5 a 5 5 0 0 1 -5 5 a 5 5 0 0 1 -5 -5"/>
<path d=" M 25 3457 h 10"/>
<path d=" M 115 3457 h 10"/>
<path d=" M 489 3457 h 10"/>
</g>
<g class="sequence">
<path d=" M 10 3521 a 5 5 0 0 1 5 -5 a 5 5 0 0 1 5 5 a 5 5 0 0 1 -5 5 a 5 5 0 0 1 -5 -5 m 10 0 h 5"/>
<text class="comment" id="RegexNegative" x="85" y="3526">
RegexNegative</text>
<g class="string">
<rect height="22" rx="10" ry="10" width="28" x="146" y="3510"/>
<text x="160" y="3526">
^</text>
</g>
<path d=" M 184 3521 h 5 a 5 5 0 0 1 5 -5 a 5 5 0 0 1 5 5 a 5 5 0 0 1 -5 5 a 5 5 0 0 1 -5 -5"/>
<path d=" M 25 3521 h 10"/>
<path d=" M 136 3521 h 10"/>
<path d=" M 174 3521 h 10"/>
</g>
<g class="sequence">
<path d=" M 10 3568 a 5 5 0 0 1 5 -5 a 5 5 0 0 1 5 5 a 5 5 0 0 1 -5 5 a 5 5 0 0 1 -5 -5 m 10 0 h 5"/>
<text class="comment" id="Category" x="68" y="3573">
Category</text>
<g class="sequence">
<g class="sequence">
<a class="link" xlink:href="#OP_CATEGORY">
<g class="symbol">
<rect height="22" width="108" x="111" y="3557"/>
<text x="165" y="3573">
OP_CATEGORY</text>
</g>
</a>
<g class="character">
<rect height="22" rx="10" ry="10" width="52" x="229" y="3557"/>
<text x="255" y="3573">
HIDE</text>
</g>
<g class="string">
<rect height="22" rx="10" ry="10" width="28" x="291" y="3557"/>
<text x="305" y="3573">
{</text>
</g>
<g class="character">
<rect height="22" rx="10" ry="10" width="52" x="329" y="3557"/>
<text x="355" y="3573">
HIDE</text>
</g>
<g class="optional">
<path d=" M 391 3568 h 24 m -24 0 a 12 12 0 0 0 12 -12 v 0 a 12 12 0 0 1 12 -12 h 200 m -97 0 l -5 -5 m 0 10 l 5 -5 m 97 0 a 12 12 0 0 1 12 12 v 0 a 12 12 0 0 0 12 12 h -24"/>
<g class="sequence">
<a class="link" xlink:href="#Identifier">
<g class="symbol">
<rect height="22" width="100" x="415" y="3557"/>
<text x="465" y="3573">
Identifier</text>
</g>
</a>
<g class="character">
<rect height="22" rx="10" ry="10" width="52" x="525" y="3557"/>
<text x="551" y="3573">
HIDE</text>
</g>
<g class="string">
<rect height="22" rx="10" ry="10" width="28" x="587" y="3557"/>
<text x="601" y="3573">
=</text>
</g>
<path d=" M 515 3568 h 10"/>
<path d=" M 577 3568 h 10"/>
</g>
</g>
<g class="character">
<rect height="22" rx="10" ry="10" width="52" x="649" y="3557"/>
<text x="675" y="3573">
HIDE</text>
</g>
<path d=" M 219 3568 h 10"/>
<path d=" M 281 3568 h 10"/>
<path d=" M 319 3568 h 10"/>
<path d=" M 381 3568 h 10"/>
<path d=" M 639 3568 h 10"/>
</g>
<a class="link" xlink:href="#Identifier">
<g class="symbol">
<rect height="22" width="100" x="711" y="3557"/>
<text x="761" y="3573">
Identifier</text>
</g>
</a>
<g class="character">
<rect height="22" rx="10" ry="10" width="52" x="821" y="3557"/>
<text x="847" y="3573">
HIDE</text>
</g>
<g class="string">
<rect height="22" rx="10" ry="10" width="28" x="883" y="3557"/>
<text x="897" y="3573">
}</text>
</g>
<path d=" M 701 3568 h 10"/>
<path d=" M 811 3568 h 10"/>
<path d=" M 873 3568 h 10"/>
</g>
<path d=" M 921 3568 h 5 a 5 5 0 0 1 5 -5 a 5 5 0 0 1 5 5 a 5 5 0 0 1 -5 5 a 5 5 0 0 1 -5 -5"/>
<path d=" M 25 3568 h 10"/>
<path d=" M 101 3568 h 10"/>
<path d=" M 911 3568 h 10"/>
</g>
<g class="sequence">
<path d=" M 10 3602 a 5 5 0 0 1 5 -5 a 5 5 0 0 1 5 5 a 5 5 0 0 1 -5 5 a 5 5 0 0 1 -5 -5 m 10 0 h 5"/>
<text class="comment" id="NamepathFree" x="82" y="3607">
NamepathFree</text>
<g class="sequence">
<a class="link" xlink:href="#Identifier">
<g class="symbol">
<rect height="22" width="100" x="139" y="3591"/>
<text x="189" y="3607">
Identifier</text>
</g>
</a>
<g class="character">
<rect height="22" rx="10" ry="10" width="52" x="249" y="3591"/>
<text x="275" y="3607">
HIDE</text>
</g>
<g class="repeat">
<path d=" M 311 3602 h 12 m 318 0 h 12 m -12 0 a 12 12 0 0 1 12 12 v 40 a 12 12 0 0 1 -12 12 m -52 0 h -266 m 136 0 l 5 -5 m 0 10 l -5 -5 m -136 0 a 12 12 0 0 1 -12 -12 v -40 a 12 12 0 0 1 12 -12"/>
<text class="comment" x="615" y="3671">
[0, ∞]</text>
<g class="sequence">
<g class="character">
<rect height="22" rx="10" ry="10" width="52" x="323" y="3591"/>
<text x="349" y="3607">
HIDE</text>
</g>
<g class="sequence">
<g class="choice">
<path d=" M 385 3602 h 24 m 28 0 h 32"/>
<g class="string">
<rect height="22" rx="10" ry="10" width="28" x="409" y="3591"/>
<text x="423" y="3607">
.</text>
</g>
<path d=" M 385 3602 a 12 12 0 0 1 12 12 v 9 m 60 0 v -9 a 12 12 0 0 1 12 -12"/>
<path d=" M 397 3623 v 0 a 12 12 0 0 0 12 12 m 36 0 h 0 a 12 12 0 0 0 12 -12 v 0"/>
<g class="string">
<rect height="22" rx="10" ry="10" width="36" x="409" y="3624"/>
<text x="427" y="3640">
::</text>
</g>
</g>
<g class="character">
<rect height="22" rx="10" ry="10" width="52" x="479" y="3591"/>
<text x="505" y="3607">
HIDE</text>
</g>
<a class="link" xlink:href="#Identifier">
<g class="symbol">
<rect height="22" width="100" x="541" y="3591"/>
<text x="591" y="3607">
Identifier</text>
</g>
</a>
<path d=" M 469 3602 h 10"/>
<path d=" M 531 3602 h 10"/>
</g>
<path d=" M 375 3602 h 10"/>
</g>
</g>
<path d=" M 239 3602 h 10"/>
<path d=" M 301 3602 h 10"/>
</g>
<path d=" M 663 3602 h 5 a 5 5 0 0 1 5 -5 a 5 5 0 0 1 5 5 a 5 5 0 0 1 -5 5 a 5 5 0 0 1 -5 -5"/>
<path d=" M 25 3602 h 10"/>
<path d=" M 129 3602 h 10"/>
<path d=" M 653 3602 h 10"/>
</g>
<g class="sequence">
<path d=" M 10 3699 a 5 5 0 0 1 5 -5 a 5 5 0 0 1 5 5 a 5 5 0 0 1 -5 5 a 5 5 0 0 1 -5 -5 m 10 0 h 5"/>
<text class="comment" id="Namepath" x="68" y="3704">
Namepath</text>
<g class="sequence">
<a class="link" xlink:href="#Identifier">
<g class="symbol">
<rect height="22" width="100" x="111" y="3688"/>
<text x="161" y="3704">
Identifier</text>
</g>
</a>
<g class="character">
<rect height="22" rx="10" ry="10" width="52" x="221" y="3688"/>
<text x="247" y="3704">
HIDE</text>
</g>
<g class="repeat">
<path d=" M 283 3699 h 12 m 270 0 h 12 m -12 0 a 12 12 0 0 1 12 12 v 7 a 12 12 0 0 1 -12 12 m -52 0 h -218 m 112 0 l 5 -5 m 0 10 l -5 -5 m -112 0 a 12 12 0 0 1 -12 -12 v -7 a 12 12 0 0 1 12 -12"/>
<text class="comment" x="539" y="3735">
[0, ∞]</text>
<g class="sequence">
<g class="character">
<rect height="22" rx="10" ry="10" width="52" x="295" y="3688"/>
<text x="321" y="3704">
HIDE</text>
</g>
<g class="sequence">
<g class="string">
<rect height="22" rx="10" ry="10" width="36" x="357" y="3688"/>
<text x="375" y="3704">
::</text>
</g>
<g class="character">
<rect height="22" rx="10" ry="10" width="52" x="403" y="3688"/>
<text x="429" y="3704">
HIDE</text>
</g>
<a class="link" xlink:href="#Identifier">
<g class="symbol">
<rect height="22" width="100" x="465" y="3688"/>
<text x="515" y="3704">
Identifier</text>
</g>
</a>
<path d=" M 393 3699 h 10"/>
<path d=" M 455 3699 h 10"/>
</g>
<path d=" M 347 3699 h 10"/>
</g>
</g>
<path d=" M 211 3699 h 10"/>
<path d=" M 273 3699 h 10"/>
</g>
<path d=" M 587 3699 h 5 a 5 5 0 0 1 5 -5 a 5 5 0 0 1 5 5 a 5 5 0 0 1 -5 5 a 5 5 0 0 1 -5 -5"/>
<path d=" M 25 3699 h 10"/>
<path d=" M 101 3699 h 10"/>
<path d=" M 577 3699 h 10"/>
</g>
<g class="sequence">
<path d=" M 10 3763 a 5 5 0 0 1 5 -5 a 5 5 0 0 1 5 5 a 5 5 0 0 1 -5 5 a 5 5 0 0 1 -5 -5 m 10 0 h 5"/>
<text class="comment" id="Identifier" x="75" y="3768">
Identifier</text>
<g class="string">
<rect height="22" rx="10" ry="10" width="292" x="125" y="3752"/>
<text x="271" y="3768">
[_\p{XID_start}]\p{XID_continue}*</text>
</g>
<path d=" M 427 3763 h 5 a 5 5 0 0 1 5 -5 a 5 5 0 0 1 5 5 a 5 5 0 0 1 -5 5 a 5 5 0 0 1 -5 -5"/>
<path d=" M 25 3763 h 10"/>
<path d=" M 115 3763 h 10"/>
<path d=" M 417 3763 h 10"/>
</g>
<g class="sequence">
<path d=" M 10 3797 a 5 5 0 0 1 5 -5 a 5 5 0 0 1 5 5 a 5 5 0 0 1 -5 5 a 5 5 0 0 1 -5 -5 m 10 0 h 5"/>
<text class="comment" id="True" x="54" y="3802">
True</text>
<g class="string">
<rect height="22" rx="10" ry="10" width="52" x="83" y="3786"/>
<text x="109" y="3802">
true</text>
</g>
<path d=" M 145 3797 h 5 a 5 5 0 0 1 5 -5 a 5 5 0 0 1 5 5 a 5 5 0 0 1 -5 5 a 5 5 0 0 1 -5 -5"/>
<path d=" M 25 3797 h 10"/>
<path d=" M 73 3797 h 10"/>
<path d=" M 135 3797 h 10"/>
</g>
<g class="sequence">
<path d=" M 10 3831 a 5 5 0 0 1 5 -5 a 5 5 0 0 1 5 5 a 5 5 0 0 1 -5 5 a 5 5 0 0 1 -5 -5 m 10 0 h 5"/>
<text class="comment" id="False" x="57" y="3836">
False</text>
<g class="string">
<rect height="22" rx="10" ry="10" width="60" x="90" y="3820"/>
<text x="120" y="3836">
false</text>
</g>
<path d=" M 160 3831 h 5 a 5 5 0 0 1 5 -5 a 5 5 0 0 1 5 5 a 5 5 0 0 1 -5 5 a 5 5 0 0 1 -5 -5"/>
<path d=" M 25 3831 h 10"/>
<path d=" M 80 3831 h 10"/>
<path d=" M 150 3831 h 10"/>
</g>
<g class="sequence">
<path d=" M 10 3865 a 5 5 0 0 1 5 -5 a 5 5 0 0 1 5 5 a 5 5 0 0 1 -5 5 a 5 5 0 0 1 -5 -5 m 10 0 h 5"/>
<text class="comment" id="Boolean" x="64" y="3870">
Boolean</text>
<g class="choice">
<path d=" M 104 3865 h 24 m 52 0 h 32"/>
<a class="link" xlink:href="#True">
<g class="symbol">
<rect height="22" width="52" x="128" y="3854"/>
<text x="154" y="3870">
True</text>
</g>
</a>
<path d=" M 104 3865 a 12 12 0 0 1 12 12 v 9 m 84 0 v -9 a 12 12 0 0 1 12 -12"/>
<path d=" M 116 3886 v 0 a 12 12 0 0 0 12 12 m 60 0 h 0 a 12 12 0 0 0 12 -12 v 0"/>
<a class="link" xlink:href="#False">
<g class="symbol">
<rect height="22" width="60" x="128" y="3887"/>
<text x="158" y="3903">
False</text>
</g>
</a>
</g>
<path d=" M 222 3865 h 5 a 5 5 0 0 1 5 -5 a 5 5 0 0 1 5 5 a 5 5 0 0 1 -5 5 a 5 5 0 0 1 -5 -5"/>
<path d=" M 25 3865 h 10"/>
<path d=" M 94 3865 h 10"/>
<path d=" M 212 3865 h 10"/>
</g>
<g class="sequence">
<path d=" M 10 3932 a 5 5 0 0 1 5 -5 a 5 5 0 0 1 5 5 a 5 5 0 0 1 -5 5 a 5 5 0 0 1 -5 -5 m 10 0 h 5"/>
<text class="comment" id="Integer" x="64" y="3937">
Integer</text>
<g class="string">
<rect height="22" rx="10" ry="10" width="124" x="104" y="3921"/>
<text x="166" y="3937">
0|[1-9][0-9]*</text>
</g>
<path d=" M 238 3932 h 5 a 5 5 0 0 1 5 -5 a 5 5 0 0 1 5 5 a 5 5 0 0 1 -5 5 a 5 5 0 0 1 -5 -5"/>
<path d=" M 25 3932 h 10"/>
<path d=" M 94 3932 h 10"/>
<path d=" M 228 3932 h 10"/>
</g>
<g class="sequence">
<path d=" M 10 3966 a 5 5 0 0 1 5 -5 a 5 5 0 0 1 5 5 a 5 5 0 0 1 -5 5 a 5 5 0 0 1 -5 -5 m 10 0 h 5"/>
<text class="comment" id="RangeExact" x="75" y="3971">
RangeExact</text>
<g class="sequence">
<g class="string">
<rect height="22" rx="10" ry="10" width="28" x="125" y="3955"/>
<text x="139" y="3971">
{</text>
</g>
<g class="character">
<rect height="22" rx="10" ry="10" width="52" x="163" y="3955"/>
<text x="189" y="3971">
HIDE</text>
</g>
<a class="link" xlink:href="#Integer">
<g class="symbol">
<rect height="22" width="76" x="225" y="3955"/>
<text x="263" y="3971">
Integer</text>
</g>
</a>
<g class="character">
<rect height="22" rx="10" ry="10" width="52" x="311" y="3955"/>
<text x="337" y="3971">
HIDE</text>
</g>
<g class="string">
<rect height="22" rx="10" ry="10" width="28" x="373" y="3955"/>
<text x="387" y="3971">
}</text>
</g>
<path d=" M 153 3966 h 10"/>
<path d=" M 215 3966 h 10"/>
<path d=" M 301 3966 h 10"/>
<path d=" M 363 3966 h 10"/>
</g>
<path d=" M 411 3966 h 5 a 5 5 0 0 1 5 -5 a 5 5 0 0 1 5 5 a 5 5 0 0 1 -5 5 a 5 5 0 0 1 -5 -5"/>
<path d=" M 25 3966 h 10"/>
<path d=" M 115 3966 h 10"/>
<path d=" M 401 3966 h 10"/>
</g>
<g class="sequence">
<path d=" M 10 4013 a 5 5 0 0 1 5 -5 a 5 5 0 0 1 5 5 a 5 5 0 0 1 -5 5 a 5 5 0 0 1 -5 -5 m 10 0 h 5"/>
<text class="comment" id="Range" x="57" y="4018">
Range</text>
<g class="sequence">
<g class="string">
<rect height="22" rx="10" ry="10" width="28" x="90" y="4002"/>
<text x="104" y="4018">
{</text>
</g>
<g class="character">
<rect height="22" rx="10" ry="10" width="52" x="128" y="4002"/>
<text x="154" y="4018">
HIDE</text>
</g>
<g class="optional">
<path d=" M 190 4013 h 24 m -24 0 a 12 12 0 0 0 12 -12 v 0 a 12 12 0 0 1 12 -12 h 76 m -35 0 l -5 -5 m 0 10 l 5 -5 m 35 0 a 12 12 0 0 1 12 12 v 0 a 12 12 0 0 0 12 12 h -24"/>
<a class="link" xlink:href="#Integer">
<g class="symbol">
<rect height="22" width="76" x="214" y="4002"/>
<text x="252" y="4018">
Integer</text>
</g>
</a>
</g>
<g class="character">
<rect height="22" rx="10" ry="10" width="52" x="324" y="4002"/>
<text x="350" y="4018">
HIDE</text>
</g>
<g class="string">
<rect height="22" rx="10" ry="10" width="28" x="386" y="4002"/>
<text x="400" y="4018">
,</text>
</g>
<g class="character">
<rect height="22" rx="10" ry="10" width="52" x="424" y="4002"/>
<text x="450" y="4018">
HIDE</text>
</g>
<g class="optional">
<path d=" M 486 4013 h 24 m -24 0 a 12 12 0 0 0 12 -12 v 0 a 12 12 0 0 1 12 -12 h 76 m -35 0 l -5 -5 m 0 10 l 5 -5 m 35 0 a 12 12 0 0 1 12 12 v 0 a 12 12 0 0 0 12 12 h -24"/>
<a class="link" xlink:href="#Integer">
<g class="symbol">
<rect height="22" width="76" x="510" y="4002"/>
<text x="548" y="4018">
Integer</text>
</g>
</a>
</g>
<g class="character">
<rect height="22" rx="10" ry="10" width="52" x="620" y="4002"/>
<text x="646" y="4018">
HIDE</text>
</g>
<g class="string">
<rect height="22" rx="10" ry="10" width="28" x="682" y="4002"/>
<text x="696" y="4018">
}</text>
</g>
<path d=" M 118 4013 h 10"/>
<path d=" M 180 4013 h 10"/>
<path d=" M 314 4013 h 10"/>
<path d=" M 376 4013 h 10"/>
<path d=" M 414 4013 h 10"/>
<path d=" M 476 4013 h 10"/>
<path d=" M 610 4013 h 10"/>
<path d=" M 672 4013 h 10"/>
</g>
<path d=" M 720 4013 h 5 a 5 5 0 0 1 5 -5 a 5 5 0 0 1 5 5 a 5 5 0 0 1 -5 5 a 5 5 0 0 1 -5 -5"/>
<path d=" M 25 4013 h 10"/>
<path d=" M 80 4013 h 10"/>
<path d=" M 710 4013 h 10"/>
</g>
<g class="sequence">
<path d=" M 10 4047 a 5 5 0 0 1 5 -5 a 5 5 0 0 1 5 5 a 5 5 0 0 1 -5 5 a 5 5 0 0 1 -5 -5 m 10 0 h 5"/>
<text class="comment" id="ModifierCall" x="82" y="4052">
ModifierCall</text>
<g class="sequence">
<g class="choice">
<path d=" M 139 4047 h 24 m 84 0 h 24"/>
<a class="link" xlink:href="#KW_CLASS">
<g class="symbol">
<rect height="22" width="84" x="163" y="4036"/>
<text x="205" y="4052">
KW_CLASS</text>
</g>
</a>
<path d=" M 139 4047 a 12 12 0 0 1 12 12 v 9 m 108 0 v -9 a 12 12 0 0 1 12 -12"/>
<path d=" M 151 4068 v 33 m 108 0 v -33"/>
<path d=" M 151 4101 v 33 m 108 0 v -33"/>
<path d=" M 151 4134 v 33 m 108 0 v -33"/>
<path d=" M 151 4068 v 0 a 12 12 0 0 0 12 12 m 84 0 h 0 a 12 12 0 0 0 12 -12 v 0"/>
<a class="link" xlink:href="#KW_UNION">
<g class="symbol">
<rect height="22" width="84" x="163" y="4069"/>
<text x="205" y="4085">
KW_UNION</text>
</g>
</a>
<path d=" M 151 4101 v 0 a 12 12 0 0 0 12 12 m 84 0 h 0 a 12 12 0 0 0 12 -12 v 0"/>
<a class="link" xlink:href="#KW_GROUP">
<g class="symbol">
<rect height="22" width="84" x="163" y="4102"/>
<text x="205" y="4118">
KW_GROUP</text>
</g>
</a>
<path d=" M 151 4134 v 0 a 12 12 0 0 0 12 12 m 84 0 h 0 a 12 12 0 0 0 12 -12 v 0"/>
<a class="link" xlink:href="#KW_MACRO">
<g class="symbol">
<rect height="22" width="84" x="163" y="4135"/>
<text x="205" y="4151">
KW_MACRO</text>
</g>
</a>
<path d=" M 151 4167 v 0 a 12 12 0 0 0 12 12 m 84 0 h 0 a 12 12 0 0 0 12 -12 v 0"/>
<a class="link" xlink:href="#KW_CLIMB">
<g class="symbol">
<rect height="22" width="84" x="163" y="4168"/>
<text x="205" y="4184">
KW_CLIMB</text>
</g>
</a>
</g>
<a class="link" xlink:href="#Identifier">
<g class="symbol">
<rect height="22" width="100" x="281" y="4036"/>
<text x="331" y="4052">
Identifier</text>
</g>
</a>
<path d=" M 271 4047 h 10"/>
</g>
<path d=" M 391 4047 h 5 a 5 5 0 0 1 5 -5 a 5 5 0 0 1 5 5 a 5 5 0 0 1 -5 5 a 5 5 0 0 1 -5 -5"/>
<path d=" M 25 4047 h 10"/>
<path d=" M 129 4047 h 10"/>
<path d=" M 381 4047 h 10"/>
</g>
<g class="sequence">
<path d=" M 10 4213 a 5 5 0 0 1 5 -5 a 5 5 0 0 1 5 5 a 5 5 0 0 1 -5 5 a 5 5 0 0 1 -5 -5 m 10 0 h 5"/>
<text class="comment" id="Parser" x="61" y="4218">
Parser</text>
<g class="string">
<rect height="22" rx="10" ry="10" width="68" x="97" y="4202"/>
<text x="131" y="4218">
parser</text>
</g>
<path d=" M 175 4213 h 5 a 5 5 0 0 1 5 -5 a 5 5 0 0 1 5 5 a 5 5 0 0 1 -5 5 a 5 5 0 0 1 -5 -5"/>
<path d=" M 25 4213 h 10"/>
<path d=" M 87 4213 h 10"/>
<path d=" M 165 4213 h 10"/>
</g>
<g class="sequence">
<path d=" M 10 4247 a 5 5 0 0 1 5 -5 a 5 5 0 0 1 5 5 a 5 5 0 0 1 -5 5 a 5 5 0 0 1 -5 -5 m 10 0 h 5"/>
<text class="comment" id="Inspector" x="71" y="4252">
Inspector</text>
<g class="string">
<rect height="22" rx="10" ry="10" width="92" x="118" y="4236"/>
<text x="164" y="4252">
inspector</text>
</g>
<path d=" M 220 4247 h 5 a 5 5 0 0 1 5 -5 a 5 5 0 0 1 5 5 a 5 5 0 0 1 -5 5 a 5 5 0 0 1 -5 -5"/>
<path d=" M 25 4247 h 10"/>
<path d=" M 108 4247 h 10"/>
<path d=" M 210 4247 h 10"/>
</g>
<g class="sequence">
<path d=" M 10 4281 a 5 5 0 0 1 5 -5 a 5 5 0 0 1 5 5 a 5 5 0 0 1 -5 5 a 5 5 0 0 1 -5 -5 m 10 0 h 5"/>
<text class="comment" id="External" x="68" y="4286">
External</text>
<g class="string">
<rect height="22" rx="10" ry="10" width="84" x="111" y="4270"/>
<text x="153" y="4286">
external</text>
</g>
<path d=" M 205 4281 h 5 a 5 5 0 0 1 5 -5 a 5 5 0 0 1 5 5 a 5 5 0 0 1 -5 5 a 5 5 0 0 1 -5 -5"/>
<path d=" M 25 4281 h 10"/>
<path d=" M 101 4281 h 10"/>
<path d=" M 195 4281 h 10"/>
</g>
<g class="sequence">
<path d=" M 10 4315 a 5 5 0 0 1 5 -5 a 5 5 0 0 1 5 5 a 5 5 0 0 1 -5 5 a 5 5 0 0 1 -5 -5 m 10 0 h 5"/>
<text class="comment" id="Comment" x="64" y="4320">
Comment</text>
<g class="string">
<rect height="22" rx="10" ry="10" width="100" x="104" y="4304"/>
<text x="154" y="4320">
//[^\n\r]*</text>
</g>
<path d=" M 214 4315 h 5 a 5 5 0 0 1 5 -5 a 5 5 0 0 1 5 5 a 5 5 0 0 1 -5 5 a 5 5 0 0 1 -5 -5"/>
<path d=" M 25 4315 h 10"/>
<path d=" M 94 4315 h 10"/>
<path d=" M 204 4315 h 10"/>
</g>
</g>
</svg>