<svg class="railroad" viewBox="0 0 674 1294" xmlns="http://www.w3.org/2000/svg"
     xmlns:xlink="http://www.w3.org/1999/xlink">
    <style type="text/css">svg.railroad{background-color:hsl(30,20%,95%);background-size:15px
        15px;background-image:linear-gradient(to right,rgba(30,30,30,.05) 1px,transparent 1px),linear-gradient(to
        bottom,rgba(30,30,30,.05) 1px,transparent 1px);}svg.railroad
        path{stroke-width:3px;stroke:black;fill:transparent;}svg.railroad
        .debug{stroke-width:1px;stroke:red;}svg.railroad
        text{font-size:14px;font-family:monospace;text-anchor:middle;}svg.railroad .nonterminal
        text{font-weight:bold;}svg.railroad
        text.comment{font-family:serif;font-style:italic;font-size:12px;}svg.railroad
        rect{stroke-width:3px;stroke:black;}svg.railroad
        g.labeledbox>rect{stroke-width:1px;stroke:grey;stroke-dasharray:5px;fill:rgba(90,90,150,.1);}svg.railroad
        .symbol>rect{fill:rgba(90,90,150,.1);}svg.railroad .regex>rect{fill:honeydew;}svg.railroad
        .string>rect{fill:cornsilk;}svg.railroad .character>rect{fill:lightcoral;}
    </style>
    <g class="verticalgrid">
        <g class="sequence">
            <path d=" M 10 21 a 5 5 0 0 1 5 -5 a 5 5 0 0 1 5 5 a 5 5 0 0 1 -5 5 a 5 5 0 0 1 -5 -5 m 10 0 h 5"/>
            <text class="comment" id="Root" x="54" y="26">
                Root
            </text>
            <g class="repeat">
                <path
                    d=" M 83 21 h 12 m 92 0 h 12 m -12 0 a 12 12 0 0 1 12 12 v 7 a 12 12 0 0 1 -12 12 m -17 0 h -75 m 40 0 l 5 -5 m 0 10 l -5 -5 m -40 0 a 12 12 0 0 1 -12 -12 v -7 a 12 12 0 0 1 12 -12"/>
                <text class="comment" x="178" y="57">
                    *
                </text>
                <a class="link" xlink:href="#Statement">
                    <g class="symbol">
                        <rect height="22" width="92" x="95" y="10"/>
                        <text x="141" y="26">
                            Statement
                        </text>
                    </g>
                </a>
            </g>
            <path d=" M 209 21 h 5 a 5 5 0 0 1 5 -5 a 5 5 0 0 1 5 5 a 5 5 0 0 1 -5 5 a 5 5 0 0 1 -5 -5"/>
            <path d=" M 25 21 h 10"/>
            <path d=" M 73 21 h 10"/>
            <path d=" M 199 21 h 10"/>
        </g>
        <g class="sequence">
            <path d=" M 10 85 a 5 5 0 0 1 5 -5 a 5 5 0 0 1 5 5 a 5 5 0 0 1 -5 5 a 5 5 0 0 1 -5 -5 m 10 0 h 5"/>
            <text class="comment" id="Statement" x="71" y="90">
                Statement
            </text>
            <g class="choice">
                <path d=" M 118 85 h 24 m 140 0 h 24"/>
                <a class="link" xlink:href="#ClassStatements">
                    <g class="symbol">
                        <rect height="22" width="140" x="142" y="74"/>
                        <text x="212" y="90">
                            ClassStatements
                        </text>
                    </g>
                </a>
                <path d=" M 118 85 a 12 12 0 0 1 12 12 v 9 m 164 0 v -9 a 12 12 0 0 1 12 -12"/>
                <path d=" M 130 106 v 0 a 12 12 0 0 0 12 12 m 140 0 h 0 a 12 12 0 0 0 12 -12 v 0"/>
                <a class="link" xlink:href="#UnionStatements">
                    <g class="symbol">
                        <rect height="22" width="140" x="142" y="107"/>
                        <text x="212" y="123">
                            UnionStatements
                        </text>
                    </g>
                </a>
            </g>
            <path d=" M 316 85 h 5 a 5 5 0 0 1 5 -5 a 5 5 0 0 1 5 5 a 5 5 0 0 1 -5 5 a 5 5 0 0 1 -5 -5"/>
            <path d=" M 25 85 h 10"/>
            <path d=" M 108 85 h 10"/>
            <path d=" M 306 85 h 10"/>
        </g>
        <g class="sequence">
            <path d=" M 10 152 a 5 5 0 0 1 5 -5 a 5 5 0 0 1 5 5 a 5 5 0 0 1 -5 5 a 5 5 0 0 1 -5 -5 m 10 0 h 5"/>
            <text class="comment" id="ClassStatements" x="92" y="157">
                ClassStatements
            </text>
            <g class="sequence">
                <a class="link" xlink:href="#KW_CLASS">
                    <g class="symbol">
                        <rect height="22" width="84" x="160" y="141"/>
                        <text x="202" y="157">
                            KW_CLASS
                        </text>
                    </g>
                </a>
                <g class="character">
                    <rect height="22" rx="10" ry="10" width="76" x="254" y="141"/>
                    <text x="292" y="157">
                        IGNORED
                    </text>
                </g>
                <a class="link" xlink:href="#Identifier">
                    <g class="symbol">
                        <rect height="22" width="100" x="340" y="141"/>
                        <text x="390" y="157">
                            Identifier
                        </text>
                    </g>
                </a>
                <g class="character">
                    <rect height="22" rx="10" ry="10" width="76" x="450" y="141"/>
                    <text x="488" y="157">
                        IGNORED
                    </text>
                </g>
                <a class="link" xlink:href="#ClassBlock">
                    <g class="symbol">
                        <rect height="22" width="100" x="536" y="141"/>
                        <text x="586" y="157">
                            ClassBlock
                        </text>
                    </g>
                </a>
                <path d=" M 244 152 h 10"/>
                <path d=" M 330 152 h 10"/>
                <path d=" M 440 152 h 10"/>
                <path d=" M 526 152 h 10"/>
            </g>
            <path d=" M 646 152 h 5 a 5 5 0 0 1 5 -5 a 5 5 0 0 1 5 5 a 5 5 0 0 1 -5 5 a 5 5 0 0 1 -5 -5"/>
            <path d=" M 25 152 h 10"/>
            <path d=" M 150 152 h 10"/>
            <path d=" M 636 152 h 10"/>
        </g>
        <g class="sequence">
            <path d=" M 10 186 a 5 5 0 0 1 5 -5 a 5 5 0 0 1 5 5 a 5 5 0 0 1 -5 5 a 5 5 0 0 1 -5 -5 m 10 0 h 5"/>
            <text class="comment" id="ClassBlock" x="75" y="191">
                ClassBlock
            </text>
            <g class="sequence">
                <g class="string">
                    <rect height="22" rx="10" ry="10" width="28" x="125" y="175"/>
                    <text x="139" y="191">
                        {
                    </text>
                </g>
                <g class="character">
                    <rect height="22" rx="10" ry="10" width="76" x="163" y="175"/>
                    <text x="201" y="191">
                        IGNORED
                    </text>
                </g>
                <g class="repeat">
                    <path
                        d=" M 249 186 h 12 m 100 0 h 12 m -12 0 a 12 12 0 0 1 12 12 v 7 a 12 12 0 0 1 -12 12 m -17 0 h -83 m 44 0 l 5 -5 m 0 10 l -5 -5 m -44 0 a 12 12 0 0 1 -12 -12 v -7 a 12 12 0 0 1 12 -12"/>
                    <text class="comment" x="352" y="222">
                        *
                    </text>
                    <a class="link" xlink:href="#Expression">
                        <g class="symbol">
                            <rect height="22" width="100" x="261" y="175"/>
                            <text x="311" y="191">
                                Expression
                            </text>
                        </g>
                    </a>
                </g>
                <g class="character">
                    <rect height="22" rx="10" ry="10" width="76" x="383" y="175"/>
                    <text x="421" y="191">
                        IGNORED
                    </text>
                </g>
                <g class="string">
                    <rect height="22" rx="10" ry="10" width="28" x="469" y="175"/>
                    <text x="483" y="191">
                        }
                    </text>
                </g>
                <path d=" M 153 186 h 10"/>
                <path d=" M 239 186 h 10"/>
                <path d=" M 373 186 h 10"/>
                <path d=" M 459 186 h 10"/>
            </g>
            <path d=" M 507 186 h 5 a 5 5 0 0 1 5 -5 a 5 5 0 0 1 5 5 a 5 5 0 0 1 -5 5 a 5 5 0 0 1 -5 -5"/>
            <path d=" M 25 186 h 10"/>
            <path d=" M 115 186 h 10"/>
            <path d=" M 497 186 h 10"/>
        </g>
        <g class="sequence">
            <path d=" M 10 250 a 5 5 0 0 1 5 -5 a 5 5 0 0 1 5 5 a 5 5 0 0 1 -5 5 a 5 5 0 0 1 -5 -5 m 10 0 h 5"/>
            <text class="comment" id="UnionStatements" x="92" y="255">
                UnionStatements
            </text>
            <g class="sequence">
                <a class="link" xlink:href="#KW_UNION">
                    <g class="symbol">
                        <rect height="22" width="84" x="160" y="239"/>
                        <text x="202" y="255">
                            KW_UNION
                        </text>
                    </g>
                </a>
                <g class="character">
                    <rect height="22" rx="10" ry="10" width="76" x="254" y="239"/>
                    <text x="292" y="255">
                        IGNORED
                    </text>
                </g>
                <a class="link" xlink:href="#Identifier">
                    <g class="symbol">
                        <rect height="22" width="100" x="340" y="239"/>
                        <text x="390" y="255">
                            Identifier
                        </text>
                    </g>
                </a>
                <path d=" M 244 250 h 10"/>
                <path d=" M 330 250 h 10"/>
            </g>
            <path d=" M 450 250 h 5 a 5 5 0 0 1 5 -5 a 5 5 0 0 1 5 5 a 5 5 0 0 1 -5 5 a 5 5 0 0 1 -5 -5"/>
            <path d=" M 25 250 h 10"/>
            <path d=" M 150 250 h 10"/>
            <path d=" M 440 250 h 10"/>
        </g>
        <g class="sequence">
            <path d=" M 10 284 a 5 5 0 0 1 5 -5 a 5 5 0 0 1 5 5 a 5 5 0 0 1 -5 5 a 5 5 0 0 1 -5 -5 m 10 0 h 5"/>
            <text class="comment" id="UnionBlock" x="75" y="289">
                UnionBlock
            </text>
            <g class="sequence">
                <g class="string">
                    <rect height="22" rx="10" ry="10" width="28" x="125" y="273"/>
                    <text x="139" y="289">
                        {
                    </text>
                </g>
                <g class="character">
                    <rect height="22" rx="10" ry="10" width="76" x="163" y="273"/>
                    <text x="201" y="289">
                        IGNORED
                    </text>
                </g>
                <g class="repeat">
                    <path
                        d=" M 249 284 h 12 m 108 0 h 12 m -12 0 a 12 12 0 0 1 12 12 v 7 a 12 12 0 0 1 -12 12 m -17 0 h -91 m 48 0 l 5 -5 m 0 10 l -5 -5 m -48 0 a 12 12 0 0 1 -12 -12 v -7 a 12 12 0 0 1 12 -12"/>
                    <text class="comment" x="360" y="320">
                        *
                    </text>
                    <a class="link" xlink:href="#UnionBranch">
                        <g class="symbol">
                            <rect height="22" width="108" x="261" y="273"/>
                            <text x="315" y="289">
                                UnionBranch
                            </text>
                        </g>
                    </a>
                </g>
                <g class="character">
                    <rect height="22" rx="10" ry="10" width="76" x="391" y="273"/>
                    <text x="429" y="289">
                        IGNORED
                    </text>
                </g>
                <g class="string">
                    <rect height="22" rx="10" ry="10" width="28" x="477" y="273"/>
                    <text x="491" y="289">
                        }
                    </text>
                </g>
                <path d=" M 153 284 h 10"/>
                <path d=" M 239 284 h 10"/>
                <path d=" M 381 284 h 10"/>
                <path d=" M 467 284 h 10"/>
            </g>
            <path d=" M 515 284 h 5 a 5 5 0 0 1 5 -5 a 5 5 0 0 1 5 5 a 5 5 0 0 1 -5 5 a 5 5 0 0 1 -5 -5"/>
            <path d=" M 25 284 h 10"/>
            <path d=" M 115 284 h 10"/>
            <path d=" M 505 284 h 10"/>
        </g>
        <g class="sequence">
            <path d=" M 10 348 a 5 5 0 0 1 5 -5 a 5 5 0 0 1 5 5 a 5 5 0 0 1 -5 5 a 5 5 0 0 1 -5 -5 m 10 0 h 5"/>
            <text class="comment" id="UnionBranch" x="78" y="353">
                UnionBranch
            </text>
            <a class="link" xlink:href="#Expression">
                <g class="symbol">
                    <rect height="22" width="100" x="132" y="337"/>
                    <text x="182" y="353">
                        Expression
                    </text>
                </g>
            </a>
            <path d=" M 242 348 h 5 a 5 5 0 0 1 5 -5 a 5 5 0 0 1 5 5 a 5 5 0 0 1 -5 5 a 5 5 0 0 1 -5 -5"/>
            <path d=" M 25 348 h 10"/>
            <path d=" M 122 348 h 10"/>
            <path d=" M 232 348 h 10"/>
        </g>
        <g class="sequence">
            <path d=" M 10 382 a 5 5 0 0 1 5 -5 a 5 5 0 0 1 5 5 a 5 5 0 0 1 -5 5 a 5 5 0 0 1 -5 -5 m 10 0 h 5"/>
            <text class="comment" id="GroupStatements" x="92" y="387">
                GroupStatements
            </text>
            <g class="sequence">
                <a class="link" xlink:href="#KW_GROUP">
                    <g class="symbol">
                        <rect height="22" width="84" x="160" y="371"/>
                        <text x="202" y="387">
                            KW_GROUP
                        </text>
                    </g>
                </a>
                <g class="character">
                    <rect height="22" rx="10" ry="10" width="76" x="254" y="371"/>
                    <text x="292" y="387">
                        IGNORED
                    </text>
                </g>
                <a class="link" xlink:href="#Identifier">
                    <g class="symbol">
                        <rect height="22" width="100" x="340" y="371"/>
                        <text x="390" y="387">
                            Identifier
                        </text>
                    </g>
                </a>
                <path d=" M 244 382 h 10"/>
                <path d=" M 330 382 h 10"/>
            </g>
            <path d=" M 450 382 h 5 a 5 5 0 0 1 5 -5 a 5 5 0 0 1 5 5 a 5 5 0 0 1 -5 5 a 5 5 0 0 1 -5 -5"/>
            <path d=" M 25 382 h 10"/>
            <path d=" M 150 382 h 10"/>
            <path d=" M 440 382 h 10"/>
        </g>
        <g class="sequence">
            <path d=" M 10 416 a 5 5 0 0 1 5 -5 a 5 5 0 0 1 5 5 a 5 5 0 0 1 -5 5 a 5 5 0 0 1 -5 -5 m 10 0 h 5"/>
            <text class="comment" id="Expression" x="75" y="421">
                Expression
            </text>
            <g class="sequence">
                <a class="link" xlink:href="#Term">
                    <g class="symbol">
                        <rect height="22" width="52" x="125" y="405"/>
                        <text x="151" y="421">
                            Term
                        </text>
                    </g>
                </a>
                <g class="character">
                    <rect height="22" rx="10" ry="10" width="76" x="187" y="405"/>
                    <text x="225" y="421">
                        IGNORED
                    </text>
                </g>
                <g class="repeat">
                    <path
                        d=" M 273 416 h 12 m 208 0 h 12 m -12 0 a 12 12 0 0 1 12 12 v 7 a 12 12 0 0 1 -12 12 m -17 0 h -191 m 98 0 l 5 -5 m 0 10 l -5 -5 m -98 0 a 12 12 0 0 1 -12 -12 v -7 a 12 12 0 0 1 12 -12"/>
                    <text class="comment" x="484" y="452">
                        *
                    </text>
                    <g class="sequence">
                        <a class="link" xlink:href="#Infix">
                            <g class="symbol">
                                <rect height="22" width="60" x="285" y="405"/>
                                <text x="315" y="421">
                                    Infix
                                </text>
                            </g>
                        </a>
                        <g class="character">
                            <rect height="22" rx="10" ry="10" width="76" x="355" y="405"/>
                            <text x="393" y="421">
                                IGNORED
                            </text>
                        </g>
                        <a class="link" xlink:href="#Term">
                            <g class="symbol">
                                <rect height="22" width="52" x="441" y="405"/>
                                <text x="467" y="421">
                                    Term
                                </text>
                            </g>
                        </a>
                        <path d=" M 345 416 h 10"/>
                        <path d=" M 431 416 h 10"/>
                    </g>
                </g>
                <path d=" M 177 416 h 10"/>
                <path d=" M 263 416 h 10"/>
            </g>
            <path d=" M 515 416 h 5 a 5 5 0 0 1 5 -5 a 5 5 0 0 1 5 5 a 5 5 0 0 1 -5 5 a 5 5 0 0 1 -5 -5"/>
            <path d=" M 25 416 h 10"/>
            <path d=" M 115 416 h 10"/>
            <path d=" M 505 416 h 10"/>
        </g>
        <g class="sequence">
            <path d=" M 10 480 a 5 5 0 0 1 5 -5 a 5 5 0 0 1 5 5 a 5 5 0 0 1 -5 5 a 5 5 0 0 1 -5 -5 m 10 0 h 5"/>
            <text class="comment" id="Term" x="54" y="485">
                Term
            </text>
            <g class="sequence">
                <g class="repeat">
                    <path
                        d=" M 83 480 h 12 m 68 0 h 12 m -12 0 a 12 12 0 0 1 12 12 v 7 a 12 12 0 0 1 -12 12 m -17 0 h -51 m 28 0 l 5 -5 m 0 10 l -5 -5 m -28 0 a 12 12 0 0 1 -12 -12 v -7 a 12 12 0 0 1 12 -12"/>
                    <text class="comment" x="154" y="516">
                        *
                    </text>
                    <a class="link" xlink:href="#Prefix">
                        <g class="symbol">
                            <rect height="22" width="68" x="95" y="469"/>
                            <text x="129" y="485">
                                Prefix
                            </text>
                        </g>
                    </a>
                </g>
                <g class="character">
                    <rect height="22" rx="10" ry="10" width="76" x="185" y="469"/>
                    <text x="223" y="485">
                        IGNORED
                    </text>
                </g>
                <a class="link" xlink:href="#Atomic">
                    <g class="symbol">
                        <rect height="22" width="68" x="271" y="469"/>
                        <text x="305" y="485">
                            Atomic
                        </text>
                    </g>
                </a>
                <g class="character">
                    <rect height="22" rx="10" ry="10" width="76" x="349" y="469"/>
                    <text x="387" y="485">
                        IGNORED
                    </text>
                </g>
                <g class="repeat">
                    <path
                        d=" M 435 480 h 12 m 68 0 h 12 m -12 0 a 12 12 0 0 1 12 12 v 7 a 12 12 0 0 1 -12 12 m -17 0 h -51 m 28 0 l 5 -5 m 0 10 l -5 -5 m -28 0 a 12 12 0 0 1 -12 -12 v -7 a 12 12 0 0 1 12 -12"/>
                    <text class="comment" x="506" y="516">
                        *
                    </text>
                    <a class="link" xlink:href="#Suffix">
                        <g class="symbol">
                            <rect height="22" width="68" x="447" y="469"/>
                            <text x="481" y="485">
                                Suffix
                            </text>
                        </g>
                    </a>
                </g>
                <path d=" M 175 480 h 10"/>
                <path d=" M 261 480 h 10"/>
                <path d=" M 339 480 h 10"/>
                <path d=" M 425 480 h 10"/>
            </g>
            <path d=" M 537 480 h 5 a 5 5 0 0 1 5 -5 a 5 5 0 0 1 5 5 a 5 5 0 0 1 -5 5 a 5 5 0 0 1 -5 -5"/>
            <path d=" M 25 480 h 10"/>
            <path d=" M 73 480 h 10"/>
            <path d=" M 527 480 h 10"/>
        </g>
        <g class="sequence">
            <path d=" M 10 544 a 5 5 0 0 1 5 -5 a 5 5 0 0 1 5 5 a 5 5 0 0 1 -5 5 a 5 5 0 0 1 -5 -5 m 10 0 h 5"/>
            <text class="comment" id="Infix" x="57" y="549">
                Infix
            </text>
            <g class="choice">
                <path d=" M 90 544 h 0 m 28 0 h 0"/>
                <g class="string">
                    <rect height="22" rx="10" ry="10" width="28" x="90" y="533"/>
                    <text x="104" y="549">
                        ~
                    </text>
                </g>
            </g>
            <path d=" M 128 544 h 5 a 5 5 0 0 1 5 -5 a 5 5 0 0 1 5 5 a 5 5 0 0 1 -5 5 a 5 5 0 0 1 -5 -5"/>
            <path d=" M 25 544 h 10"/>
            <path d=" M 80 544 h 10"/>
            <path d=" M 118 544 h 10"/>
        </g>
        <g class="sequence">
            <path d=" M 10 578 a 5 5 0 0 1 5 -5 a 5 5 0 0 1 5 5 a 5 5 0 0 1 -5 5 a 5 5 0 0 1 -5 -5 m 10 0 h 5"/>
            <text class="comment" id="Prefix" x="61" y="583">
                Prefix
            </text>
            <g class="choice">
                <path d=" M 97 578 h 24 m 28 0 h 24"/>
                <g class="string">
                    <rect height="22" rx="10" ry="10" width="28" x="121" y="567"/>
                    <text x="135" y="583">
                        !
                    </text>
                </g>
                <path d=" M 97 578 a 12 12 0 0 1 12 12 v 9 m 52 0 v -9 a 12 12 0 0 1 12 -12"/>
                <path d=" M 109 599 v 33 m 52 0 v -33"/>
                <path d=" M 109 599 v 0 a 12 12 0 0 0 12 12 m 28 0 h 0 a 12 12 0 0 0 12 -12 v 0"/>
                <g class="string">
                    <rect height="22" rx="10" ry="10" width="28" x="121" y="600"/>
                    <text x="135" y="616">
                        &amp;
                    </text>
                </g>
                <path d=" M 109 632 v 0 a 12 12 0 0 0 12 12 m 28 0 h 0 a 12 12 0 0 0 12 -12 v 0"/>
                <g class="string">
                    <rect height="22" rx="10" ry="10" width="28" x="121" y="633"/>
                    <text x="135" y="649">
                        ^
                    </text>
                </g>
            </g>
            <path d=" M 183 578 h 5 a 5 5 0 0 1 5 -5 a 5 5 0 0 1 5 5 a 5 5 0 0 1 -5 5 a 5 5 0 0 1 -5 -5"/>
            <path d=" M 25 578 h 10"/>
            <path d=" M 87 578 h 10"/>
            <path d=" M 173 578 h 10"/>
        </g>
        <g class="sequence">
            <path d=" M 10 678 a 5 5 0 0 1 5 -5 a 5 5 0 0 1 5 5 a 5 5 0 0 1 -5 5 a 5 5 0 0 1 -5 -5 m 10 0 h 5"/>
            <text class="comment" id="Suffix" x="61" y="683">
                Suffix
            </text>
            <g class="choice">
                <path d=" M 97 678 h 24 m 28 0 h 24"/>
                <g class="string">
                    <rect height="22" rx="10" ry="10" width="28" x="121" y="667"/>
                    <text x="135" y="683">
                        ?
                    </text>
                </g>
                <path d=" M 97 678 a 12 12 0 0 1 12 12 v 9 m 52 0 v -9 a 12 12 0 0 1 12 -12"/>
                <path d=" M 109 699 v 33 m 52 0 v -33"/>
                <path d=" M 109 699 v 0 a 12 12 0 0 0 12 12 m 28 0 h 0 a 12 12 0 0 0 12 -12 v 0"/>
                <g class="string">
                    <rect height="22" rx="10" ry="10" width="28" x="121" y="700"/>
                    <text x="135" y="716">
                        *
                    </text>
                </g>
                <path d=" M 109 732 v 0 a 12 12 0 0 0 12 12 m 28 0 h 0 a 12 12 0 0 0 12 -12 v 0"/>
                <g class="string">
                    <rect height="22" rx="10" ry="10" width="28" x="121" y="733"/>
                    <text x="135" y="749">
                        +
                    </text>
                </g>
            </g>
            <path d=" M 183 678 h 5 a 5 5 0 0 1 5 -5 a 5 5 0 0 1 5 5 a 5 5 0 0 1 -5 5 a 5 5 0 0 1 -5 -5"/>
            <path d=" M 25 678 h 10"/>
            <path d=" M 87 678 h 10"/>
            <path d=" M 173 678 h 10"/>
        </g>
        <g class="sequence">
            <path d=" M 10 778 a 5 5 0 0 1 5 -5 a 5 5 0 0 1 5 5 a 5 5 0 0 1 -5 5 a 5 5 0 0 1 -5 -5 m 10 0 h 5"/>
            <text class="comment" id="Atomic" x="61" y="783">
                Atomic
            </text>
            <g class="choice">
                <path d=" M 97 778 h 24 m 100 0 h 24"/>
                <a class="link" xlink:href="#Identifier">
                    <g class="symbol">
                        <rect height="22" width="100" x="121" y="767"/>
                        <text x="171" y="783">
                            Identifier
                        </text>
                    </g>
                </a>
                <path d=" M 97 778 a 12 12 0 0 1 12 12 v 9 m 124 0 v -9 a 12 12 0 0 1 12 -12"/>
                <path d=" M 109 799 v 0 a 12 12 0 0 0 12 12 m 76 0 h 24 a 12 12 0 0 0 12 -12 v 0"/>
                <a class="link" xlink:href="#Boolean">
                    <g class="symbol">
                        <rect height="22" width="76" x="121" y="800"/>
                        <text x="159" y="816">
                            Boolean
                        </text>
                    </g>
                </a>
            </g>
            <path d=" M 255 778 h 5 a 5 5 0 0 1 5 -5 a 5 5 0 0 1 5 5 a 5 5 0 0 1 -5 5 a 5 5 0 0 1 -5 -5"/>
            <path d=" M 25 778 h 10"/>
            <path d=" M 87 778 h 10"/>
            <path d=" M 245 778 h 10"/>
        </g>
        <g class="sequence">
            <path d=" M 10 845 a 5 5 0 0 1 5 -5 a 5 5 0 0 1 5 5 a 5 5 0 0 1 -5 5 a 5 5 0 0 1 -5 -5 m 10 0 h 5"/>
            <text class="comment" id="NamepathFree" x="82" y="850">
                NamepathFree
            </text>
            <g class="sequence">
                <a class="link" xlink:href="#Identifier">
                    <g class="symbol">
                        <rect height="22" width="100" x="139" y="834"/>
                        <text x="189" y="850">
                            Identifier
                        </text>
                    </g>
                </a>
                <g class="character">
                    <rect height="22" rx="10" ry="10" width="76" x="249" y="834"/>
                    <text x="287" y="850">
                        IGNORED
                    </text>
                </g>
                <g class="repeat">
                    <path
                        d=" M 335 845 h 12 m 280 0 h 12 m -12 0 a 12 12 0 0 1 12 12 v 40 a 12 12 0 0 1 -12 12 m -17 0 h -263 m 134 0 l 5 -5 m 0 10 l -5 -5 m -134 0 a 12 12 0 0 1 -12 -12 v -40 a 12 12 0 0 1 12 -12"/>
                    <text class="comment" x="618" y="914">
                        *
                    </text>
                    <g class="sequence">
                        <g class="choice">
                            <path d=" M 347 845 h 24 m 28 0 h 32"/>
                            <g class="string">
                                <rect height="22" rx="10" ry="10" width="28" x="371" y="834"/>
                                <text x="385" y="850">
                                    .
                                </text>
                            </g>
                            <path d=" M 347 845 a 12 12 0 0 1 12 12 v 9 m 60 0 v -9 a 12 12 0 0 1 12 -12"/>
                            <path d=" M 359 866 v 0 a 12 12 0 0 0 12 12 m 36 0 h 0 a 12 12 0 0 0 12 -12 v 0"/>
                            <g class="string">
                                <rect height="22" rx="10" ry="10" width="36" x="371" y="867"/>
                                <text x="389" y="883">
                                    ::
                                </text>
                            </g>
                        </g>
                        <g class="character">
                            <rect height="22" rx="10" ry="10" width="76" x="441" y="834"/>
                            <text x="479" y="850">
                                IGNORED
                            </text>
                        </g>
                        <a class="link" xlink:href="#Identifier">
                            <g class="symbol">
                                <rect height="22" width="100" x="527" y="834"/>
                                <text x="577" y="850">
                                    Identifier
                                </text>
                            </g>
                        </a>
                        <path d=" M 431 845 h 10"/>
                        <path d=" M 517 845 h 10"/>
                    </g>
                </g>
                <path d=" M 239 845 h 10"/>
                <path d=" M 325 845 h 10"/>
            </g>
            <path d=" M 649 845 h 5 a 5 5 0 0 1 5 -5 a 5 5 0 0 1 5 5 a 5 5 0 0 1 -5 5 a 5 5 0 0 1 -5 -5"/>
            <path d=" M 25 845 h 10"/>
            <path d=" M 129 845 h 10"/>
            <path d=" M 639 845 h 10"/>
        </g>
        <g class="sequence">
            <path d=" M 10 942 a 5 5 0 0 1 5 -5 a 5 5 0 0 1 5 5 a 5 5 0 0 1 -5 5 a 5 5 0 0 1 -5 -5 m 10 0 h 5"/>
            <text class="comment" id="Namepath" x="68" y="947">
                Namepath
            </text>
            <g class="sequence">
                <a class="link" xlink:href="#Identifier">
                    <g class="symbol">
                        <rect height="22" width="100" x="111" y="931"/>
                        <text x="161" y="947">
                            Identifier
                        </text>
                    </g>
                </a>
                <g class="character">
                    <rect height="22" rx="10" ry="10" width="76" x="221" y="931"/>
                    <text x="259" y="947">
                        IGNORED
                    </text>
                </g>
                <g class="repeat">
                    <path
                        d=" M 307 942 h 12 m 232 0 h 12 m -12 0 a 12 12 0 0 1 12 12 v 7 a 12 12 0 0 1 -12 12 m -17 0 h -215 m 110 0 l 5 -5 m 0 10 l -5 -5 m -110 0 a 12 12 0 0 1 -12 -12 v -7 a 12 12 0 0 1 12 -12"/>
                    <text class="comment" x="542" y="978">
                        *
                    </text>
                    <g class="sequence">
                        <g class="string">
                            <rect height="22" rx="10" ry="10" width="36" x="319" y="931"/>
                            <text x="337" y="947">
                                ::
                            </text>
                        </g>
                        <g class="character">
                            <rect height="22" rx="10" ry="10" width="76" x="365" y="931"/>
                            <text x="403" y="947">
                                IGNORED
                            </text>
                        </g>
                        <a class="link" xlink:href="#Identifier">
                            <g class="symbol">
                                <rect height="22" width="100" x="451" y="931"/>
                                <text x="501" y="947">
                                    Identifier
                                </text>
                            </g>
                        </a>
                        <path d=" M 355 942 h 10"/>
                        <path d=" M 441 942 h 10"/>
                    </g>
                </g>
                <path d=" M 211 942 h 10"/>
                <path d=" M 297 942 h 10"/>
            </g>
            <path d=" M 573 942 h 5 a 5 5 0 0 1 5 -5 a 5 5 0 0 1 5 5 a 5 5 0 0 1 -5 5 a 5 5 0 0 1 -5 -5"/>
            <path d=" M 25 942 h 10"/>
            <path d=" M 101 942 h 10"/>
            <path d=" M 563 942 h 10"/>
        </g>
        <g class="sequence">
            <path d=" M 10 1006 a 5 5 0 0 1 5 -5 a 5 5 0 0 1 5 5 a 5 5 0 0 1 -5 5 a 5 5 0 0 1 -5 -5 m 10 0 h 5"/>
            <text class="comment" id="Identifier" x="75" y="1011">
                Identifier
            </text>
            <g class="string">
                <rect height="22" rx="10" ry="10" width="292" x="125" y="995"/>
                <text x="271" y="1011">
                    [_\p{XID_start}]\p{XID_continue}*
                </text>
            </g>
            <path d=" M 427 1006 h 5 a 5 5 0 0 1 5 -5 a 5 5 0 0 1 5 5 a 5 5 0 0 1 -5 5 a 5 5 0 0 1 -5 -5"/>
            <path d=" M 25 1006 h 10"/>
            <path d=" M 115 1006 h 10"/>
            <path d=" M 417 1006 h 10"/>
        </g>
        <g class="sequence">
            <path d=" M 10 1040 a 5 5 0 0 1 5 -5 a 5 5 0 0 1 5 5 a 5 5 0 0 1 -5 5 a 5 5 0 0 1 -5 -5 m 10 0 h 5"/>
            <text class="comment" id="Boolean" x="64" y="1045">
                Boolean
            </text>
            <g class="choice">
                <path d=" M 104 1040 h 24 m 52 0 h 32"/>
                <g class="string">
                    <rect height="22" rx="10" ry="10" width="52" x="128" y="1029"/>
                    <text x="154" y="1045">
                        true
                    </text>
                </g>
                <path d=" M 104 1040 a 12 12 0 0 1 12 12 v 9 m 84 0 v -9 a 12 12 0 0 1 12 -12"/>
                <path d=" M 116 1061 v 0 a 12 12 0 0 0 12 12 m 60 0 h 0 a 12 12 0 0 0 12 -12 v 0"/>
                <g class="string">
                    <rect height="22" rx="10" ry="10" width="60" x="128" y="1062"/>
                    <text x="158" y="1078">
                        false
                    </text>
                </g>
            </g>
            <path d=" M 222 1040 h 5 a 5 5 0 0 1 5 -5 a 5 5 0 0 1 5 5 a 5 5 0 0 1 -5 5 a 5 5 0 0 1 -5 -5"/>
            <path d=" M 25 1040 h 10"/>
            <path d=" M 94 1040 h 10"/>
            <path d=" M 212 1040 h 10"/>
        </g>
        <g class="sequence">
            <path d=" M 10 1107 a 5 5 0 0 1 5 -5 a 5 5 0 0 1 5 5 a 5 5 0 0 1 -5 5 a 5 5 0 0 1 -5 -5 m 10 0 h 5"/>
            <text class="comment" id="KW_CLASS" x="68" y="1112">
                KW_CLASS
            </text>
            <g class="string">
                <rect height="22" rx="10" ry="10" width="60" x="111" y="1096"/>
                <text x="141" y="1112">
                    class
                </text>
            </g>
            <path d=" M 181 1107 h 5 a 5 5 0 0 1 5 -5 a 5 5 0 0 1 5 5 a 5 5 0 0 1 -5 5 a 5 5 0 0 1 -5 -5"/>
            <path d=" M 25 1107 h 10"/>
            <path d=" M 101 1107 h 10"/>
            <path d=" M 171 1107 h 10"/>
        </g>
        <g class="sequence">
            <path d=" M 10 1141 a 5 5 0 0 1 5 -5 a 5 5 0 0 1 5 5 a 5 5 0 0 1 -5 5 a 5 5 0 0 1 -5 -5 m 10 0 h 5"/>
            <text class="comment" id="KW_UNION" x="68" y="1146">
                KW_UNION
            </text>
            <g class="string">
                <rect height="22" rx="10" ry="10" width="60" x="111" y="1130"/>
                <text x="141" y="1146">
                    union
                </text>
            </g>
            <path d=" M 181 1141 h 5 a 5 5 0 0 1 5 -5 a 5 5 0 0 1 5 5 a 5 5 0 0 1 -5 5 a 5 5 0 0 1 -5 -5"/>
            <path d=" M 25 1141 h 10"/>
            <path d=" M 101 1141 h 10"/>
            <path d=" M 171 1141 h 10"/>
        </g>
        <g class="sequence">
            <path d=" M 10 1175 a 5 5 0 0 1 5 -5 a 5 5 0 0 1 5 5 a 5 5 0 0 1 -5 5 a 5 5 0 0 1 -5 -5 m 10 0 h 5"/>
            <text class="comment" id="KW_GROUP" x="68" y="1180">
                KW_GROUP
            </text>
            <g class="string">
                <rect height="22" rx="10" ry="10" width="60" x="111" y="1164"/>
                <text x="141" y="1180">
                    group
                </text>
            </g>
            <path d=" M 181 1175 h 5 a 5 5 0 0 1 5 -5 a 5 5 0 0 1 5 5 a 5 5 0 0 1 -5 5 a 5 5 0 0 1 -5 -5"/>
            <path d=" M 25 1175 h 10"/>
            <path d=" M 101 1175 h 10"/>
            <path d=" M 171 1175 h 10"/>
        </g>
        <g class="sequence">
            <path d=" M 10 1209 a 5 5 0 0 1 5 -5 a 5 5 0 0 1 5 5 a 5 5 0 0 1 -5 5 a 5 5 0 0 1 -5 -5 m 10 0 h 5"/>
            <text class="comment" id="WhiteSpace" x="75" y="1214">
                WhiteSpace
            </text>
            <g class="string">
                <rect height="22" rx="10" ry="10" width="148" x="125" y="1198"/>
                <text x="199" y="1214">
                    \p{White_Space}+
                </text>
            </g>
            <path d=" M 283 1209 h 5 a 5 5 0 0 1 5 -5 a 5 5 0 0 1 5 5 a 5 5 0 0 1 -5 5 a 5 5 0 0 1 -5 -5"/>
            <path d=" M 25 1209 h 10"/>
            <path d=" M 115 1209 h 10"/>
            <path d=" M 273 1209 h 10"/>
        </g>
        <g class="sequence">
            <path d=" M 10 1243 a 5 5 0 0 1 5 -5 a 5 5 0 0 1 5 5 a 5 5 0 0 1 -5 5 a 5 5 0 0 1 -5 -5 m 10 0 h 5"/>
            <text class="comment" id="Comment" x="64" y="1248">
                Comment
            </text>
            <g class="choice">
                <path d=" M 104 1243 h 0 m 512 0 h 0"/>
                <g class="sequence">
                    <g class="string">
                        <rect height="22" rx="10" ry="10" width="28" x="104" y="1232"/>
                        <text x="118" y="1248">
                            \
                        </text>
                    </g>
                    <g class="character">
                        <rect height="22" rx="10" ry="10" width="76" x="142" y="1232"/>
                        <text x="180" y="1248">
                            IGNORED
                        </text>
                    </g>
                    <g class="string">
                        <rect height="22" rx="10" ry="10" width="28" x="228" y="1232"/>
                        <text x="242" y="1248">
                            /
                        </text>
                    </g>
                    <g class="character">
                        <rect height="22" rx="10" ry="10" width="76" x="266" y="1232"/>
                        <text x="304" y="1248">
                            IGNORED
                        </text>
                    </g>
                    <g class="repeat">
                        <path
                            d=" M 352 1243 h 12 m 76 0 h 12 m -12 0 a 12 12 0 0 1 12 12 v 7 a 12 12 0 0 1 -12 12 m -17 0 h -59 m 32 0 l 5 -5 m 0 10 l -5 -5 m -32 0 a 12 12 0 0 1 -12 -12 v -7 a 12 12 0 0 1 12 -12"/>
                        <text class="comment" x="431" y="1279">
                            *
                        </text>
                        <g class="string">
                            <rect height="22" rx="10" ry="10" width="76" x="364" y="1232"/>
                            <text x="402" y="1248">
                                [^\n\r]
                            </text>
                        </g>
                    </g>
                    <g class="character">
                        <rect height="22" rx="10" ry="10" width="76" x="462" y="1232"/>
                        <text x="500" y="1248">
                            IGNORED
                        </text>
                    </g>
                    <g class="string">
                        <rect height="22" rx="10" ry="10" width="68" x="548" y="1232"/>
                        <text x="582" y="1248">
                            |
                        </text>
                    </g>
                    <path d=" M 132 1243 h 10"/>
                    <path d=" M 218 1243 h 10"/>
                    <path d=" M 256 1243 h 10"/>
                    <path d=" M 342 1243 h 10"/>
                    <path d=" M 452 1243 h 10"/>
                    <path d=" M 538 1243 h 10"/>
                </g>
            </g>
            <path d=" M 626 1243 h 5 a 5 5 0 0 1 5 -5 a 5 5 0 0 1 5 5 a 5 5 0 0 1 -5 5 a 5 5 0 0 1 -5 -5"/>
            <path d=" M 25 1243 h 10"/>
            <path d=" M 94 1243 h 10"/>
            <path d=" M 616 1243 h 10"/>
        </g>
    </g>
</svg>